<svg width="66" height="20" viewBox="0 0 66 20" fill="none" xmlns="http://www.w3.org/2000/svg">
<path d="M0 10.1722C0 4.7445 4.40004 0.344456 9.82777 0.344456H56.1722C61.6 0.344456 66 4.7445 66 10.1722C66 15.6 61.6 20 56.1722 20H9.82777C4.40004 20 0 15.6 0 10.1722Z" fill="#76ABAE"/>
<path d="M60.8071 16.3958V4.65325C60.8071 4.41306 60.6166 4.21834 60.3817 4.21834L54.4254 4.21834C54.1904 4.21834 54 4.41306 54 4.65325V16.3958C54 16.636 54.1904 16.8307 54.4254 16.8307H60.3817C60.6166 16.8307 60.8071 16.636 60.8071 16.3958Z" fill="#D8D8D8"/>
<path d="M56.9782 16.1783C56.9782 16.4185 57.1687 16.6132 57.4037 16.6132C57.6386 16.6132 57.8291 16.4185 57.8291 16.1783C57.8291 15.9381 57.6386 15.7434 57.4037 15.7434C57.1687 15.7434 56.9782 15.9381 56.9782 16.1783Z" fill="#868686"/>
<path d="M60.3818 15.3085V5.08816C60.3818 4.96806 60.2866 4.8707 60.1691 4.8707H54.6383C54.5208 4.8707 54.4256 4.96806 54.4256 5.08816V15.3085C54.4256 15.4286 54.5208 15.526 54.6383 15.526H60.1691C60.2866 15.526 60.3818 15.4286 60.3818 15.3085Z" fill="#5B68C0"/>
<path d="M56.3611 6.17544L55.489 7.06687M57.6374 6.17544L55.6207 8.23698" stroke="#5EA7FF" stroke-width="6.45891" stroke-linecap="round"/>
<path d="M10.66 5.025L11.875 12.555H12.01L14.185 5.025L15.535 5.385L12.28 15L10.93 15.225L7.225 5.43L10.66 5.025ZM18.3045 15.21L17.4495 5.25L21.0195 5.025L19.9545 15.06L18.3045 15.21ZM30.4045 15L24.5395 15.135L23.8345 5.25L30.4495 5.04L30.4045 6.045L27.2395 6.42L26.8495 9.525L30.0445 9.495L30.1195 10.845L26.7295 10.59L26.3245 13.935L30.4645 13.455L30.4045 15ZM35.3915 5.025L36.4265 12.585H36.5465L38.8115 5.475L40.0115 5.835L41.5715 12.645H41.6915L43.4165 5.025L44.7665 5.385L42.1115 15L40.7615 15.225L38.4665 10.17L36.7565 15L35.1065 15.225L31.9565 5.43L35.3915 5.025Z" fill="white"/>
</svg>
