<svg width="300" height="65" viewBox="0 0 300 65" fill="none" xmlns="http://www.w3.org/2000/svg">
<path d="M0 29.2857C0 13.1117 13.1117 0 29.2857 0H270.714C286.888 0 300 13.1117 300 29.2857C300 45.4598 286.888 58.5714 270.714 58.5714H29.2857C13.1116 58.5714 0 45.4598 0 29.2857Z" fill="#31363F"/>
<path d="M230.718 9.61372L241.827 12.2221" stroke="#979797" stroke-width="3.43301" stroke-linecap="round"/>
<path d="M241.827 9.61372L230.718 12.2221" stroke="#979797" stroke-width="3.43301" stroke-linecap="round"/>
<path fill-rule="evenodd" clip-rule="evenodd" d="M235.3 7.14285H237.646V23.4141H235.3V7.14285Z" fill="#D8D8D8"/>
<path d="M266.693 9.61372L277.803 12.2221" stroke="#979797" stroke-width="3.43301" stroke-linecap="round"/>
<path d="M275.968 23.4141H232.954C232.09 23.4141 231.389 24.2712 231.389 25.3284C231.389 26.3856 232.09 27.2426 232.954 27.2426H275.968C276.832 27.2426 277.532 26.3856 277.532 25.3284C277.532 24.2712 276.832 23.4141 275.968 23.4141Z" fill="#979797"/>
<path d="M277.803 9.61372L266.693 12.2221" stroke="#979797" stroke-width="3.43301" stroke-linecap="round"/>
<path fill-rule="evenodd" clip-rule="evenodd" d="M271.275 7.14285H273.622V23.4141H271.275V7.14285Z" fill="#D8D8D8"/>
<path d="M240.774 48.1618V42.5836L246.271 35.8569" stroke="#979797" stroke-width="3.43301" stroke-linecap="round"/>
<path d="M267.387 48.1618V42.5836L261.891 35.8569" stroke="#979797" stroke-width="3.43301" stroke-linecap="round"/>
<path fill-rule="evenodd" clip-rule="evenodd" d="M245.467 21.4999H263.455V37.7654C263.455 43.5833 259.596 48.2997 254.856 48.2997H254.066C249.317 48.2997 245.467 43.5855 245.467 37.7654V21.4999Z" fill="#22BA8E"/>
<path d="M254.461 44.4711C257.7 44.4711 260.326 41.2572 260.326 37.2926C260.326 33.328 257.7 30.1141 254.461 30.1141C251.221 30.1141 248.595 33.328 248.595 37.2926C248.595 41.2572 251.221 44.4711 254.461 44.4711Z" fill="#5B68C0"/>
<path d="M251.723 35.8569C252.587 35.8569 253.288 34.9998 253.288 33.9426C253.288 32.8854 252.587 32.0284 251.723 32.0284C250.86 32.0284 250.159 32.8854 250.159 33.9426C250.159 34.9998 250.86 35.8569 251.723 35.8569Z" fill="white"/>
<path d="M103.33 37.5714L92.2 37.8414L90.79 18.0714L97.93 17.6214L95.77 35.4114L103.45 34.4814L103.33 37.5714ZM119.316 31.3614C119.316 32.5814 119.216 33.6014 119.016 34.4214C118.816 35.2214 118.456 35.9314 117.936 36.5514C116.936 37.7114 114.996 38.2914 112.116 38.2914C109.256 38.2914 107.036 37.6414 105.456 36.3414C105.116 34.6614 104.946 33.0014 104.946 31.3614C104.946 28.0414 105.566 25.0714 106.806 22.4514C108.066 19.8314 109.526 17.9714 111.186 16.8714C113.526 17.8314 115.466 19.6314 117.006 22.2714C118.546 24.8914 119.316 27.9214 119.316 31.3614ZM115.686 30.0114C115.686 26.9314 115.176 24.2914 114.156 22.0914C112.216 23.8714 110.696 25.9314 109.596 28.2714C108.516 30.6114 107.976 32.9114 107.976 35.1714C108.656 35.3114 109.466 35.3814 110.406 35.3814C112.246 35.3814 113.826 35.1514 115.146 34.6914C115.506 33.1314 115.686 31.5714 115.686 30.0114ZM130.713 37.9914C129.173 37.9914 127.743 37.8114 126.423 37.4514C125.123 37.0914 124.123 36.6214 123.423 36.0414C123.083 34.4414 122.913 32.7814 122.913 31.0614C122.913 28.1214 123.423 25.3614 124.443 22.7814C125.463 20.1814 127.033 18.1114 129.153 16.5714L134.943 20.2314C132.183 21.9914 129.993 24.2314 128.373 26.9514C126.753 29.6714 125.943 32.4114 125.943 35.1714C127.043 35.3914 128.123 35.5014 129.183 35.5014C130.263 35.5014 131.233 35.4014 132.093 35.2014L131.493 28.6314L137.193 28.2714L135.393 38.8314L132.453 39.0714L132.333 37.9014C131.793 37.9614 131.253 37.9914 130.713 37.9914ZM142.748 37.9914L141.038 18.0714L148.178 17.6214L146.048 37.6914L142.748 37.9914ZM170.278 17.7714L168.988 37.5714L166.288 38.0214L156.568 21.9414H156.328L156.418 37.5714L153.418 37.7214L154.228 18.0714L161.488 17.6214L166.738 32.5914H166.978L167.278 17.9214L170.278 17.7714Z" fill="white"/>
</svg>
