<svg width="129" height="44" viewBox="0 0 129 44" fill="none" xmlns="http://www.w3.org/2000/svg">
<path d="M0 21.5479C0 9.64735 9.64734 0 21.5479 0H107.452C119.353 0 129 9.64735 129 21.5479C129 33.4485 119.353 43.0959 107.452 43.0959H21.5479C9.64734 43.0959 0 33.4485 0 21.5479Z" fill="#31363F"/>
<path d="M87 7.07361L94.6576 8.99278" stroke="#979797" stroke-width="3.43301" stroke-linecap="round"/>
<path d="M94.658 7.07361L87.0004 8.99278" stroke="#979797" stroke-width="3.43301" stroke-linecap="round"/>
<path fill-rule="evenodd" clip-rule="evenodd" d="M90.1587 5.2556H91.7759V17.2277H90.1587V5.2556Z" fill="#D8D8D8"/>
<path d="M111.797 7.07361L119.455 8.99278" stroke="#979797" stroke-width="3.43301" stroke-linecap="round"/>
<path d="M118.191 17.2277H88.5415C87.9461 17.2277 87.4634 17.8583 87.4634 18.6362C87.4634 19.4141 87.9461 20.0447 88.5415 20.0447H118.191C118.786 20.0447 119.269 19.4141 119.269 18.6362C119.269 17.8583 118.786 17.2277 118.191 17.2277Z" fill="#979797"/>
<path d="M119.455 7.07361L111.798 8.99278" stroke="#979797" stroke-width="3.43301" stroke-linecap="round"/>
<path fill-rule="evenodd" clip-rule="evenodd" d="M114.956 5.2556H116.573V17.2277H114.956V5.2556Z" fill="#D8D8D8"/>
<path d="M93.9321 35.4366V31.3323L97.7208 26.3829" stroke="#979797" stroke-width="3.43301" stroke-linecap="round"/>
<path d="M112.276 35.4366V31.3323L108.487 26.3829" stroke="#979797" stroke-width="3.43301" stroke-linecap="round"/>
<path fill-rule="evenodd" clip-rule="evenodd" d="M97.1663 15.8192H109.565V27.7871C109.565 32.0679 106.905 35.5381 103.638 35.5381H103.093C99.8199 35.5381 97.1663 32.0694 97.1663 27.7871V15.8192Z" fill="#22BA8E"/>
<path d="M103.366 32.7211C105.599 32.7211 107.409 30.3563 107.409 27.4393C107.409 24.5222 105.599 22.1574 103.366 22.1574C101.133 22.1574 99.323 24.5222 99.323 27.4393C99.323 30.3563 101.133 32.7211 103.366 32.7211Z" fill="#5B68C0"/>
<path d="M101.479 26.3829C102.075 26.3829 102.557 25.7523 102.557 24.9744C102.557 24.1965 102.075 23.5659 101.479 23.5659C100.884 23.5659 100.401 24.1965 100.401 24.9744C100.401 25.7523 100.884 26.3829 101.479 26.3829Z" fill="white"/>
<path d="M16.589 20.9259H21.419L21.119 23.4159L16.589 23.7159V29.0559L14.099 28.7559L13.769 23.8959L8.45903 24.2259L8.75903 20.9259H13.589L13.289 16.0959L16.589 16.3959V20.9259ZM25.0282 31.9959L30.6382 12.0459L37.8982 12.4959L41.7982 31.9959L39.0982 32.4459L37.0282 27.4659L29.0482 28.1259L28.0282 32.4459L25.0282 31.9959ZM31.9582 15.8259L29.5882 25.8159L36.3682 25.8759L32.1982 15.8259H31.9582ZM46.2283 13.0959C49.1683 12.1559 51.9483 11.6859 54.5683 11.6859C57.2083 11.6859 59.3583 12.0859 61.0183 12.8859C61.6783 14.5059 62.0083 16.1959 62.0083 17.9559C62.0083 20.3359 61.4283 22.6059 60.2683 24.7659C59.1283 26.9259 57.4583 28.7259 55.2583 30.1659C53.0783 31.5859 50.6383 32.3359 47.9383 32.4159L46.2283 13.0959ZM56.6683 19.9959C56.6683 18.5359 56.4483 17.2359 56.0083 16.0959C55.5883 14.9559 54.9783 14.1559 54.1783 13.6959C53.8183 13.6959 53.3783 13.7659 52.8583 13.9059L51.2083 29.8959C53.0083 29.1559 54.3683 27.8659 55.2883 26.0259C56.2083 24.1659 56.6683 22.1559 56.6683 19.9959ZM65.8572 13.0959C68.7972 12.1559 71.5772 11.6859 74.1972 11.6859C76.8372 11.6859 78.9872 12.0859 80.6472 12.8859C81.3072 14.5059 81.6372 16.1959 81.6372 17.9559C81.6372 20.3359 81.0572 22.6059 79.8972 24.7659C78.7572 26.9259 77.0872 28.7259 74.8872 30.1659C72.7072 31.5859 70.2672 32.3359 67.5672 32.4159L65.8572 13.0959ZM76.2972 19.9959C76.2972 18.5359 76.0772 17.2359 75.6372 16.0959C75.2172 14.9559 74.6072 14.1559 73.8072 13.6959C73.4472 13.6959 73.0072 13.7659 72.4872 13.9059L70.8372 29.8959C72.6372 29.1559 73.9972 27.8659 74.9172 26.0259C75.8372 24.1659 76.2972 22.1559 76.2972 19.9959Z" fill="white"/>
</svg>
