<svg width="300" height="65" viewBox="0 0 300 65" fill="none" xmlns="http://www.w3.org/2000/svg">
<path d="M0 29.2857C0 13.1117 13.1117 0 29.2857 0H270.714C286.888 0 300 13.1117 300 29.2857C300 45.4598 286.888 58.5714 270.714 58.5714H29.2857C13.1116 58.5714 0 45.4598 0 29.2857Z" fill="#31363F"/>
<path d="M230.717 9.61365L241.827 12.222" stroke="#979797" stroke-width="3.43301" stroke-linecap="round"/>
<path d="M241.827 9.61365L230.718 12.222" stroke="#979797" stroke-width="3.43301" stroke-linecap="round"/>
<path fill-rule="evenodd" clip-rule="evenodd" d="M235.3 7.14282H237.646V23.4141H235.3V7.14282Z" fill="#D8D8D8"/>
<path d="M266.693 9.61365L277.803 12.222" stroke="#979797" stroke-width="3.43301" stroke-linecap="round"/>
<path d="M275.968 23.4141H232.954C232.09 23.4141 231.389 24.2711 231.389 25.3283C231.389 26.3856 232.09 27.2426 232.954 27.2426H275.968C276.832 27.2426 277.532 26.3856 277.532 25.3283C277.532 24.2711 276.832 23.4141 275.968 23.4141Z" fill="#979797"/>
<path d="M277.803 9.61365L266.693 12.222" stroke="#979797" stroke-width="3.43301" stroke-linecap="round"/>
<path fill-rule="evenodd" clip-rule="evenodd" d="M271.275 7.14282H273.622V23.4141H271.275V7.14282Z" fill="#D8D8D8"/>
<path d="M240.774 48.1617V42.5836L246.271 35.8568" stroke="#979797" stroke-width="3.43301" stroke-linecap="round"/>
<path d="M267.387 48.1617V42.5836L261.89 35.8568" stroke="#979797" stroke-width="3.43301" stroke-linecap="round"/>
<path fill-rule="evenodd" clip-rule="evenodd" d="M245.467 21.4999H263.455V37.7654C263.455 43.5833 259.596 48.2997 254.856 48.2997H254.066C249.317 48.2997 245.467 43.5855 245.467 37.7654V21.4999Z" fill="#22BA8E"/>
<path d="M254.461 44.471C257.7 44.471 260.326 41.2571 260.326 37.2925C260.326 33.3279 257.7 30.114 254.461 30.114C251.221 30.114 248.595 33.3279 248.595 37.2925C248.595 41.2571 251.221 44.471 254.461 44.471Z" fill="#5B68C0"/>
<path d="M251.723 35.8569C252.587 35.8569 253.288 34.9998 253.288 33.9426C253.288 32.8854 252.587 32.0283 251.723 32.0283C250.86 32.0283 250.159 32.8854 250.159 33.9426C250.159 34.9998 250.86 35.8569 251.723 35.8569Z" fill="white"/>
<path d="M29.83 26.93H34.66L34.36 29.42L29.83 29.72V35.06L27.34 34.76L27.01 29.9L21.7 30.23L22 26.93H26.83L26.53 22.1L29.83 22.4V26.93ZM54.3733 35.81C56.4733 35.81 58.4833 35.45 60.4033 34.73L61.4233 37.97C59.8033 38.47 58.1533 38.72 56.4733 38.72C54.7933 38.72 53.2933 38.54 51.9733 38.18C50.6733 37.82 49.6733 37.35 48.9733 36.77C48.6333 35.09 48.4633 33.43 48.4633 31.79C48.4633 28.45 49.0933 25.42 50.3533 22.7C51.6133 19.98 53.0633 18.08 54.7033 17L60.4933 20.66C57.7333 22.42 55.5433 24.66 53.9233 27.38C52.3033 30.1 51.4933 32.84 51.4933 35.6C52.3533 35.74 53.3133 35.81 54.3733 35.81ZM77.5919 31.79C77.5919 33.01 77.4919 34.03 77.2919 34.85C77.0919 35.65 76.7319 36.36 76.2119 36.98C75.2119 38.14 73.2719 38.72 70.3919 38.72C67.5319 38.72 65.3119 38.07 63.7319 36.77C63.3919 35.09 63.2219 33.43 63.2219 31.79C63.2219 28.47 63.8419 25.5 65.0819 22.88C66.3419 20.26 67.8019 18.4 69.4619 17.3C71.8019 18.26 73.7419 20.06 75.2819 22.7C76.8219 25.32 77.5919 28.35 77.5919 31.79ZM73.9619 30.44C73.9619 27.36 73.4519 24.72 72.4319 22.52C70.4919 24.3 68.9719 26.36 67.8719 28.7C66.7919 31.04 66.2519 33.34 66.2519 35.6C66.9319 35.74 67.7419 35.81 68.6819 35.81C70.5219 35.81 72.1019 35.58 73.4219 35.12C73.7819 33.56 73.9619 32 73.9619 30.44ZM94.4179 38L83.2879 38.27L81.8779 18.5L89.0179 18.05L86.8579 35.84L94.5379 34.91L94.4179 38ZM109.564 38L98.4344 38.27L97.0244 18.5L104.164 18.05L102.004 35.84L109.684 34.91L109.564 38ZM125.311 38L113.581 38.27L112.171 18.5L125.401 18.08L125.311 20.09L118.981 20.84L118.201 27.05L124.591 26.99L124.741 29.69L117.961 29.18L117.151 35.87L125.431 34.91L125.311 38ZM135.555 35.81C137.655 35.81 139.665 35.45 141.585 34.73L142.605 37.97C140.985 38.47 139.335 38.72 137.655 38.72C135.975 38.72 134.475 38.54 133.155 38.18C131.855 37.82 130.855 37.35 130.155 36.77C129.815 35.09 129.645 33.43 129.645 31.79C129.645 28.45 130.275 25.42 131.535 22.7C132.795 19.98 134.245 18.08 135.885 17L141.675 20.66C138.915 22.42 136.725 24.66 135.105 27.38C133.485 30.1 132.675 32.84 132.675 35.6C133.535 35.74 134.495 35.81 135.555 35.81ZM147.254 38.42L145.544 18.5L152.684 18.05L150.554 38.12L147.254 38.42ZM156.723 18.47L172.053 18.05L171.963 20.06L167.763 20.48L165.903 38.12L162.603 38.42L161.103 21.14L156.903 21.56L156.723 18.47ZM188.686 31.79C188.686 33.01 188.586 34.03 188.386 34.85C188.186 35.65 187.826 36.36 187.306 36.98C186.306 38.14 184.366 38.72 181.486 38.72C178.626 38.72 176.406 38.07 174.826 36.77C174.486 35.09 174.316 33.43 174.316 31.79C174.316 28.47 174.936 25.5 176.176 22.88C177.436 20.26 178.896 18.4 180.556 17.3C182.896 18.26 184.836 20.06 186.376 22.7C187.916 25.32 188.686 28.35 188.686 31.79ZM185.056 30.44C185.056 27.36 184.546 24.72 183.526 22.52C181.586 24.3 180.066 26.36 178.966 28.7C177.886 31.04 177.346 33.34 177.346 35.6C178.026 35.74 178.836 35.81 179.776 35.81C181.616 35.81 183.196 35.58 184.516 35.12C184.876 33.56 185.056 32 185.056 30.44ZM209.442 18.2L208.152 38L205.452 38.45L195.732 22.37H195.492L195.582 38L192.582 38.15L193.392 18.5L200.652 18.05L205.902 33.02H206.142L206.442 18.35L209.442 18.2Z" fill="white"/>
</svg>
