<svg width="110" height="30" viewBox="0 0 110 30" fill="none" xmlns="http://www.w3.org/2000/svg">
<path d="M36.08 22.14C35.1467 22.14 34.3067 21.98 33.56 21.66C32.8133 21.3267 32.2267 20.86 31.8 20.26C31.3733 19.66 31.16 18.96 31.16 18.16H33.6C33.6533 18.76 33.8867 19.2533 34.3 19.64C34.7267 20.0267 35.32 20.22 36.08 20.22C36.8667 20.22 37.48 20.0333 37.92 19.66C38.36 19.2733 38.58 18.78 38.58 18.18C38.58 17.7133 38.44 17.3333 38.16 17.04C37.8933 16.7467 37.5533 16.52 37.14 16.36C36.74 16.2 36.18 16.0267 35.46 15.84C34.5533 15.6 33.8133 15.36 33.24 15.12C32.68 14.8667 32.2 14.48 31.8 13.96C31.4 13.44 31.2 12.7467 31.2 11.88C31.2 11.08 31.4 10.38 31.8 9.78C32.2 9.18 32.76 8.72 33.48 8.4C34.2 8.08 35.0333 7.92 35.98 7.92C37.3267 7.92 38.4267 8.26 39.28 8.94C40.1467 9.60667 40.6267 10.5267 40.72 11.7H38.2C38.16 11.1933 37.92 10.76 37.48 10.4C37.04 10.04 36.46 9.86 35.74 9.86C35.0867 9.86 34.5533 10.0267 34.14 10.36C33.7267 10.6933 33.52 11.1733 33.52 11.8C33.52 12.2267 33.6467 12.58 33.9 12.86C34.1667 13.1267 34.5 13.34 34.9 13.5C35.3 13.66 35.8467 13.8333 36.54 14.02C37.46 14.2733 38.2067 14.5267 38.78 14.78C39.3667 15.0333 39.86 15.4267 40.26 15.96C40.6733 16.48 40.88 17.18 40.88 18.06C40.88 18.7667 40.6867 19.4333 40.3 20.06C39.9267 20.6867 39.3733 21.1933 38.64 21.58C37.92 21.9533 37.0667 22.14 36.08 22.14ZM53.5503 10.98V22H51.2703V20.7C50.9103 21.1533 50.437 21.5133 49.8503 21.78C49.277 22.0333 48.6636 22.16 48.0103 22.16C47.1436 22.16 46.3636 21.98 45.6703 21.62C44.9903 21.26 44.4503 20.7267 44.0503 20.02C43.6636 19.3133 43.4703 18.46 43.4703 17.46V10.98H45.7303V17.12C45.7303 18.1067 45.977 18.8667 46.4703 19.4C46.9636 19.92 47.637 20.18 48.4903 20.18C49.3436 20.18 50.017 19.92 50.5103 19.4C51.017 18.8667 51.2703 18.1067 51.2703 17.12V10.98H53.5503ZM58.8386 12.58C59.1719 12.02 59.6119 11.5867 60.1586 11.28C60.7186 10.96 61.3786 10.8 62.1386 10.8V13.16H61.5586C60.6653 13.16 59.9853 13.3867 59.5186 13.84C59.0653 14.2933 58.8386 15.08 58.8386 16.2V22H56.5586V10.98H58.8386V12.58ZM68.4944 19.96L71.6144 10.98H74.0344L69.8344 22H67.1144L62.9344 10.98H65.3744L68.4944 19.96ZM76.9178 9.52C76.5045 9.52 76.1578 9.38 75.8778 9.1C75.5978 8.82 75.4578 8.47333 75.4578 8.06C75.4578 7.64667 75.5978 7.3 75.8778 7.02C76.1578 6.74 76.5045 6.6 76.9178 6.6C77.3178 6.6 77.6578 6.74 77.9378 7.02C78.2178 7.3 78.3578 7.64667 78.3578 8.06C78.3578 8.47333 78.2178 8.82 77.9378 9.1C77.6578 9.38 77.3178 9.52 76.9178 9.52ZM78.0378 10.98V22H75.7578V10.98H78.0378ZM85.2913 19.96L88.4113 10.98H90.8312L86.6313 22H83.9113L79.7313 10.98H82.1712L85.2913 19.96ZM91.7947 16.44C91.7947 15.3333 92.0214 14.3533 92.4747 13.5C92.9414 12.6467 93.568 11.9867 94.3547 11.52C95.1547 11.04 96.0347 10.8 96.9947 10.8C97.8614 10.8 98.6147 10.9733 99.2547 11.32C99.908 11.6533 100.428 12.0733 100.815 12.58V10.98H103.115V22H100.815V20.36C100.428 20.88 99.9014 21.3133 99.2347 21.66C98.568 22.0067 97.808 22.18 96.9547 22.18C96.008 22.18 95.1414 21.94 94.3547 21.46C93.568 20.9667 92.9414 20.2867 92.4747 19.42C92.0214 18.54 91.7947 17.5467 91.7947 16.44ZM100.815 16.48C100.815 15.72 100.655 15.06 100.335 14.5C100.028 13.94 99.6214 13.5133 99.1147 13.22C98.608 12.9267 98.0614 12.78 97.4747 12.78C96.888 12.78 96.3414 12.9267 95.8347 13.22C95.328 13.5 94.9147 13.92 94.5947 14.48C94.288 15.0267 94.1347 15.68 94.1347 16.44C94.1347 17.2 94.288 17.8667 94.5947 18.44C94.9147 19.0133 95.328 19.4533 95.8347 19.76C96.3547 20.0533 96.9014 20.2 97.4747 20.2C98.0614 20.2 98.608 20.0533 99.1147 19.76C99.6214 19.4667 100.028 19.04 100.335 18.48C100.655 17.9067 100.815 17.24 100.815 16.48ZM108.389 7.2V22H106.109V7.2H108.389Z" fill="black"/>
<path d="M15 17C15.5523 17 16 16.5523 16 16C16 15.4477 15.5523 15 15 15C14.4477 15 14 15.4477 14 16C14 16.5523 14.4477 17 15 17Z" fill="black"/>
<path d="M17 15C17.5523 15 18 14.5523 18 14C18 13.4477 17.5523 13 17 13C16.4477 13 16 13.4477 16 14C16 14.5523 16.4477 15 17 15Z" fill="black"/>
<path d="M10 12H8V14H6V16H8V18H10V16H12V14H10V12Z" fill="black"/>
<path d="M15 8H9C7.14348 8 5.36301 8.7375 4.05025 10.0503C2.7375 11.363 2 13.1435 2 15C2 16.8565 2.7375 18.637 4.05025 19.9497C5.36301 21.2625 7.14348 22 9 22H15C16.8565 22 18.637 21.2625 19.9497 19.9497C21.2625 18.637 22 16.8565 22 15C22 13.1435 21.2625 11.363 19.9497 10.0503C18.637 8.7375 16.8565 8 15 8ZM15 20H9C7.67392 20 6.40215 19.4732 5.46447 18.5355C4.52678 17.5979 4 16.3261 4 15C4 13.6739 4.52678 12.4021 5.46447 11.4645C6.40215 10.5268 7.67392 10 9 10H15C16.3261 10 17.5979 10.5268 18.5355 11.4645C19.4732 12.4021 20 13.6739 20 15C20 16.3261 19.4732 17.5979 18.5355 18.5355C17.5979 19.4732 16.3261 20 15 20Z" fill="black"/>
</svg>
