<svg width="88" height="28" viewBox="0 0 88 28" fill="none" xmlns="http://www.w3.org/2000/svg">
<path d="M39.064 10.216C39.028 9.64 38.89 9.094 38.65 8.578C38.41 8.062 38.062 7.642 37.606 7.318C37.15 6.994 36.568 6.832 35.86 6.832C35.116 6.832 34.546 7.042 34.15 7.462C33.754 7.882 33.556 8.374 33.556 8.938C33.556 9.442 33.7 9.868 33.988 10.216C34.276 10.552 34.648 10.852 35.104 11.116C35.572 11.368 36.064 11.614 36.58 11.854C37.036 12.058 37.492 12.28 37.948 12.52C38.404 12.748 38.818 13.012 39.19 13.312C39.562 13.612 39.856 13.972 40.072 14.392C40.3 14.8 40.414 15.292 40.414 15.868C40.414 16.528 40.246 17.116 39.91 17.632C39.586 18.148 39.112 18.556 38.488 18.856C37.864 19.144 37.102 19.288 36.202 19.288C35.662 19.288 35.104 19.21 34.528 19.054C33.952 18.898 33.442 18.67 32.998 18.37L33.088 19.144H32.152L32.044 15.31H32.746C32.806 16.366 33.172 17.17 33.844 17.722C34.516 18.262 35.326 18.532 36.274 18.532C36.742 18.532 37.174 18.448 37.57 18.28C37.966 18.1 38.278 17.842 38.506 17.506C38.746 17.17 38.866 16.762 38.866 16.282C38.866 15.742 38.722 15.292 38.434 14.932C38.146 14.572 37.774 14.26 37.318 13.996C36.862 13.732 36.376 13.48 35.86 13.24C35.404 13.036 34.954 12.82 34.51 12.592C34.066 12.364 33.658 12.106 33.286 11.818C32.926 11.518 32.632 11.164 32.404 10.756C32.188 10.348 32.08 9.856 32.08 9.28C32.08 8.968 32.134 8.632 32.242 8.272C32.35 7.912 32.536 7.57 32.8 7.246C33.076 6.91 33.448 6.64 33.916 6.436C34.396 6.22 35.002 6.112 35.734 6.112C36.19 6.112 36.7 6.178 37.264 6.31C37.84 6.43 38.374 6.67 38.866 7.03L38.794 6.256H39.712V10.216H39.064ZM45.3186 19.288C45.0426 19.288 44.7606 19.246 44.4726 19.162C44.1846 19.09 43.9146 18.94 43.6626 18.712C43.4226 18.484 43.2306 18.154 43.0866 17.722C42.9426 17.278 42.8706 16.696 42.8706 15.976L42.9066 10.756L41.5206 10.774V10C41.8326 9.988 42.1506 9.874 42.4746 9.658C42.7986 9.43 43.0866 9.124 43.3386 8.74C43.6026 8.356 43.7826 7.936 43.8786 7.48H44.4906V10H47.5146V10.702L44.4906 10.738L44.4546 15.742C44.4546 16.282 44.4966 16.744 44.5806 17.128C44.6766 17.5 44.8266 17.782 45.0306 17.974C45.2346 18.166 45.4986 18.262 45.8226 18.262C46.1586 18.262 46.4706 18.166 46.7586 17.974C47.0586 17.782 47.3226 17.518 47.5506 17.182L48.0366 17.578C47.7726 17.974 47.5086 18.286 47.2446 18.514C46.9926 18.742 46.7466 18.91 46.5066 19.018C46.2666 19.138 46.0446 19.21 45.8406 19.234C45.6366 19.27 45.4626 19.288 45.3186 19.288ZM54.3675 19C54.3315 18.796 54.3075 18.616 54.2955 18.46C54.2835 18.304 54.2655 18.142 54.2415 17.974C53.8335 18.382 53.3895 18.706 52.9095 18.946C52.4415 19.174 51.9435 19.288 51.4155 19.288C50.5035 19.288 49.8255 19.084 49.3815 18.676C48.9375 18.256 48.7155 17.746 48.7155 17.146C48.7155 16.594 48.8835 16.12 49.2195 15.724C49.5675 15.316 50.0115 14.986 50.5515 14.734C51.1035 14.47 51.6975 14.278 52.3335 14.158C52.9815 14.026 53.6055 13.966 54.2055 13.978V12.862C54.2055 12.442 54.1695 12.046 54.0975 11.674C54.0255 11.302 53.8695 10.996 53.6295 10.756C53.3895 10.516 53.0055 10.39 52.4775 10.378C52.1295 10.366 51.7695 10.432 51.3975 10.576C51.0375 10.72 50.7735 10.966 50.6055 11.314C50.7015 11.41 50.7615 11.524 50.7855 11.656C50.8215 11.776 50.8395 11.89 50.8395 11.998C50.8395 12.142 50.7795 12.31 50.6595 12.502C50.5395 12.682 50.3295 12.766 50.0295 12.754C49.7775 12.754 49.5855 12.67 49.4535 12.502C49.3215 12.322 49.2555 12.112 49.2555 11.872C49.2555 11.464 49.4055 11.098 49.7055 10.774C50.0175 10.45 50.4435 10.192 50.9835 10C51.5235 9.808 52.1355 9.712 52.8195 9.712C53.8275 9.712 54.5715 9.982 55.0515 10.522C55.5315 11.05 55.7655 11.89 55.7535 13.042C55.7535 13.486 55.7535 13.936 55.7535 14.392C55.7535 14.836 55.7475 15.286 55.7355 15.742C55.7355 16.186 55.7355 16.636 55.7355 17.092C55.7355 17.284 55.7295 17.476 55.7175 17.668C55.7055 17.86 55.6875 18.076 55.6635 18.316C55.8795 18.304 56.0895 18.292 56.2935 18.28C56.5095 18.268 56.7255 18.256 56.9415 18.244V19H54.3675ZM54.2055 14.59C53.7975 14.602 53.3655 14.656 52.9095 14.752C52.4655 14.836 52.0515 14.968 51.6675 15.148C51.2955 15.328 50.9895 15.568 50.7495 15.868C50.5215 16.156 50.4135 16.51 50.4255 16.93C50.4495 17.374 50.5935 17.71 50.8575 17.938C51.1335 18.154 51.4575 18.262 51.8295 18.262C52.3215 18.262 52.7475 18.172 53.1075 17.992C53.4795 17.8 53.8455 17.536 54.2055 17.2C54.1935 17.068 54.1875 16.924 54.1875 16.768C54.1875 16.612 54.1875 16.45 54.1875 16.282C54.1875 16.222 54.1875 16.03 54.1875 15.706C54.1995 15.382 54.2055 15.01 54.2055 14.59ZM61.4377 19.288C61.1617 19.288 60.8797 19.246 60.5917 19.162C60.3037 19.09 60.0337 18.94 59.7817 18.712C59.5417 18.484 59.3497 18.154 59.2057 17.722C59.0617 17.278 58.9897 16.696 58.9897 15.976L59.0257 10.756L57.6397 10.774V10C57.9517 9.988 58.2697 9.874 58.5937 9.658C58.9177 9.43 59.2057 9.124 59.4577 8.74C59.7217 8.356 59.9017 7.936 59.9977 7.48H60.6097V10H63.6337V10.702L60.6097 10.738L60.5737 15.742C60.5737 16.282 60.6157 16.744 60.6997 17.128C60.7957 17.5 60.9457 17.782 61.1497 17.974C61.3537 18.166 61.6177 18.262 61.9417 18.262C62.2777 18.262 62.5897 18.166 62.8777 17.974C63.1777 17.782 63.4417 17.518 63.6697 17.182L64.1557 17.578C63.8917 17.974 63.6277 18.286 63.3637 18.514C63.1117 18.742 62.8657 18.91 62.6257 19.018C62.3857 19.138 62.1637 19.21 61.9597 19.234C61.7557 19.27 61.5817 19.288 61.4377 19.288ZM68.8127 19.288C68.1647 19.288 67.6187 19.168 67.1747 18.928C66.7427 18.688 66.4127 18.28 66.1847 17.704C65.9687 17.128 65.8607 16.348 65.8607 15.364V12.16C65.8607 11.968 65.8607 11.776 65.8607 11.584C65.8727 11.392 65.8967 11.194 65.9327 10.99C65.7287 11.002 65.5187 11.014 65.3027 11.026C65.0987 11.026 64.8947 11.032 64.6907 11.044V10.306H65.2487C65.7647 10.306 66.1367 10.258 66.3647 10.162C66.6047 10.054 66.7907 9.94 66.9227 9.82H67.4447V15.31C67.4447 16.342 67.5887 17.116 67.8767 17.632C68.1767 18.136 68.6807 18.382 69.3887 18.37C69.8447 18.358 70.2767 18.22 70.6847 17.956C71.1047 17.68 71.4407 17.356 71.6927 16.984V12.358C71.6927 12.07 71.6987 11.824 71.7107 11.62C71.7227 11.404 71.7467 11.194 71.7827 10.99C71.5667 11.002 71.3507 11.014 71.1347 11.026C70.9187 11.026 70.7027 11.032 70.4867 11.044V10.306H71.0447C71.5607 10.306 71.9327 10.258 72.1607 10.162C72.4007 10.054 72.5867 9.94 72.7187 9.82H73.2407L73.2227 16.624C73.2227 16.816 73.2167 17.086 73.2047 17.434C73.1927 17.782 73.1747 18.076 73.1507 18.316C73.3667 18.304 73.5827 18.292 73.7987 18.28C74.0147 18.268 74.2307 18.256 74.4467 18.244V19H71.8727C71.8367 18.796 71.8067 18.604 71.7827 18.424C71.7707 18.244 71.7587 18.076 71.7467 17.92C71.3747 18.292 70.9247 18.616 70.3967 18.892C69.8687 19.156 69.3407 19.288 68.8127 19.288ZM79.4449 19.288C78.8449 19.288 78.3109 19.204 77.8429 19.036C77.3749 18.88 76.9909 18.7 76.6909 18.496L76.7629 19.126H76.0069L75.8989 16.03H76.4569C76.4809 16.522 76.6189 16.966 76.8709 17.362C77.1229 17.746 77.4469 18.046 77.8429 18.262C78.2389 18.478 78.6649 18.586 79.1209 18.586C79.4329 18.586 79.7389 18.538 80.0389 18.442C80.3389 18.334 80.5909 18.178 80.7949 17.974C80.9989 17.758 81.1009 17.488 81.1009 17.164C81.1009 16.828 80.9989 16.552 80.7949 16.336C80.6029 16.108 80.3449 15.91 80.0209 15.742C79.6969 15.574 79.3489 15.418 78.9769 15.274C78.6169 15.13 78.2569 14.98 77.8969 14.824C77.5369 14.668 77.2009 14.482 76.8889 14.266C76.5889 14.05 76.3489 13.786 76.1689 13.474C75.9889 13.162 75.8989 12.778 75.8989 12.322C75.8989 12.07 75.9469 11.794 76.0429 11.494C76.1389 11.194 76.3009 10.912 76.5289 10.648C76.7569 10.372 77.0689 10.15 77.4649 9.982C77.8609 9.802 78.3649 9.712 78.9769 9.712C79.3009 9.712 79.6609 9.766 80.0569 9.874C80.4529 9.982 80.8369 10.186 81.2089 10.486L81.1729 9.802H81.9289V12.952H81.3529C81.3289 12.532 81.2329 12.13 81.0649 11.746C80.8969 11.35 80.6509 11.026 80.3269 10.774C80.0029 10.51 79.5829 10.378 79.0669 10.378C78.5149 10.378 78.0829 10.516 77.7709 10.792C77.4589 11.068 77.3029 11.386 77.3029 11.746C77.3029 12.118 77.4169 12.43 77.6449 12.682C77.8849 12.922 78.1909 13.132 78.5629 13.312C78.9349 13.492 79.3309 13.666 79.7509 13.834C80.2069 14.026 80.6509 14.236 81.0829 14.464C81.5149 14.692 81.8689 14.98 82.1449 15.328C82.4209 15.664 82.5589 16.102 82.5589 16.642C82.5589 17.242 82.4029 17.74 82.0909 18.136C81.7909 18.532 81.4009 18.82 80.9209 19C80.4529 19.192 79.9609 19.288 79.4449 19.288ZM85.5449 19.288C85.2689 19.288 85.0229 19.18 84.8069 18.964C84.6029 18.736 84.5009 18.46 84.5009 18.136C84.5009 17.812 84.6089 17.536 84.8249 17.308C85.0409 17.08 85.2869 16.966 85.5629 16.966C85.8629 16.966 86.1089 17.08 86.3009 17.308C86.5049 17.536 86.6069 17.812 86.6069 18.136C86.6069 18.46 86.4989 18.736 86.2829 18.964C86.0669 19.18 85.8209 19.288 85.5449 19.288ZM85.5449 12.034C85.2689 12.034 85.0229 11.926 84.8069 11.71C84.6029 11.482 84.5009 11.206 84.5009 10.882C84.5009 10.558 84.6089 10.282 84.8249 10.054C85.0409 9.826 85.2869 9.712 85.5629 9.712C85.8629 9.712 86.1089 9.826 86.3009 10.054C86.5049 10.282 86.6069 10.558 86.6069 10.882C86.6069 11.206 86.4989 11.482 86.2829 11.71C86.0669 11.926 85.8209 12.034 85.5449 12.034Z" fill="#666666"/>
<path d="M23.3334 4.66666H4.66671C3.38337 4.66666 2.34504 5.71666 2.34504 6.99999L2.33337 21C2.33337 22.2833 3.38337 23.3333 4.66671 23.3333H23.3334C24.6167 23.3333 25.6667 22.2833 25.6667 21V6.99999C25.6667 5.71666 24.6167 4.66666 23.3334 4.66666ZM22.8667 9.62499L14.6184 14.7817C14.245 15.015 13.755 15.015 13.3817 14.7817L5.13337 9.62499C5.01639 9.55932 4.91395 9.47059 4.83224 9.36419C4.75054 9.25778 4.69128 9.1359 4.65805 9.00592C4.62481 8.87595 4.61829 8.74058 4.63889 8.60801C4.65949 8.47545 4.70677 8.34844 4.77787 8.23467C4.84897 8.12091 4.94242 8.02275 5.05255 7.94615C5.16269 7.86955 5.28722 7.81609 5.41862 7.789C5.55001 7.76192 5.68554 7.76178 5.81699 7.7886C5.94844 7.81541 6.07308 7.86861 6.18337 7.94499L14 12.8333L21.8167 7.94499C21.927 7.86861 22.0516 7.81541 22.1831 7.7886C22.3145 7.76178 22.4501 7.76192 22.5815 7.789C22.7129 7.81609 22.8374 7.86955 22.9475 7.94615C23.0577 8.02275 23.1511 8.12091 23.2222 8.23467C23.2933 8.34844 23.3406 8.47545 23.3612 8.60801C23.3818 8.74058 23.3753 8.87595 23.342 9.00592C23.3088 9.1359 23.2495 9.25778 23.1678 9.36419C23.0861 9.47059 22.9837 9.55932 22.8667 9.62499Z" fill="#666666"/>
</svg>
