<svg width="52" height="28" viewBox="0 0 52 28" fill="none" xmlns="http://www.w3.org/2000/svg">
<path d="M36.04 6.994C35.596 7.006 35.284 7.108 35.104 7.3C34.936 7.492 34.84 7.75 34.816 8.074C34.804 8.398 34.798 8.776 34.798 9.208V16.858C34.798 17.182 34.792 17.464 34.78 17.704C34.78 17.932 34.768 18.124 34.744 18.28C34.96 18.268 35.176 18.256 35.392 18.244C35.608 18.232 35.824 18.22 36.04 18.208V19H31.99V18.406C32.446 18.382 32.758 18.28 32.926 18.1C33.094 17.908 33.184 17.65 33.196 17.326C33.22 16.99 33.232 16.612 33.232 16.192V8.416C33.232 8.176 33.238 7.948 33.25 7.732C33.262 7.504 33.274 7.3 33.286 7.12C33.07 7.132 32.854 7.144 32.638 7.156C32.422 7.168 32.206 7.18 31.99 7.192V6.4H36.04V6.994ZM41.269 19.288C40.537 19.288 39.877 19.108 39.289 18.748C38.701 18.376 38.233 17.848 37.885 17.164C37.549 16.48 37.381 15.676 37.381 14.752C37.381 13.768 37.579 12.898 37.975 12.142C38.371 11.386 38.917 10.792 39.613 10.36C40.321 9.928 41.119 9.712 42.007 9.712C42.403 9.712 42.793 9.766 43.177 9.874C43.573 9.97 43.885 10.084 44.113 10.216V7.75C44.113 7.558 44.113 7.378 44.113 7.21C44.125 7.03 44.143 6.82 44.167 6.58C43.951 6.592 43.735 6.604 43.519 6.616C43.315 6.628 43.105 6.64 42.889 6.652V5.896C43.417 5.896 43.825 5.872 44.113 5.824C44.401 5.776 44.617 5.716 44.761 5.644C44.917 5.572 45.037 5.494 45.121 5.41H45.643V17.092C45.643 17.284 45.637 17.476 45.625 17.668C45.613 17.86 45.595 18.076 45.571 18.316C45.787 18.304 45.997 18.292 46.201 18.28C46.417 18.268 46.633 18.256 46.849 18.244V19H44.275C44.239 18.82 44.209 18.658 44.185 18.514C44.173 18.358 44.161 18.208 44.149 18.064C43.813 18.436 43.399 18.736 42.907 18.964C42.415 19.18 41.869 19.288 41.269 19.288ZM41.917 18.406C42.313 18.406 42.709 18.292 43.105 18.064C43.513 17.836 43.849 17.554 44.113 17.218C44.101 17.074 44.095 16.924 44.095 16.768C44.095 16.6 44.095 16.42 44.095 16.228L44.113 11.044C43.825 10.828 43.507 10.672 43.159 10.576C42.823 10.468 42.475 10.414 42.115 10.414C41.515 10.414 40.993 10.588 40.549 10.936C40.105 11.284 39.769 11.77 39.541 12.394C39.313 13.018 39.211 13.75 39.235 14.59C39.259 15.322 39.373 15.976 39.577 16.552C39.793 17.128 40.093 17.584 40.477 17.92C40.873 18.244 41.353 18.406 41.917 18.406ZM49.6328 19.288C49.3568 19.288 49.1108 19.18 48.8948 18.964C48.6908 18.736 48.5888 18.46 48.5888 18.136C48.5888 17.812 48.6968 17.536 48.9128 17.308C49.1288 17.08 49.3748 16.966 49.6508 16.966C49.9508 16.966 50.1968 17.08 50.3888 17.308C50.5928 17.536 50.6948 17.812 50.6948 18.136C50.6948 18.46 50.5868 18.736 50.3708 18.964C50.1548 19.18 49.9088 19.288 49.6328 19.288ZM49.6328 12.034C49.3568 12.034 49.1108 11.926 48.8948 11.71C48.6908 11.482 48.5888 11.206 48.5888 10.882C48.5888 10.558 48.6968 10.282 48.9128 10.054C49.1288 9.826 49.3748 9.712 49.6508 9.712C49.9508 9.712 50.1968 9.826 50.3888 10.054C50.5928 10.282 50.6948 10.558 50.6948 10.882C50.6948 11.206 50.5868 11.482 50.3708 11.71C50.1548 11.926 49.9088 12.034 49.6328 12.034Z" fill="#666666"/>
<path d="M23.3334 4.66666H4.66671C3.38337 4.66666 2.34504 5.71666 2.34504 6.99999L2.33337 21C2.33337 22.2833 3.38337 23.3333 4.66671 23.3333H23.3334C24.6167 23.3333 25.6667 22.2833 25.6667 21V6.99999C25.6667 5.71666 24.6167 4.66666 23.3334 4.66666ZM22.8667 9.62499L14.6184 14.7817C14.245 15.015 13.755 15.015 13.3817 14.7817L5.13337 9.62499C5.01639 9.55932 4.91395 9.47059 4.83224 9.36419C4.75054 9.25778 4.69128 9.1359 4.65805 9.00592C4.62481 8.87595 4.61829 8.74058 4.63889 8.60801C4.65949 8.47545 4.70677 8.34844 4.77787 8.23467C4.84897 8.12091 4.94242 8.02275 5.05255 7.94615C5.16269 7.86955 5.28722 7.81609 5.41862 7.789C5.55001 7.76192 5.68554 7.76178 5.81699 7.7886C5.94844 7.81541 6.07308 7.86861 6.18337 7.94499L14 12.8333L21.8167 7.94499C21.927 7.86861 22.0516 7.81541 22.1831 7.7886C22.3145 7.76178 22.4501 7.76192 22.5815 7.789C22.7129 7.81609 22.8374 7.86955 22.9475 7.94615C23.0577 8.02275 23.1511 8.12091 23.2222 8.23467C23.2933 8.34844 23.3406 8.47545 23.3612 8.60801C23.3818 8.74058 23.3753 8.87595 23.342 9.00592C23.3088 9.1359 23.2495 9.25778 23.1678 9.36419C23.0861 9.47059 22.9837 9.55932 22.8667 9.62499Z" fill="#666666"/>
</svg>
