<svg width="82" height="28" viewBox="0 0 82 28" fill="none" xmlns="http://www.w3.org/2000/svg">
<path d="M38.254 16.338C38.254 15.81 38.182 15.432 38.038 15.204C37.894 14.976 37.666 14.838 37.354 14.79C37.042 14.742 36.628 14.73 36.112 14.754L34.798 14.808V18.93C34.798 19.254 34.792 19.53 34.78 19.758C34.78 19.986 34.768 20.178 34.744 20.334L38.182 20.28C38.71 20.268 39.166 20.184 39.55 20.028C39.934 19.86 40.234 19.572 40.45 19.164C40.666 18.756 40.774 18.198 40.774 17.49H41.386L41.278 21H31.99V20.406C32.446 20.382 32.758 20.28 32.926 20.1C33.094 19.908 33.184 19.65 33.196 19.326C33.22 18.99 33.232 18.612 33.232 18.192V10.416C33.232 10.176 33.238 9.948 33.25 9.732C33.262 9.504 33.274 9.3 33.286 9.12C33.07 9.132 32.854 9.144 32.638 9.156C32.422 9.168 32.206 9.18 31.99 9.192V8.4H40.648L40.738 11.55H40.144C40.144 10.842 40.036 10.308 39.82 9.948C39.604 9.576 39.31 9.33 38.938 9.21C38.578 9.078 38.17 9.018 37.714 9.03L36.166 9.066C35.722 9.078 35.404 9.162 35.212 9.318C35.02 9.474 34.9 9.708 34.852 10.02C34.816 10.32 34.798 10.716 34.798 11.208V14.088L38.182 14.106L38.056 12.558H38.848V16.338H38.254ZM42.9893 21V20.46C43.3613 20.46 43.6193 20.37 43.7633 20.19C43.9073 19.998 43.9913 19.74 44.0153 19.416C44.0393 19.08 44.0513 18.696 44.0513 18.264V14.16C44.0513 13.968 44.0513 13.776 44.0513 13.584C44.0633 13.392 44.0873 13.194 44.1233 12.99C43.9073 13.002 43.6913 13.014 43.4753 13.026C43.2713 13.038 43.0613 13.05 42.8453 13.062V12.306C43.3733 12.306 43.7693 12.282 44.0333 12.234C44.3093 12.186 44.5133 12.126 44.6453 12.054C44.7773 11.982 44.8853 11.904 44.9693 11.82H45.4913C45.5153 11.94 45.5273 12.078 45.5273 12.234C45.5393 12.39 45.5513 12.57 45.5633 12.774C45.9233 12.462 46.3373 12.21 46.8053 12.018C47.2733 11.814 47.7413 11.712 48.2093 11.712C48.8093 11.712 49.3133 11.82 49.7213 12.036C50.1293 12.252 50.4473 12.546 50.6753 12.918C51.0833 12.582 51.5513 12.3 52.0793 12.072C52.6193 11.832 53.1473 11.712 53.6633 11.712C54.7073 11.712 55.4753 12.03 55.9673 12.666C56.4593 13.29 56.6933 14.316 56.6693 15.744L56.6513 19.092C56.6513 19.332 56.6453 19.548 56.6333 19.74C56.6333 19.92 56.6153 20.112 56.5793 20.316C56.7713 20.304 56.9573 20.298 57.1373 20.298C57.3293 20.286 57.5213 20.274 57.7133 20.262V21H54.0413V20.46C54.4133 20.46 54.6713 20.37 54.8153 20.19C54.9593 19.998 55.0433 19.74 55.0673 19.416C55.0913 19.08 55.1033 18.696 55.1033 18.264V15.744C55.1033 14.712 54.9353 13.938 54.5993 13.422C54.2753 12.906 53.7593 12.654 53.0513 12.666C52.6793 12.666 52.3073 12.75 51.9353 12.918C51.5633 13.086 51.2393 13.296 50.9633 13.548C51.0233 13.74 51.0653 13.95 51.0893 14.178C51.1253 14.394 51.1433 14.622 51.1433 14.862C51.1313 15.558 51.1253 16.26 51.1253 16.968C51.1253 17.676 51.1193 18.384 51.1073 19.092C51.1073 19.332 51.1013 19.548 51.0893 19.74C51.0893 19.92 51.0713 20.112 51.0353 20.316C51.2273 20.304 51.4133 20.298 51.5933 20.298C51.7853 20.286 51.9773 20.274 52.1693 20.262V21H48.4973V20.46C48.8693 20.46 49.1213 20.37 49.2533 20.19C49.3973 19.998 49.4813 19.74 49.5053 19.416C49.5413 19.08 49.5593 18.696 49.5593 18.264L49.5773 15.744C49.5893 14.712 49.4393 13.932 49.1273 13.404C48.8153 12.876 48.3053 12.618 47.5973 12.63C47.2253 12.63 46.8593 12.714 46.4993 12.882C46.1393 13.038 45.8333 13.242 45.5813 13.494C45.5813 13.638 45.5813 13.794 45.5813 13.962C45.5933 14.118 45.5993 14.286 45.5993 14.466V19.092C45.5993 19.332 45.5933 19.548 45.5813 19.74C45.5813 19.92 45.5633 20.112 45.5273 20.316C45.7193 20.304 45.9053 20.298 46.0853 20.298C46.2773 20.286 46.4693 20.274 46.6613 20.262V21H42.9893ZM64.5453 21C64.5093 20.796 64.4853 20.616 64.4733 20.46C64.4613 20.304 64.4433 20.142 64.4193 19.974C64.0113 20.382 63.5673 20.706 63.0873 20.946C62.6193 21.174 62.1213 21.288 61.5933 21.288C60.6813 21.288 60.0033 21.084 59.5593 20.676C59.1153 20.256 58.8933 19.746 58.8933 19.146C58.8933 18.594 59.0613 18.12 59.3973 17.724C59.7453 17.316 60.1893 16.986 60.7293 16.734C61.2813 16.47 61.8753 16.278 62.5113 16.158C63.1593 16.026 63.7833 15.966 64.3833 15.978V14.862C64.3833 14.442 64.3473 14.046 64.2753 13.674C64.2033 13.302 64.0473 12.996 63.8073 12.756C63.5673 12.516 63.1833 12.39 62.6553 12.378C62.3073 12.366 61.9473 12.432 61.5753 12.576C61.2153 12.72 60.9513 12.966 60.7833 13.314C60.8793 13.41 60.9393 13.524 60.9633 13.656C60.9993 13.776 61.0173 13.89 61.0173 13.998C61.0173 14.142 60.9573 14.31 60.8373 14.502C60.7173 14.682 60.5073 14.766 60.2073 14.754C59.9553 14.754 59.7633 14.67 59.6313 14.502C59.4993 14.322 59.4333 14.112 59.4333 13.872C59.4333 13.464 59.5833 13.098 59.8833 12.774C60.1953 12.45 60.6213 12.192 61.1613 12C61.7013 11.808 62.3133 11.712 62.9973 11.712C64.0053 11.712 64.7493 11.982 65.2293 12.522C65.7093 13.05 65.9433 13.89 65.9313 15.042C65.9313 15.486 65.9313 15.936 65.9313 16.392C65.9313 16.836 65.9253 17.286 65.9133 17.742C65.9133 18.186 65.9133 18.636 65.9133 19.092C65.9133 19.284 65.9073 19.476 65.8953 19.668C65.8833 19.86 65.8653 20.076 65.8413 20.316C66.0573 20.304 66.2673 20.292 66.4713 20.28C66.6873 20.268 66.9033 20.256 67.1193 20.244V21H64.5453ZM64.3833 16.59C63.9753 16.602 63.5433 16.656 63.0873 16.752C62.6433 16.836 62.2293 16.968 61.8453 17.148C61.4733 17.328 61.1673 17.568 60.9272 17.868C60.6993 18.156 60.5913 18.51 60.6033 18.93C60.6273 19.374 60.7713 19.71 61.0353 19.938C61.3113 20.154 61.6353 20.262 62.0073 20.262C62.4993 20.262 62.9253 20.172 63.2853 19.992C63.6573 19.8 64.0233 19.536 64.3833 19.2C64.3713 19.068 64.3653 18.924 64.3653 18.768C64.3653 18.612 64.3653 18.45 64.3653 18.282C64.3653 18.222 64.3653 18.03 64.3653 17.706C64.3773 17.382 64.3833 17.01 64.3833 16.59ZM68.3545 20.46C68.7265 20.46 68.9845 20.37 69.1285 20.19C69.2725 19.998 69.3565 19.74 69.3805 19.416C69.4045 19.08 69.4165 18.696 69.4165 18.264V14.16C69.4165 13.968 69.4225 13.788 69.4345 13.62C69.4465 13.44 69.4645 13.23 69.4885 12.99C69.2725 13.002 69.0565 13.014 68.8405 13.026C68.6365 13.038 68.4265 13.05 68.2105 13.062V12.306C68.7385 12.306 69.1465 12.282 69.4345 12.234C69.7225 12.186 69.9385 12.126 70.0825 12.054C70.2385 11.982 70.3585 11.904 70.4425 11.82H70.9645V19.092C70.9645 19.332 70.9585 19.548 70.9465 19.74C70.9465 19.92 70.9285 20.112 70.8925 20.316C71.0845 20.304 71.2705 20.298 71.4505 20.298C71.6425 20.286 71.8345 20.274 72.0265 20.262V21H68.3545V20.46ZM70.1005 10.038C69.8485 10.038 69.6265 9.936 69.4345 9.732C69.2425 9.528 69.1465 9.276 69.1465 8.976C69.1465 8.676 69.2425 8.424 69.4345 8.22C69.6385 8.004 69.8665 7.896 70.1185 7.896C70.3945 7.896 70.6225 8.004 70.8025 8.22C70.9945 8.424 71.0905 8.676 71.0905 8.976C71.0905 9.276 70.9885 9.528 70.7845 9.732C70.5925 9.936 70.3645 10.038 70.1005 10.038ZM73.237 20.46C73.609 20.46 73.867 20.37 74.011 20.19C74.155 19.998 74.239 19.74 74.263 19.416C74.287 19.08 74.299 18.696 74.299 18.264V9.75C74.299 9.558 74.299 9.378 74.299 9.21C74.311 9.03 74.329 8.82 74.353 8.58C74.137 8.592 73.921 8.604 73.705 8.616C73.501 8.628 73.291 8.64 73.075 8.652V7.896C73.603 7.896 74.011 7.872 74.299 7.824C74.599 7.776 74.821 7.716 74.965 7.644C75.121 7.572 75.241 7.494 75.325 7.41H75.847L75.865 19.092C75.865 19.332 75.859 19.548 75.847 19.74C75.835 19.92 75.811 20.112 75.775 20.316C75.967 20.304 76.153 20.298 76.333 20.298C76.525 20.286 76.717 20.274 76.909 20.262V21H73.237V20.46ZM79.4373 21.108C79.1253 21.108 78.8613 21 78.6453 20.784C78.4293 20.568 78.3213 20.304 78.3213 19.992C78.3213 19.68 78.4293 19.416 78.6453 19.2C78.8613 18.984 79.1253 18.876 79.4373 18.876C79.7373 18.876 79.9893 18.984 80.1933 19.2C80.4093 19.416 80.5173 19.68 80.5173 19.992C80.5173 20.304 80.4093 20.568 80.1933 20.784C79.9893 21 79.7373 21.108 79.4373 21.108ZM79.4373 13.404C79.1253 13.404 78.8613 13.296 78.6453 13.08C78.4293 12.864 78.3213 12.6 78.3213 12.288C78.3213 11.976 78.4293 11.712 78.6453 11.496C78.8613 11.28 79.1253 11.172 79.4373 11.172C79.7373 11.172 79.9893 11.28 80.1933 11.496C80.4093 11.712 80.5173 11.976 80.5173 12.288C80.5173 12.6 80.4093 12.864 80.1933 13.08C79.9893 13.296 79.7373 13.404 79.4373 13.404Z" fill="#666666"/>
<path d="M23.3334 4.66667H4.66671C3.38337 4.66667 2.34504 5.71667 2.34504 7L2.33337 21C2.33337 22.2833 3.38337 23.3333 4.66671 23.3333H23.3334C24.6167 23.3333 25.6667 22.2833 25.6667 21V7C25.6667 5.71667 24.6167 4.66667 23.3334 4.66667ZM22.8667 9.625L14.6184 14.7817C14.245 15.015 13.755 15.015 13.3817 14.7817L5.13337 9.625C5.01639 9.55933 4.91395 9.47061 4.83224 9.3642C4.75054 9.25779 4.69128 9.13591 4.65805 9.00593C4.62481 8.87596 4.61829 8.74059 4.63889 8.60803C4.65949 8.47546 4.70677 8.34845 4.77787 8.23469C4.84897 8.12092 4.94242 8.02277 5.05255 7.94616C5.16269 7.86956 5.28722 7.8161 5.41862 7.78902C5.55001 7.76193 5.68554 7.7618 5.81699 7.78861C5.94844 7.81542 6.07308 7.86862 6.18337 7.945L14 12.8333L21.8167 7.945C21.927 7.86862 22.0516 7.81542 22.1831 7.78861C22.3145 7.7618 22.4501 7.76193 22.5815 7.78902C22.7129 7.8161 22.8374 7.86956 22.9475 7.94616C23.0577 8.02277 23.1511 8.12092 23.2222 8.23469C23.2933 8.34845 23.3406 8.47546 23.3612 8.60803C23.3818 8.74059 23.3753 8.87596 23.342 9.00593C23.3088 9.13591 23.2495 9.25779 23.1678 9.3642C23.0861 9.47061 22.9837 9.55933 22.8667 9.625Z" fill="#666666"/>
</svg>
