<svg width="145" height="36" viewBox="0 0 145 36" fill="none" xmlns="http://www.w3.org/2000/svg">
<path d="M34.32 25.208C34.928 25.176 35.344 25.04 35.568 24.8C35.792 24.544 35.912 24.2 35.928 23.768C35.96 23.32 35.976 22.816 35.976 22.256V11.888C35.976 11.568 35.984 11.264 36 10.976C36.016 10.672 36.032 10.4 36.048 10.16C35.76 10.176 35.472 10.192 35.184 10.208C34.896 10.224 34.608 10.24 34.32 10.256V9.2C35.168 9.184 36.04 9.176 36.936 9.176C37.832 9.16 38.744 9.152 39.672 9.152C41.224 9.152 42.528 9.328 43.584 9.68C44.64 10.032 45.448 10.552 46.008 11.24C46.568 11.928 46.872 12.784 46.92 13.808C46.952 14.432 46.856 15.088 46.632 15.776C46.424 16.448 46.024 17.088 45.432 17.696C44.856 18.288 44.04 18.768 42.984 19.136C41.928 19.504 40.576 19.688 38.928 19.688C38.864 19.688 38.744 19.688 38.568 19.688C38.392 19.688 38.224 19.68 38.064 19.664V23.144C38.064 23.576 38.056 23.952 38.04 24.272C38.04 24.576 38.024 24.832 37.992 25.04C38.248 25.024 38.496 25.008 38.736 24.992C38.976 24.976 39.216 24.968 39.456 24.968C39.712 24.952 39.96 24.936 40.2 24.92V26H34.32V25.208ZM38.064 18.68C38.368 18.712 38.624 18.736 38.832 18.752C39.056 18.752 39.32 18.752 39.624 18.752C40.536 18.752 41.368 18.576 42.12 18.224C42.872 17.856 43.472 17.336 43.92 16.664C44.368 15.992 44.592 15.192 44.592 14.264C44.592 13.512 44.472 12.872 44.232 12.344C43.992 11.8 43.648 11.368 43.2 11.048C42.768 10.712 42.248 10.472 41.64 10.328C41.032 10.168 40.36 10.088 39.624 10.088C39.064 10.088 38.672 10.208 38.448 10.448C38.24 10.688 38.12 11.024 38.088 11.456C38.072 11.872 38.064 12.368 38.064 12.944V18.68ZM55.7426 26C55.6946 25.728 55.6626 25.488 55.6466 25.28C55.6306 25.072 55.6066 24.856 55.5746 24.632C55.0306 25.176 54.4386 25.608 53.7986 25.928C53.1746 26.232 52.5106 26.384 51.8066 26.384C50.5906 26.384 49.6866 26.112 49.0946 25.568C48.5026 25.008 48.2066 24.328 48.2066 23.528C48.2066 22.792 48.4306 22.16 48.8786 21.632C49.3426 21.088 49.9346 20.648 50.6546 20.312C51.3906 19.96 52.1826 19.704 53.0306 19.544C53.8946 19.368 54.7266 19.288 55.5266 19.304V17.816C55.5266 17.256 55.4786 16.728 55.3826 16.232C55.2866 15.736 55.0786 15.328 54.7586 15.008C54.4386 14.688 53.9266 14.52 53.2226 14.504C52.7586 14.488 52.2786 14.576 51.7826 14.768C51.3026 14.96 50.9506 15.288 50.7266 15.752C50.8546 15.88 50.9346 16.032 50.9666 16.208C51.0146 16.368 51.0386 16.52 51.0386 16.664C51.0386 16.856 50.9586 17.08 50.7986 17.336C50.6386 17.576 50.3586 17.688 49.9586 17.672C49.6226 17.672 49.3666 17.56 49.1906 17.336C49.0146 17.096 48.9266 16.816 48.9266 16.496C48.9266 15.952 49.1266 15.464 49.5266 15.032C49.9426 14.6 50.5106 14.256 51.2306 14C51.9506 13.744 52.7666 13.616 53.6786 13.616C55.0226 13.616 56.0146 13.976 56.6546 14.696C57.2946 15.4 57.6066 16.52 57.5906 18.056C57.5906 18.648 57.5906 19.248 57.5906 19.856C57.5906 20.448 57.5826 21.048 57.5666 21.656C57.5666 22.248 57.5666 22.848 57.5666 23.456C57.5666 23.712 57.5586 23.968 57.5426 24.224C57.5266 24.48 57.5026 24.768 57.4706 25.088C57.7586 25.072 58.0386 25.056 58.3106 25.04C58.5986 25.024 58.8866 25.008 59.1746 24.992V26H55.7426ZM55.5266 20.12C54.9826 20.136 54.4066 20.208 53.7986 20.336C53.2066 20.448 52.6546 20.624 52.1426 20.864C51.6466 21.104 51.2386 21.424 50.9186 21.824C50.6146 22.208 50.4706 22.68 50.4866 23.24C50.5186 23.832 50.7106 24.28 51.0626 24.584C51.4306 24.872 51.8626 25.016 52.3586 25.016C53.0146 25.016 53.5826 24.896 54.0626 24.656C54.5586 24.4 55.0466 24.048 55.5266 23.6C55.5106 23.424 55.5026 23.232 55.5026 23.024C55.5026 22.816 55.5026 22.6 55.5026 22.376C55.5026 22.296 55.5026 22.04 55.5026 21.608C55.5186 21.176 55.5266 20.68 55.5266 20.12ZM65.7416 26.384C64.9416 26.384 64.2296 26.272 63.6056 26.048C62.9816 25.84 62.4696 25.6 62.0696 25.328L62.1656 26.168H61.1576L61.0136 22.04H61.7576C61.7896 22.696 61.9736 23.288 62.3096 23.816C62.6456 24.328 63.0776 24.728 63.6056 25.016C64.1336 25.304 64.7016 25.448 65.3096 25.448C65.7256 25.448 66.1336 25.384 66.5336 25.256C66.9336 25.112 67.2696 24.904 67.5416 24.632C67.8136 24.344 67.9496 23.984 67.9496 23.552C67.9496 23.104 67.8136 22.736 67.5416 22.448C67.2856 22.144 66.9416 21.88 66.5096 21.656C66.0776 21.432 65.6136 21.224 65.1176 21.032C64.6376 20.84 64.1576 20.64 63.6776 20.432C63.1976 20.224 62.7496 19.976 62.3336 19.688C61.9336 19.4 61.6136 19.048 61.3736 18.632C61.1336 18.216 61.0136 17.704 61.0136 17.096C61.0136 16.76 61.0776 16.392 61.2056 15.992C61.3336 15.592 61.5496 15.216 61.8536 14.864C62.1576 14.496 62.5736 14.2 63.1016 13.976C63.6296 13.736 64.3016 13.616 65.1176 13.616C65.5496 13.616 66.0296 13.688 66.5576 13.832C67.0856 13.976 67.5976 14.248 68.0936 14.648L68.0456 13.736H69.0536V17.936H68.2856C68.2536 17.376 68.1256 16.84 67.9016 16.328C67.6776 15.8 67.3496 15.368 66.9176 15.032C66.4856 14.68 65.9256 14.504 65.2376 14.504C64.5016 14.504 63.9256 14.688 63.5096 15.056C63.0936 15.424 62.8856 15.848 62.8856 16.328C62.8856 16.824 63.0376 17.24 63.3416 17.576C63.6616 17.896 64.0696 18.176 64.5656 18.416C65.0616 18.656 65.5896 18.888 66.1496 19.112C66.7576 19.368 67.3496 19.648 67.9256 19.952C68.5016 20.256 68.9736 20.64 69.3416 21.104C69.7096 21.552 69.8936 22.136 69.8936 22.856C69.8936 23.656 69.6856 24.32 69.2696 24.848C68.8696 25.376 68.3496 25.76 67.7096 26C67.0856 26.256 66.4296 26.384 65.7416 26.384ZM76.851 26.384C76.051 26.384 75.339 26.272 74.715 26.048C74.091 25.84 73.579 25.6 73.179 25.328L73.275 26.168H72.267L72.123 22.04H72.867C72.899 22.696 73.083 23.288 73.419 23.816C73.755 24.328 74.187 24.728 74.715 25.016C75.243 25.304 75.811 25.448 76.419 25.448C76.835 25.448 77.243 25.384 77.643 25.256C78.043 25.112 78.379 24.904 78.651 24.632C78.923 24.344 79.059 23.984 79.059 23.552C79.059 23.104 78.923 22.736 78.651 22.448C78.395 22.144 78.051 21.88 77.619 21.656C77.187 21.432 76.723 21.224 76.227 21.032C75.747 20.84 75.267 20.64 74.787 20.432C74.307 20.224 73.859 19.976 73.443 19.688C73.043 19.4 72.723 19.048 72.483 18.632C72.243 18.216 72.123 17.704 72.123 17.096C72.123 16.76 72.187 16.392 72.315 15.992C72.443 15.592 72.659 15.216 72.963 14.864C73.267 14.496 73.683 14.2 74.211 13.976C74.739 13.736 75.411 13.616 76.227 13.616C76.659 13.616 77.139 13.688 77.667 13.832C78.195 13.976 78.707 14.248 79.203 14.648L79.155 13.736H80.163V17.936H79.395C79.363 17.376 79.235 16.84 79.011 16.328C78.787 15.8 78.459 15.368 78.027 15.032C77.595 14.68 77.035 14.504 76.347 14.504C75.611 14.504 75.035 14.688 74.619 15.056C74.203 15.424 73.995 15.848 73.995 16.328C73.995 16.824 74.147 17.24 74.451 17.576C74.771 17.896 75.179 18.176 75.675 18.416C76.171 18.656 76.699 18.888 77.259 19.112C77.867 19.368 78.459 19.648 79.035 19.952C79.611 20.256 80.083 20.64 80.451 21.104C80.819 21.552 81.003 22.136 81.003 22.856C81.003 23.656 80.795 24.32 80.379 24.848C79.979 25.376 79.459 25.76 78.819 26C78.195 26.256 77.539 26.384 76.851 26.384ZM87.1684 26.072L84.0244 16.856C83.9124 16.52 83.8084 16.232 83.7124 15.992C83.6324 15.752 83.5684 15.544 83.5204 15.368C83.4724 15.192 83.4324 15.04 83.4004 14.912L82.1284 14.984V14H87.2164V14.72C86.4964 14.736 86.0964 14.984 86.0164 15.464C85.9524 15.928 86.0484 16.544 86.3044 17.312L87.4084 20.672C87.5364 21.056 87.6644 21.448 87.7924 21.848C87.9204 22.232 88.0484 22.616 88.1764 23C88.3204 22.568 88.4644 22.136 88.6084 21.704C88.7684 21.256 88.9204 20.808 89.0644 20.36L91.2004 14H92.1844L94.6084 20.984C94.7364 21.336 94.8644 21.696 94.9924 22.064C95.1204 22.432 95.2484 22.8 95.3764 23.168C95.5044 22.816 95.6244 22.472 95.7364 22.136C95.8644 21.784 95.9844 21.432 96.0964 21.08L97.6804 16.52C97.7924 16.2 97.9044 15.896 98.0164 15.608C98.1284 15.32 98.2564 15.088 98.4004 14.912L97.0084 14.984V14H101.184V14.72C100.768 14.736 100.424 14.792 100.152 14.888C99.8964 14.984 99.6804 15.112 99.5044 15.272C99.3284 15.432 99.1844 15.624 99.0724 15.848C98.9604 16.072 98.8564 16.328 98.7604 16.616L95.3044 26.072H94.3444L92.0644 19.52C91.9684 19.232 91.8724 18.952 91.7764 18.68C91.6804 18.392 91.5844 18.112 91.4884 17.84C91.3924 17.552 91.2964 17.272 91.2004 17C91.1044 17.272 91.0084 17.552 90.9124 17.84C90.8164 18.112 90.7204 18.392 90.6244 18.68C90.5284 18.952 90.4324 19.232 90.3364 19.52L88.0804 26.072H87.1684ZM107.93 26.384C106.81 26.384 105.794 26.128 104.882 25.616C103.97 25.088 103.242 24.368 102.698 23.456C102.17 22.528 101.906 21.472 101.906 20.288C101.906 19.024 102.17 17.888 102.698 16.88C103.226 15.872 103.946 15.08 104.858 14.504C105.77 13.912 106.794 13.616 107.93 13.616C109.05 13.616 110.066 13.888 110.978 14.432C111.89 14.96 112.618 15.68 113.162 16.592C113.706 17.504 113.978 18.544 113.978 19.712C113.978 20.944 113.706 22.072 113.162 23.096C112.634 24.104 111.914 24.904 111.002 25.496C110.09 26.088 109.066 26.384 107.93 26.384ZM108.122 25.424C108.97 25.424 109.642 25.184 110.138 24.704C110.634 24.224 110.986 23.6 111.194 22.832C111.418 22.064 111.53 21.256 111.53 20.408C111.53 19.688 111.458 18.984 111.314 18.296C111.186 17.592 110.978 16.96 110.69 16.4C110.402 15.824 110.026 15.368 109.562 15.032C109.114 14.696 108.57 14.528 107.93 14.528C107.098 14.528 106.418 14.768 105.89 15.248C105.362 15.728 104.97 16.352 104.714 17.12C104.474 17.888 104.354 18.712 104.354 19.592C104.354 20.584 104.49 21.528 104.762 22.424C105.034 23.304 105.45 24.024 106.01 24.584C106.57 25.144 107.274 25.424 108.122 25.424ZM116.017 25.28C116.513 25.28 116.857 25.16 117.049 24.92C117.241 24.664 117.353 24.32 117.385 23.888C117.417 23.44 117.433 22.928 117.433 22.352V16.88C117.433 16.624 117.433 16.368 117.433 16.112C117.449 15.856 117.481 15.592 117.529 15.32C117.241 15.336 116.953 15.352 116.665 15.368C116.393 15.368 116.113 15.376 115.825 15.392V14.408H116.569C117.257 14.408 117.729 14.344 117.985 14.216C118.257 14.072 118.481 13.92 118.657 13.76H119.353C119.385 14.016 119.409 14.336 119.425 14.72C119.441 15.088 119.457 15.56 119.473 16.136C119.713 15.736 120.041 15.344 120.457 14.96C120.873 14.576 121.337 14.256 121.849 14C122.377 13.744 122.929 13.616 123.505 13.616C123.953 13.616 124.345 13.736 124.681 13.976C125.017 14.216 125.185 14.6 125.185 15.128C125.185 15.256 125.145 15.416 125.065 15.608C124.985 15.784 124.857 15.944 124.681 16.088C124.505 16.216 124.273 16.28 123.985 16.28C123.633 16.264 123.353 16.128 123.145 15.872C122.937 15.6 122.857 15.288 122.905 14.936C122.505 14.92 122.089 15.024 121.657 15.248C121.241 15.472 120.849 15.784 120.481 16.184C120.113 16.568 119.785 17.024 119.497 17.552L119.521 23.456C119.521 23.776 119.513 24.064 119.497 24.32C119.497 24.56 119.473 24.816 119.425 25.088C119.681 25.072 119.929 25.064 120.169 25.064C120.425 25.048 120.681 25.032 120.937 25.016V26H116.017V25.28ZM131.372 26.384C130.396 26.384 129.516 26.144 128.732 25.664C127.948 25.168 127.324 24.464 126.86 23.552C126.412 22.64 126.188 21.568 126.188 20.336C126.188 19.024 126.452 17.864 126.98 16.856C127.508 15.848 128.236 15.056 129.164 14.48C130.108 13.904 131.172 13.616 132.356 13.616C132.884 13.616 133.404 13.688 133.916 13.832C134.444 13.96 134.86 14.112 135.164 14.288V11C135.164 10.744 135.164 10.504 135.164 10.28C135.18 10.04 135.204 9.76 135.236 9.44C134.948 9.456 134.66 9.472 134.372 9.488C134.1 9.504 133.82 9.52 133.532 9.536V8.528C134.236 8.528 134.78 8.496 135.164 8.432C135.548 8.368 135.836 8.288 136.028 8.192C136.236 8.096 136.396 7.992 136.508 7.88H137.204V23.456C137.204 23.712 137.196 23.968 137.18 24.224C137.164 24.48 137.14 24.768 137.108 25.088C137.396 25.072 137.676 25.056 137.948 25.04C138.236 25.024 138.524 25.008 138.812 24.992V26H135.38C135.332 25.76 135.292 25.544 135.26 25.352C135.244 25.144 135.228 24.944 135.212 24.752C134.764 25.248 134.212 25.648 133.556 25.952C132.9 26.24 132.172 26.384 131.372 26.384ZM132.236 25.208C132.764 25.208 133.292 25.056 133.82 24.752C134.364 24.448 134.812 24.072 135.164 23.624C135.148 23.432 135.14 23.232 135.14 23.024C135.14 22.8 135.14 22.56 135.14 22.304L135.164 15.392C134.78 15.104 134.356 14.896 133.892 14.768C133.444 14.624 132.98 14.552 132.5 14.552C131.7 14.552 131.004 14.784 130.412 15.248C129.82 15.712 129.372 16.36 129.068 17.192C128.764 18.024 128.628 19 128.66 20.12C128.692 21.096 128.844 21.968 129.116 22.736C129.404 23.504 129.804 24.112 130.316 24.56C130.844 24.992 131.484 25.208 132.236 25.208ZM142.067 26.144C141.651 26.144 141.299 26 141.011 25.712C140.723 25.424 140.579 25.072 140.579 24.656C140.579 24.24 140.723 23.888 141.011 23.6C141.299 23.312 141.651 23.168 142.067 23.168C142.467 23.168 142.803 23.312 143.075 23.6C143.363 23.888 143.507 24.24 143.507 24.656C143.507 25.072 143.363 25.424 143.075 25.712C142.803 26 142.467 26.144 142.067 26.144ZM142.067 15.872C141.651 15.872 141.299 15.728 141.011 15.44C140.723 15.152 140.579 14.8 140.579 14.384C140.579 13.968 140.723 13.616 141.011 13.328C141.299 13.04 141.651 12.896 142.067 12.896C142.467 12.896 142.803 13.04 143.075 13.328C143.363 13.616 143.507 13.968 143.507 14.384C143.507 14.8 143.363 15.152 143.075 15.44C142.803 15.728 142.467 15.872 142.067 15.872Z" fill="#666666"/>
<path d="M16.5 25.8333C17.2293 25.8333 17.9288 25.5875 18.4445 25.1499C18.9603 24.7123 19.25 24.1188 19.25 23.5C19.25 22.8812 18.9603 22.2877 18.4445 21.8501C17.9288 21.4125 17.2293 21.1667 16.5 21.1667C15.7707 21.1667 15.0712 21.4125 14.5555 21.8501C14.0397 22.2877 13.75 22.8812 13.75 23.5C13.75 24.1188 14.0397 24.7123 14.5555 25.1499C15.0712 25.5875 15.7707 25.8333 16.5 25.8333ZM24.75 15.3333C25.4793 15.3333 26.1788 15.5792 26.6945 16.0168C27.2103 16.4543 27.5 17.0478 27.5 17.6667V29.3333C27.5 29.9522 27.2103 30.5457 26.6945 30.9832C26.1788 31.4208 25.4793 31.6667 24.75 31.6667H8.25C7.52065 31.6667 6.82118 31.4208 6.30546 30.9832C5.78973 30.5457 5.5 29.9522 5.5 29.3333V17.6667C5.5 17.0478 5.78973 16.4543 6.30546 16.0168C6.82118 15.5792 7.52065 15.3333 8.25 15.3333H9.625V13C9.625 11.4529 10.3493 9.96917 11.6386 8.87521C12.928 7.78125 14.6766 7.16667 16.5 7.16667C17.4028 7.16667 18.2968 7.31755 19.1309 7.6107C19.9651 7.90385 20.723 8.33353 21.3614 8.87521C21.9998 9.41688 22.5062 10.0599 22.8517 10.7677C23.1972 11.4754 23.375 12.234 23.375 13V15.3333H24.75ZM16.5 9.5C15.406 9.5 14.3568 9.86875 13.5832 10.5251C12.8096 11.1815 12.375 12.0717 12.375 13V15.3333H20.625V13C20.625 12.0717 20.1904 11.1815 19.4168 10.5251C18.6432 9.86875 17.594 9.5 16.5 9.5Z" fill="#666666"/>
</svg>
