<svg width="99" height="28" viewBox="0 0 99 28" fill="none" xmlns="http://www.w3.org/2000/svg">
<path d="M37.966 19.288C36.766 19.288 35.704 19.036 34.78 18.532C33.856 18.028 33.136 17.302 32.62 16.354C32.104 15.406 31.846 14.278 31.846 12.97C31.846 12.118 31.972 11.29 32.224 10.486C32.488 9.67 32.878 8.932 33.394 8.272C33.922 7.612 34.576 7.09 35.356 6.706C36.148 6.31 37.066 6.112 38.11 6.112C38.542 6.112 38.98 6.154 39.424 6.238C39.868 6.31 40.294 6.424 40.702 6.58C41.122 6.724 41.5 6.898 41.836 7.102L41.764 6.238H42.754V10.36H42.106C42.058 9.604 41.854 8.968 41.494 8.452C41.146 7.924 40.69 7.522 40.126 7.246C39.562 6.97 38.932 6.832 38.236 6.832C37.6 6.832 37 6.976 36.436 7.264C35.884 7.54 35.392 7.936 34.96 8.452C34.54 8.956 34.21 9.556 33.97 10.252C33.73 10.948 33.61 11.716 33.61 12.556C33.61 13.684 33.814 14.692 34.222 15.58C34.63 16.468 35.194 17.164 35.914 17.668C36.646 18.172 37.486 18.424 38.434 18.424C38.758 18.424 39.094 18.394 39.442 18.334C39.802 18.274 40.156 18.178 40.504 18.046C40.864 17.902 41.2 17.728 41.512 17.524V15.328C41.512 15.04 41.512 14.752 41.512 14.464C41.512 14.164 41.512 13.87 41.512 13.582C41.308 13.594 41.098 13.606 40.882 13.618C40.666 13.63 40.456 13.642 40.252 13.654V12.862H44.32V13.456C43.984 13.456 43.726 13.546 43.546 13.726C43.366 13.894 43.24 14.104 43.168 14.356C43.096 14.596 43.054 14.836 43.042 15.076C43.03 15.304 43.024 15.478 43.024 15.598V18.352H42.538C42.346 18.352 42.082 18.388 41.746 18.46C41.41 18.532 41.026 18.652 40.594 18.82C40.222 18.964 39.79 19.078 39.298 19.162C38.806 19.246 38.362 19.288 37.966 19.288ZM49.8414 19.288C49.0134 19.288 48.2634 19.096 47.5914 18.712C46.9314 18.316 46.4094 17.764 46.0254 17.056C45.6414 16.336 45.4494 15.49 45.4494 14.518C45.4494 13.678 45.6354 12.892 46.0074 12.16C46.3914 11.428 46.9254 10.84 47.6094 10.396C48.2934 9.94 49.0854 9.712 49.9854 9.712C50.4894 9.712 50.9574 9.796 51.3894 9.964C51.8334 10.12 52.2234 10.366 52.5594 10.702C52.8954 11.026 53.1594 11.44 53.3514 11.944C53.5434 12.436 53.6394 13.018 53.6394 13.69L47.3034 13.798C47.3034 14.71 47.3994 15.514 47.5914 16.21C47.7954 16.894 48.1194 17.428 48.5634 17.812C49.0074 18.184 49.5774 18.37 50.2734 18.37C50.6454 18.37 51.0234 18.304 51.4074 18.172C51.8034 18.04 52.1694 17.86 52.5054 17.632C52.8414 17.404 53.1114 17.152 53.3154 16.876L53.7474 17.236C53.4234 17.74 53.0334 18.142 52.5774 18.442C52.1214 18.742 51.6534 18.958 51.1734 19.09C50.6934 19.222 50.2494 19.288 49.8414 19.288ZM47.3574 13.042H51.9474C51.9474 12.61 51.8814 12.196 51.7494 11.8C51.6294 11.392 51.4254 11.062 51.1374 10.81C50.8494 10.546 50.4714 10.414 50.0034 10.414C49.3074 10.414 48.7254 10.624 48.2574 11.044C47.8014 11.452 47.5014 12.118 47.3574 13.042ZM55.2412 19V18.46C55.6132 18.46 55.8712 18.37 56.0152 18.19C56.1592 17.998 56.2432 17.74 56.2672 17.416C56.2912 17.08 56.3032 16.696 56.3032 16.264L56.3212 12.16C56.3212 11.968 56.3212 11.776 56.3212 11.584C56.3332 11.392 56.3572 11.194 56.3932 10.99C56.1772 11.002 55.9612 11.014 55.7452 11.026C55.5412 11.038 55.3312 11.05 55.1152 11.062V10.306C55.6432 10.306 56.0392 10.282 56.3032 10.234C56.5792 10.186 56.7832 10.126 56.9152 10.054C57.0472 9.982 57.1552 9.904 57.2392 9.82H57.7612C57.7732 9.904 57.7792 10 57.7792 10.108C57.7912 10.216 57.8032 10.336 57.8152 10.468C57.8272 10.6 57.8332 10.75 57.8332 10.918C58.0972 10.69 58.3852 10.486 58.6972 10.306C59.0212 10.126 59.3572 9.982 59.7052 9.874C60.0652 9.766 60.4192 9.712 60.7672 9.712C61.8112 9.712 62.5732 10.042 63.0532 10.702C63.5332 11.35 63.7732 12.364 63.7732 13.744V17.092C63.7732 17.332 63.7672 17.548 63.7552 17.74C63.7552 17.92 63.7372 18.112 63.7012 18.316C63.8932 18.304 64.0792 18.298 64.2592 18.298C64.4512 18.286 64.6432 18.274 64.8352 18.262V19H61.1632V18.46C61.5352 18.46 61.7932 18.37 61.9372 18.19C62.0812 17.998 62.1652 17.74 62.1892 17.416C62.2132 17.08 62.2252 16.696 62.2252 16.264V13.744C62.2132 12.712 62.0392 11.932 61.7032 11.404C61.3792 10.876 60.8632 10.618 60.1552 10.63C59.7232 10.642 59.2972 10.756 58.8772 10.972C58.4692 11.188 58.1272 11.464 57.8512 11.8C57.8632 11.896 57.8692 12.004 57.8692 12.124C57.8692 12.244 57.8692 12.37 57.8692 12.502L57.8512 17.092C57.8512 17.332 57.8452 17.548 57.8332 17.74C57.8332 17.92 57.8152 18.112 57.7792 18.316C57.9712 18.304 58.1572 18.298 58.3372 18.298C58.5292 18.286 58.7212 18.274 58.9132 18.262V19H55.2412ZM70.0268 19.288C69.2948 19.288 68.6348 19.108 68.0468 18.748C67.4588 18.376 66.9908 17.848 66.6428 17.164C66.3068 16.48 66.1388 15.676 66.1388 14.752C66.1388 13.768 66.3368 12.898 66.7328 12.142C67.1288 11.386 67.6748 10.792 68.3708 10.36C69.0788 9.928 69.8768 9.712 70.7648 9.712C71.1608 9.712 71.5508 9.766 71.9348 9.874C72.3308 9.97 72.6428 10.084 72.8708 10.216V7.75C72.8708 7.558 72.8708 7.378 72.8708 7.21C72.8828 7.03 72.9008 6.82 72.9248 6.58C72.7088 6.592 72.4928 6.604 72.2768 6.616C72.0728 6.628 71.8628 6.64 71.6468 6.652V5.896C72.1748 5.896 72.5828 5.872 72.8708 5.824C73.1588 5.776 73.3748 5.716 73.5188 5.644C73.6748 5.572 73.7948 5.494 73.8788 5.41H74.4008V17.092C74.4008 17.284 74.3948 17.476 74.3828 17.668C74.3708 17.86 74.3528 18.076 74.3288 18.316C74.5448 18.304 74.7548 18.292 74.9588 18.28C75.1748 18.268 75.3908 18.256 75.6068 18.244V19H73.0328C72.9968 18.82 72.9668 18.658 72.9428 18.514C72.9308 18.358 72.9188 18.208 72.9068 18.064C72.5708 18.436 72.1568 18.736 71.6648 18.964C71.1728 19.18 70.6268 19.288 70.0268 19.288ZM70.6748 18.406C71.0708 18.406 71.4668 18.292 71.8628 18.064C72.2708 17.836 72.6068 17.554 72.8708 17.218C72.8588 17.074 72.8528 16.924 72.8528 16.768C72.8528 16.6 72.8528 16.42 72.8528 16.228L72.8708 11.044C72.5828 10.828 72.2648 10.672 71.9168 10.576C71.5808 10.468 71.2328 10.414 70.8728 10.414C70.2728 10.414 69.7508 10.588 69.3068 10.936C68.8628 11.284 68.5268 11.77 68.2988 12.394C68.0708 13.018 67.9688 13.75 67.9928 14.59C68.0168 15.322 68.1308 15.976 68.3348 16.552C68.5508 17.128 68.8508 17.584 69.2348 17.92C69.6308 18.244 70.1108 18.406 70.6748 18.406ZM81.2886 19.288C80.4606 19.288 79.7106 19.096 79.0386 18.712C78.3786 18.316 77.8566 17.764 77.4726 17.056C77.0886 16.336 76.8966 15.49 76.8966 14.518C76.8966 13.678 77.0826 12.892 77.4546 12.16C77.8386 11.428 78.3726 10.84 79.0566 10.396C79.7406 9.94 80.5326 9.712 81.4326 9.712C81.9366 9.712 82.4046 9.796 82.8366 9.964C83.2806 10.12 83.6706 10.366 84.0066 10.702C84.3426 11.026 84.6066 11.44 84.7986 11.944C84.9906 12.436 85.0866 13.018 85.0866 13.69L78.7506 13.798C78.7506 14.71 78.8466 15.514 79.0386 16.21C79.2426 16.894 79.5666 17.428 80.0106 17.812C80.4546 18.184 81.0246 18.37 81.7206 18.37C82.0926 18.37 82.4706 18.304 82.8546 18.172C83.2506 18.04 83.6166 17.86 83.9526 17.632C84.2886 17.404 84.5586 17.152 84.7626 16.876L85.1946 17.236C84.8706 17.74 84.4806 18.142 84.0246 18.442C83.5686 18.742 83.1006 18.958 82.6206 19.09C82.1406 19.222 81.6966 19.288 81.2886 19.288ZM78.8046 13.042H83.3946C83.3946 12.61 83.3286 12.196 83.1966 11.8C83.0766 11.392 82.8726 11.062 82.5846 10.81C82.2966 10.546 81.9186 10.414 81.4506 10.414C80.7546 10.414 80.1726 10.624 79.7046 11.044C79.2486 11.452 78.9486 12.118 78.8046 13.042ZM86.6885 18.46C87.0605 18.46 87.3185 18.37 87.4625 18.19C87.6065 17.998 87.6905 17.74 87.7145 17.416C87.7385 17.08 87.7505 16.696 87.7505 16.264V12.16C87.7505 11.968 87.7505 11.776 87.7505 11.584C87.7625 11.392 87.7865 11.194 87.8225 10.99C87.6065 11.002 87.3905 11.014 87.1745 11.026C86.9705 11.026 86.7605 11.032 86.5445 11.044V10.306H87.1025C87.6185 10.306 87.9725 10.258 88.1645 10.162C88.3685 10.054 88.5365 9.94 88.6685 9.82H89.1905C89.2145 10.012 89.2325 10.252 89.2445 10.54C89.2565 10.816 89.2685 11.17 89.2805 11.602C89.4605 11.302 89.7065 11.008 90.0185 10.72C90.3305 10.432 90.6785 10.192 91.0625 10C91.4585 9.808 91.8725 9.712 92.3045 9.712C92.6405 9.712 92.9345 9.802 93.1865 9.982C93.4385 10.162 93.5645 10.45 93.5645 10.846C93.5645 10.942 93.5345 11.062 93.4745 11.206C93.4145 11.338 93.3185 11.458 93.1865 11.566C93.0545 11.662 92.8805 11.71 92.6645 11.71C92.4005 11.698 92.1905 11.596 92.0345 11.404C91.8785 11.2 91.8185 10.966 91.8545 10.702C91.5545 10.69 91.2425 10.768 90.9185 10.936C90.6065 11.104 90.3125 11.338 90.0365 11.638C89.7605 11.926 89.5145 12.268 89.2985 12.664L89.3165 17.092C89.3165 17.332 89.3105 17.548 89.2985 17.74C89.2985 17.92 89.2805 18.112 89.2445 18.316C89.4365 18.304 89.6225 18.298 89.8025 18.298C89.9945 18.286 90.1865 18.274 90.3785 18.262V19H86.6885V18.46ZM95.9336 19.288C95.6576 19.288 95.4116 19.18 95.1956 18.964C94.9916 18.736 94.8896 18.46 94.8896 18.136C94.8896 17.812 94.9976 17.536 95.2136 17.308C95.4296 17.08 95.6756 16.966 95.9516 16.966C96.2516 16.966 96.4976 17.08 96.6896 17.308C96.8936 17.536 96.9956 17.812 96.9956 18.136C96.9956 18.46 96.8876 18.736 96.6716 18.964C96.4556 19.18 96.2096 19.288 95.9336 19.288ZM95.9336 12.034C95.6576 12.034 95.4116 11.926 95.1956 11.71C94.9916 11.482 94.8896 11.206 94.8896 10.882C94.8896 10.558 94.9976 10.282 95.2136 10.054C95.4296 9.826 95.6756 9.712 95.9516 9.712C96.2516 9.712 96.4976 9.826 96.6896 10.054C96.8936 10.282 96.9956 10.558 96.9956 10.882C96.9956 11.206 96.8876 11.482 96.6716 11.71C96.4556 11.926 96.2096 12.034 95.9336 12.034Z" fill="#666666"/>
<path d="M23.3334 4.66666H4.66671C3.38337 4.66666 2.34504 5.71666 2.34504 6.99999L2.33337 21C2.33337 22.2833 3.38337 23.3333 4.66671 23.3333H23.3334C24.6167 23.3333 25.6667 22.2833 25.6667 21V6.99999C25.6667 5.71666 24.6167 4.66666 23.3334 4.66666ZM22.8667 9.62499L14.6184 14.7817C14.245 15.015 13.755 15.015 13.3817 14.7817L5.13337 9.62499C5.01639 9.55932 4.91395 9.47059 4.83224 9.36419C4.75054 9.25778 4.69128 9.1359 4.65805 9.00592C4.62481 8.87595 4.61829 8.74058 4.63889 8.60801C4.65949 8.47545 4.70677 8.34844 4.77787 8.23467C4.84897 8.12091 4.94242 8.02275 5.05255 7.94615C5.16269 7.86955 5.28722 7.81609 5.41862 7.789C5.55001 7.76192 5.68554 7.76178 5.81699 7.7886C5.94844 7.81541 6.07308 7.86861 6.18337 7.94499L14 12.8333L21.8167 7.94499C21.927 7.86861 22.0516 7.81541 22.1831 7.7886C22.3145 7.76178 22.4501 7.76192 22.5815 7.789C22.7129 7.81609 22.8374 7.86955 22.9475 7.94615C23.0577 8.02275 23.1511 8.12091 23.2222 8.23467C23.2933 8.34844 23.3406 8.47545 23.3612 8.60801C23.3818 8.74058 23.3753 8.87595 23.342 9.00592C23.3088 9.1359 23.2495 9.25778 23.1678 9.36419C23.0861 9.47059 22.9837 9.55932 22.8667 9.62499Z" fill="#666666"/>
</svg>
