<svg width="162" height="28" viewBox="0 0 162 28" fill="none" xmlns="http://www.w3.org/2000/svg">
<path d="M31.99 18.406C32.446 18.382 32.758 18.28 32.926 18.1C33.094 17.908 33.184 17.65 33.196 17.326C33.22 16.99 33.232 16.612 33.232 16.192V8.416C33.232 8.176 33.238 7.948 33.25 7.732C33.262 7.504 33.274 7.3 33.286 7.12C33.07 7.132 32.854 7.144 32.638 7.156C32.422 7.168 32.206 7.18 31.99 7.192V6.4C32.626 6.388 33.28 6.382 33.952 6.382C34.624 6.37 35.308 6.364 36.004 6.364C37.168 6.364 38.146 6.496 38.938 6.76C39.73 7.024 40.336 7.414 40.756 7.93C41.176 8.446 41.404 9.088 41.44 9.856C41.464 10.324 41.392 10.816 41.224 11.332C41.068 11.836 40.768 12.316 40.324 12.772C39.892 13.216 39.28 13.576 38.488 13.852C37.696 14.128 36.682 14.266 35.446 14.266C35.398 14.266 35.308 14.266 35.176 14.266C35.044 14.266 34.918 14.26 34.798 14.248V16.858C34.798 17.182 34.792 17.464 34.78 17.704C34.78 17.932 34.768 18.124 34.744 18.28C34.936 18.268 35.122 18.256 35.302 18.244C35.482 18.232 35.662 18.226 35.842 18.226C36.034 18.214 36.22 18.202 36.4 18.19V19H31.99V18.406ZM34.798 13.51C35.026 13.534 35.218 13.552 35.374 13.564C35.542 13.564 35.74 13.564 35.968 13.564C36.652 13.564 37.276 13.432 37.84 13.168C38.404 12.892 38.854 12.502 39.19 11.998C39.526 11.494 39.694 10.894 39.694 10.198C39.694 9.634 39.604 9.154 39.424 8.758C39.244 8.35 38.986 8.026 38.65 7.786C38.326 7.534 37.936 7.354 37.48 7.246C37.024 7.126 36.52 7.066 35.968 7.066C35.548 7.066 35.254 7.156 35.086 7.336C34.93 7.516 34.84 7.768 34.816 8.092C34.804 8.404 34.798 8.776 34.798 9.208V13.51ZM48.3805 18.46C48.7525 18.46 49.0105 18.37 49.1545 18.19C49.2985 17.998 49.3825 17.74 49.4065 17.416C49.4305 17.08 49.4425 16.696 49.4425 16.264V13.744C49.4425 12.712 49.2745 11.938 48.9385 11.422C48.6145 10.906 48.0985 10.654 47.3905 10.666C46.9465 10.678 46.5085 10.786 46.0765 10.99C45.6565 11.194 45.3145 11.458 45.0505 11.782V17.092C45.0505 17.332 45.0445 17.548 45.0325 17.74C45.0205 17.92 44.9965 18.112 44.9605 18.316C45.1525 18.304 45.3385 18.298 45.5185 18.298C45.7105 18.286 45.9025 18.274 46.0945 18.262V19H42.4225V18.46C42.7945 18.46 43.0525 18.37 43.1965 18.19C43.3405 17.998 43.4245 17.74 43.4485 17.416C43.4845 17.08 43.5025 16.696 43.5025 16.264V7.75C43.5025 7.558 43.5025 7.378 43.5025 7.21C43.5145 7.03 43.5325 6.82 43.5565 6.58C43.3405 6.592 43.1245 6.604 42.9085 6.616C42.7045 6.628 42.4945 6.64 42.2785 6.652V5.896C42.8065 5.896 43.2145 5.872 43.5025 5.824C43.8025 5.776 44.0245 5.716 44.1685 5.644C44.3245 5.572 44.4445 5.494 44.5285 5.41H45.0505V10.9C45.3145 10.672 45.6085 10.474 45.9325 10.306C46.2685 10.126 46.6105 9.982 46.9585 9.874C47.3185 9.766 47.6665 9.712 48.0025 9.712C49.0465 9.712 49.7965 10.042 50.2525 10.702C50.7205 11.35 50.9605 12.364 50.9725 13.744L50.9905 17.092C50.9905 17.332 50.9845 17.548 50.9725 17.74C50.9725 17.92 50.9545 18.112 50.9185 18.316C51.1105 18.304 51.2965 18.298 51.4765 18.298C51.6685 18.286 51.8605 18.274 52.0525 18.262V19H48.3805V18.46ZM57.8419 19.288C57.0019 19.288 56.2399 19.096 55.5559 18.712C54.8719 18.316 54.3259 17.776 53.9179 17.092C53.5219 16.396 53.3239 15.604 53.3239 14.716C53.3239 13.768 53.5219 12.916 53.9179 12.16C54.3139 11.404 54.8539 10.81 55.5379 10.378C56.2219 9.934 56.9899 9.712 57.8419 9.712C58.6819 9.712 59.4439 9.916 60.1279 10.324C60.8119 10.72 61.3579 11.26 61.7659 11.944C62.1739 12.628 62.3779 13.408 62.3779 14.284C62.3779 15.208 62.1739 16.054 61.7659 16.822C61.3699 17.578 60.8299 18.178 60.1459 18.622C59.4619 19.066 58.6939 19.288 57.8419 19.288ZM57.9859 18.568C58.6219 18.568 59.1259 18.388 59.4979 18.028C59.8699 17.668 60.1339 17.2 60.2899 16.624C60.4579 16.048 60.5419 15.442 60.5419 14.806C60.5419 14.266 60.4879 13.738 60.3799 13.222C60.2839 12.694 60.1279 12.22 59.9119 11.8C59.6959 11.368 59.4139 11.026 59.0659 10.774C58.7299 10.522 58.3219 10.396 57.8419 10.396C57.2179 10.396 56.7079 10.576 56.3119 10.936C55.9159 11.296 55.6219 11.764 55.4299 12.34C55.2499 12.916 55.1599 13.534 55.1599 14.194C55.1599 14.938 55.2619 15.646 55.4659 16.318C55.6699 16.978 55.9819 17.518 56.4019 17.938C56.8219 18.358 57.3499 18.568 57.9859 18.568ZM63.9072 19V18.46C64.2792 18.46 64.5372 18.37 64.6812 18.19C64.8252 17.998 64.9092 17.74 64.9332 17.416C64.9572 17.08 64.9692 16.696 64.9692 16.264L64.9872 12.16C64.9872 11.968 64.9872 11.776 64.9872 11.584C64.9992 11.392 65.0232 11.194 65.0592 10.99C64.8432 11.002 64.6272 11.014 64.4112 11.026C64.2072 11.038 63.9972 11.05 63.7812 11.062V10.306C64.3092 10.306 64.7052 10.282 64.9692 10.234C65.2452 10.186 65.4492 10.126 65.5812 10.054C65.7132 9.982 65.8212 9.904 65.9052 9.82H66.4272C66.4392 9.904 66.4452 10 66.4452 10.108C66.4572 10.216 66.4692 10.336 66.4812 10.468C66.4932 10.6 66.4992 10.75 66.4992 10.918C66.7632 10.69 67.0512 10.486 67.3632 10.306C67.6872 10.126 68.0232 9.982 68.3712 9.874C68.7312 9.766 69.0852 9.712 69.4332 9.712C70.4772 9.712 71.2392 10.042 71.7192 10.702C72.1992 11.35 72.4392 12.364 72.4392 13.744V17.092C72.4392 17.332 72.4332 17.548 72.4212 17.74C72.4212 17.92 72.4032 18.112 72.3672 18.316C72.5592 18.304 72.7452 18.298 72.9252 18.298C73.1172 18.286 73.3092 18.274 73.5012 18.262V19H69.8292V18.46C70.2012 18.46 70.4592 18.37 70.6032 18.19C70.7472 17.998 70.8312 17.74 70.8552 17.416C70.8792 17.08 70.8912 16.696 70.8912 16.264V13.744C70.8792 12.712 70.7052 11.932 70.3692 11.404C70.0452 10.876 69.5292 10.618 68.8212 10.63C68.3892 10.642 67.9632 10.756 67.5432 10.972C67.1352 11.188 66.7932 11.464 66.5172 11.8C66.5292 11.896 66.5352 12.004 66.5352 12.124C66.5352 12.244 66.5352 12.37 66.5352 12.502L66.5172 17.092C66.5172 17.332 66.5112 17.548 66.4992 17.74C66.4992 17.92 66.4812 18.112 66.4452 18.316C66.6372 18.304 66.8232 18.298 67.0032 18.298C67.1952 18.286 67.3872 18.274 67.5792 18.262V19H63.9072ZM79.1968 19.288C78.3688 19.288 77.6188 19.096 76.9468 18.712C76.2868 18.316 75.7648 17.764 75.3808 17.056C74.9968 16.336 74.8048 15.49 74.8048 14.518C74.8048 13.678 74.9908 12.892 75.3628 12.16C75.7468 11.428 76.2808 10.84 76.9648 10.396C77.6488 9.94 78.4408 9.712 79.3408 9.712C79.8448 9.712 80.3128 9.796 80.7448 9.964C81.1888 10.12 81.5788 10.366 81.9148 10.702C82.2508 11.026 82.5148 11.44 82.7068 11.944C82.8988 12.436 82.9948 13.018 82.9948 13.69L76.6588 13.798C76.6588 14.71 76.7548 15.514 76.9468 16.21C77.1508 16.894 77.4748 17.428 77.9188 17.812C78.3628 18.184 78.9328 18.37 79.6288 18.37C80.0008 18.37 80.3788 18.304 80.7628 18.172C81.1588 18.04 81.5248 17.86 81.8608 17.632C82.1968 17.404 82.4668 17.152 82.6708 16.876L83.1028 17.236C82.7788 17.74 82.3888 18.142 81.9328 18.442C81.4768 18.742 81.0088 18.958 80.5288 19.09C80.0488 19.222 79.6048 19.288 79.1968 19.288ZM76.7128 13.042H81.3028C81.3028 12.61 81.2368 12.196 81.1048 11.8C80.9848 11.392 80.7808 11.062 80.4928 10.81C80.2048 10.546 79.8268 10.414 79.3588 10.414C78.6628 10.414 78.0808 10.624 77.6128 11.044C77.1568 11.452 76.8568 12.118 76.7128 13.042ZM99.3692 19.288L92.1872 9.64C92.0792 9.496 91.9712 9.358 91.8632 9.226C91.7672 9.082 91.6652 8.938 91.5572 8.794H91.5392L91.5932 16.498C91.5932 16.798 91.5932 17.098 91.5932 17.398C91.5932 17.698 91.5812 17.992 91.5572 18.28C91.7732 18.268 91.9892 18.256 92.2052 18.244C92.4212 18.232 92.6372 18.22 92.8532 18.208V19H89.5592V18.406C89.9312 18.406 90.1952 18.328 90.3512 18.172C90.5192 18.004 90.6272 17.812 90.6752 17.596C90.7232 17.368 90.7472 17.164 90.7472 16.984L90.7652 8.326C90.7652 8.122 90.7652 7.918 90.7652 7.714C90.7652 7.51 90.7652 7.312 90.7652 7.12C90.5732 7.132 90.3752 7.144 90.1712 7.156C89.9672 7.168 89.7632 7.18 89.5592 7.192V6.4H91.7012L98.4512 15.436C98.6072 15.64 98.7572 15.844 98.9012 16.048C99.0572 16.252 99.2132 16.456 99.3692 16.66H99.3872L99.4052 8.416C99.4052 8.176 99.4112 7.948 99.4232 7.732C99.4352 7.504 99.4472 7.3 99.4592 7.12C99.2432 7.132 99.0272 7.144 98.8112 7.156C98.5952 7.168 98.3792 7.18 98.1632 7.192V6.4H101.475V6.994C101.031 7.006 100.725 7.108 100.557 7.3C100.389 7.492 100.299 7.75 100.287 8.074C100.275 8.398 100.269 8.776 100.269 9.208L100.233 19.288H99.3692ZM106.834 19.288C106.186 19.288 105.64 19.168 105.196 18.928C104.764 18.688 104.434 18.28 104.206 17.704C103.99 17.128 103.882 16.348 103.882 15.364V12.16C103.882 11.968 103.882 11.776 103.882 11.584C103.894 11.392 103.918 11.194 103.954 10.99C103.75 11.002 103.54 11.014 103.324 11.026C103.12 11.026 102.916 11.032 102.712 11.044V10.306H103.27C103.786 10.306 104.158 10.258 104.386 10.162C104.626 10.054 104.812 9.94 104.944 9.82H105.466V15.31C105.466 16.342 105.61 17.116 105.898 17.632C106.198 18.136 106.702 18.382 107.41 18.37C107.866 18.358 108.298 18.22 108.706 17.956C109.126 17.68 109.462 17.356 109.714 16.984V12.358C109.714 12.07 109.72 11.824 109.732 11.62C109.744 11.404 109.768 11.194 109.804 10.99C109.588 11.002 109.372 11.014 109.156 11.026C108.94 11.026 108.724 11.032 108.508 11.044V10.306H109.066C109.582 10.306 109.954 10.258 110.182 10.162C110.422 10.054 110.608 9.94 110.74 9.82H111.262L111.244 16.624C111.244 16.816 111.238 17.086 111.226 17.434C111.214 17.782 111.196 18.076 111.172 18.316C111.388 18.304 111.604 18.292 111.82 18.28C112.036 18.268 112.252 18.256 112.468 18.244V19H109.894C109.858 18.796 109.828 18.604 109.804 18.424C109.792 18.244 109.78 18.076 109.768 17.92C109.396 18.292 108.946 18.616 108.418 18.892C107.89 19.156 107.362 19.288 106.834 19.288ZM113.776 19V18.46C114.148 18.46 114.406 18.37 114.55 18.19C114.694 17.998 114.778 17.74 114.802 17.416C114.826 17.08 114.838 16.696 114.838 16.264V12.16C114.838 11.968 114.838 11.776 114.838 11.584C114.85 11.392 114.874 11.194 114.91 10.99C114.694 11.002 114.478 11.014 114.262 11.026C114.058 11.038 113.848 11.05 113.632 11.062V10.306C114.16 10.306 114.556 10.282 114.82 10.234C115.096 10.186 115.3 10.126 115.432 10.054C115.564 9.982 115.672 9.904 115.756 9.82H116.278C116.302 9.94 116.314 10.078 116.314 10.234C116.326 10.39 116.338 10.57 116.35 10.774C116.71 10.462 117.124 10.21 117.592 10.018C118.06 9.814 118.528 9.712 118.996 9.712C119.596 9.712 120.1 9.82 120.508 10.036C120.916 10.252 121.234 10.546 121.462 10.918C121.87 10.582 122.338 10.3 122.866 10.072C123.406 9.832 123.934 9.712 124.45 9.712C125.494 9.712 126.262 10.03 126.754 10.666C127.246 11.29 127.48 12.316 127.456 13.744L127.438 17.092C127.438 17.332 127.432 17.548 127.42 17.74C127.42 17.92 127.402 18.112 127.366 18.316C127.558 18.304 127.744 18.298 127.924 18.298C128.116 18.286 128.308 18.274 128.5 18.262V19H124.828V18.46C125.2 18.46 125.458 18.37 125.602 18.19C125.746 17.998 125.83 17.74 125.854 17.416C125.878 17.08 125.89 16.696 125.89 16.264V13.744C125.89 12.712 125.722 11.938 125.386 11.422C125.062 10.906 124.546 10.654 123.838 10.666C123.466 10.666 123.094 10.75 122.722 10.918C122.35 11.086 122.026 11.296 121.75 11.548C121.81 11.74 121.852 11.95 121.876 12.178C121.912 12.394 121.93 12.622 121.93 12.862C121.918 13.558 121.912 14.26 121.912 14.968C121.912 15.676 121.906 16.384 121.894 17.092C121.894 17.332 121.888 17.548 121.876 17.74C121.876 17.92 121.858 18.112 121.822 18.316C122.014 18.304 122.2 18.298 122.38 18.298C122.572 18.286 122.764 18.274 122.956 18.262V19H119.284V18.46C119.656 18.46 119.908 18.37 120.04 18.19C120.184 17.998 120.268 17.74 120.292 17.416C120.328 17.08 120.346 16.696 120.346 16.264L120.364 13.744C120.376 12.712 120.226 11.932 119.914 11.404C119.602 10.876 119.092 10.618 118.384 10.63C118.012 10.63 117.646 10.714 117.286 10.882C116.926 11.038 116.62 11.242 116.368 11.494C116.368 11.638 116.368 11.794 116.368 11.962C116.38 12.118 116.386 12.286 116.386 12.466V17.092C116.386 17.332 116.38 17.548 116.368 17.74C116.368 17.92 116.35 18.112 116.314 18.316C116.506 18.304 116.692 18.298 116.872 18.298C117.064 18.286 117.256 18.274 117.448 18.262V19H113.776ZM130.436 7.75C130.436 7.558 130.436 7.378 130.436 7.21C130.448 7.03 130.466 6.82 130.49 6.58C130.274 6.592 130.058 6.604 129.842 6.616C129.638 6.628 129.428 6.64 129.212 6.652V5.896C129.74 5.896 130.148 5.872 130.436 5.824C130.736 5.776 130.958 5.716 131.102 5.644C131.258 5.572 131.378 5.494 131.462 5.41H131.984V10.774C132.32 10.438 132.716 10.18 133.172 10C133.64 9.808 134.15 9.712 134.702 9.712C135.47 9.712 136.16 9.898 136.772 10.27C137.396 10.642 137.888 11.17 138.248 11.854C138.608 12.538 138.788 13.348 138.788 14.284C138.788 15.304 138.566 16.192 138.122 16.948C137.678 17.692 137.102 18.268 136.394 18.676C135.686 19.084 134.924 19.288 134.108 19.288C133.7 19.288 133.25 19.21 132.758 19.054C132.278 18.91 131.846 18.622 131.462 18.19L131.03 19H130.4L130.436 7.75ZM131.984 16.174C131.984 16.81 132.086 17.302 132.29 17.65C132.494 17.986 132.758 18.22 133.082 18.352C133.406 18.484 133.748 18.55 134.108 18.55C134.684 18.55 135.182 18.388 135.602 18.064C136.022 17.74 136.346 17.296 136.574 16.732C136.814 16.156 136.934 15.49 136.934 14.734C136.934 13.918 136.832 13.204 136.628 12.592C136.424 11.968 136.118 11.482 135.71 11.134C135.302 10.774 134.786 10.594 134.162 10.594C133.766 10.594 133.37 10.69 132.974 10.882C132.59 11.062 132.26 11.308 131.984 11.62V16.174ZM144.693 19.288C143.865 19.288 143.115 19.096 142.443 18.712C141.783 18.316 141.261 17.764 140.877 17.056C140.493 16.336 140.301 15.49 140.301 14.518C140.301 13.678 140.487 12.892 140.859 12.16C141.243 11.428 141.777 10.84 142.461 10.396C143.145 9.94 143.937 9.712 144.837 9.712C145.341 9.712 145.809 9.796 146.241 9.964C146.685 10.12 147.075 10.366 147.411 10.702C147.747 11.026 148.011 11.44 148.203 11.944C148.395 12.436 148.491 13.018 148.491 13.69L142.155 13.798C142.155 14.71 142.251 15.514 142.443 16.21C142.647 16.894 142.971 17.428 143.415 17.812C143.859 18.184 144.429 18.37 145.125 18.37C145.497 18.37 145.875 18.304 146.259 18.172C146.655 18.04 147.021 17.86 147.357 17.632C147.693 17.404 147.963 17.152 148.167 16.876L148.599 17.236C148.275 17.74 147.885 18.142 147.429 18.442C146.973 18.742 146.505 18.958 146.025 19.09C145.545 19.222 145.101 19.288 144.693 19.288ZM142.209 13.042H146.799C146.799 12.61 146.733 12.196 146.601 11.8C146.481 11.392 146.277 11.062 145.989 10.81C145.701 10.546 145.323 10.414 144.855 10.414C144.159 10.414 143.577 10.624 143.109 11.044C142.653 11.452 142.353 12.118 142.209 13.042ZM150.093 18.46C150.465 18.46 150.723 18.37 150.867 18.19C151.011 17.998 151.095 17.74 151.119 17.416C151.143 17.08 151.155 16.696 151.155 16.264V12.16C151.155 11.968 151.155 11.776 151.155 11.584C151.167 11.392 151.191 11.194 151.227 10.99C151.011 11.002 150.795 11.014 150.579 11.026C150.375 11.026 150.165 11.032 149.949 11.044V10.306H150.507C151.023 10.306 151.377 10.258 151.569 10.162C151.773 10.054 151.941 9.94 152.073 9.82H152.595C152.619 10.012 152.637 10.252 152.649 10.54C152.661 10.816 152.673 11.17 152.685 11.602C152.865 11.302 153.111 11.008 153.423 10.72C153.735 10.432 154.083 10.192 154.467 10C154.863 9.808 155.277 9.712 155.709 9.712C156.045 9.712 156.339 9.802 156.591 9.982C156.843 10.162 156.969 10.45 156.969 10.846C156.969 10.942 156.939 11.062 156.879 11.206C156.819 11.338 156.723 11.458 156.591 11.566C156.459 11.662 156.285 11.71 156.069 11.71C155.805 11.698 155.595 11.596 155.439 11.404C155.283 11.2 155.223 10.966 155.259 10.702C154.959 10.69 154.647 10.768 154.323 10.936C154.011 11.104 153.717 11.338 153.441 11.638C153.165 11.926 152.919 12.268 152.703 12.664L152.721 17.092C152.721 17.332 152.715 17.548 152.703 17.74C152.703 17.92 152.685 18.112 152.649 18.316C152.841 18.304 153.027 18.298 153.207 18.298C153.399 18.286 153.591 18.274 153.783 18.262V19H150.093V18.46ZM159.338 19.288C159.062 19.288 158.816 19.18 158.6 18.964C158.396 18.736 158.294 18.46 158.294 18.136C158.294 17.812 158.402 17.536 158.618 17.308C158.834 17.08 159.08 16.966 159.356 16.966C159.656 16.966 159.902 17.08 160.094 17.308C160.298 17.536 160.4 17.812 160.4 18.136C160.4 18.46 160.292 18.736 160.076 18.964C159.86 19.18 159.614 19.288 159.338 19.288ZM159.338 12.034C159.062 12.034 158.816 11.926 158.6 11.71C158.396 11.482 158.294 11.206 158.294 10.882C158.294 10.558 158.402 10.282 158.618 10.054C158.834 9.826 159.08 9.712 159.356 9.712C159.656 9.712 159.902 9.826 160.094 10.054C160.298 10.282 160.4 10.558 160.4 10.882C160.4 11.206 160.292 11.482 160.076 11.71C159.86 11.926 159.614 12.034 159.338 12.034Z" fill="#666666"/>
<path d="M23.3334 4.66667H4.66671C3.38337 4.66667 2.34504 5.71667 2.34504 7.00001L2.33337 21C2.33337 22.2833 3.38337 23.3333 4.66671 23.3333H23.3334C24.6167 23.3333 25.6667 22.2833 25.6667 21V7.00001C25.6667 5.71667 24.6167 4.66667 23.3334 4.66667ZM22.8667 9.625L14.6184 14.7817C14.245 15.015 13.755 15.015 13.3817 14.7817L5.13337 9.625C5.01639 9.55933 4.91395 9.47061 4.83224 9.3642C4.75054 9.25779 4.69128 9.13591 4.65805 9.00594C4.62481 8.87596 4.61829 8.7406 4.63889 8.60803C4.65949 8.47546 4.70677 8.34845 4.77787 8.23469C4.84897 8.12092 4.94242 8.02277 5.05255 7.94617C5.16269 7.86956 5.28722 7.8161 5.41862 7.78902C5.55001 7.76194 5.68554 7.7618 5.81699 7.78861C5.94844 7.81542 6.07308 7.86863 6.18337 7.945L14 12.8333L21.8167 7.945C21.927 7.86863 22.0516 7.81542 22.1831 7.78861C22.3145 7.7618 22.4501 7.76194 22.5815 7.78902C22.7129 7.8161 22.8374 7.86956 22.9475 7.94617C23.0577 8.02277 23.1511 8.12092 23.2222 8.23469C23.2933 8.34845 23.3406 8.47546 23.3612 8.60803C23.3818 8.7406 23.3753 8.87596 23.342 9.00594C23.3088 9.13591 23.2495 9.25779 23.1678 9.3642C23.0861 9.47061 22.9837 9.55933 22.8667 9.625Z" fill="#666666"/>
</svg>
