<svg width="101" height="36" viewBox="0 0 101 36" fill="none" xmlns="http://www.w3.org/2000/svg">
<path d="M42.672 19.784C42.672 19.08 42.576 18.576 42.384 18.272C42.192 17.968 41.888 17.784 41.472 17.72C41.056 17.656 40.504 17.64 39.816 17.672L38.064 17.744V23.24C38.064 23.672 38.056 24.04 38.04 24.344C38.04 24.648 38.024 24.904 37.992 25.112L42.576 25.04C43.28 25.024 43.888 24.912 44.4 24.704C44.912 24.48 45.312 24.096 45.6 23.552C45.888 23.008 46.032 22.264 46.032 21.32H46.848L46.704 26H34.32V25.208C34.928 25.176 35.344 25.04 35.568 24.8C35.792 24.544 35.912 24.2 35.928 23.768C35.96 23.32 35.976 22.816 35.976 22.256V11.888C35.976 11.568 35.984 11.264 36 10.976C36.016 10.672 36.032 10.4 36.048 10.16C35.76 10.176 35.472 10.192 35.184 10.208C34.896 10.224 34.608 10.24 34.32 10.256V9.2H45.864L45.984 13.4H45.192C45.192 12.456 45.048 11.744 44.76 11.264C44.472 10.768 44.08 10.44 43.584 10.28C43.104 10.104 42.56 10.024 41.952 10.04L39.888 10.088C39.296 10.104 38.872 10.216 38.616 10.424C38.36 10.632 38.2 10.944 38.136 11.36C38.088 11.76 38.064 12.288 38.064 12.944V16.784L42.576 16.808L42.408 14.744H43.464V19.784H42.672ZM48.9857 26V25.28C49.4817 25.28 49.8257 25.16 50.0177 24.92C50.2097 24.664 50.3217 24.32 50.3537 23.888C50.3857 23.44 50.4017 22.928 50.4017 22.352V16.88C50.4017 16.624 50.4017 16.368 50.4017 16.112C50.4177 15.856 50.4497 15.592 50.4977 15.32C50.2097 15.336 49.9217 15.352 49.6337 15.368C49.3617 15.384 49.0817 15.4 48.7937 15.416V14.408C49.4977 14.408 50.0257 14.376 50.3777 14.312C50.7457 14.248 51.0177 14.168 51.1937 14.072C51.3697 13.976 51.5137 13.872 51.6257 13.76H52.3217C52.3537 13.92 52.3697 14.104 52.3697 14.312C52.3857 14.52 52.4017 14.76 52.4177 15.032C52.8977 14.616 53.4497 14.28 54.0737 14.024C54.6977 13.752 55.3217 13.616 55.9457 13.616C56.7457 13.616 57.4177 13.76 57.9617 14.048C58.5057 14.336 58.9297 14.728 59.2337 15.224C59.7777 14.776 60.4017 14.4 61.1057 14.096C61.8257 13.776 62.5297 13.616 63.2177 13.616C64.6097 13.616 65.6337 14.04 66.2897 14.888C66.9457 15.72 67.2577 17.088 67.2257 18.992L67.2017 23.456C67.2017 23.776 67.1937 24.064 67.1777 24.32C67.1777 24.56 67.1537 24.816 67.1057 25.088C67.3617 25.072 67.6097 25.064 67.8497 25.064C68.1057 25.048 68.3617 25.032 68.6177 25.016V26H63.7217V25.28C64.2177 25.28 64.5617 25.16 64.7537 24.92C64.9457 24.664 65.0577 24.32 65.0897 23.888C65.1217 23.44 65.1377 22.928 65.1377 22.352V18.992C65.1377 17.616 64.9137 16.584 64.4657 15.896C64.0337 15.208 63.3457 14.872 62.4017 14.888C61.9057 14.888 61.4097 15 60.9137 15.224C60.4177 15.448 59.9857 15.728 59.6177 16.064C59.6977 16.32 59.7537 16.6 59.7857 16.904C59.8337 17.192 59.8577 17.496 59.8577 17.816C59.8417 18.744 59.8337 19.68 59.8337 20.624C59.8337 21.568 59.8257 22.512 59.8097 23.456C59.8097 23.776 59.8017 24.064 59.7857 24.32C59.7857 24.56 59.7617 24.816 59.7137 25.088C59.9697 25.072 60.2177 25.064 60.4577 25.064C60.7137 25.048 60.9697 25.032 61.2257 25.016V26H56.3297V25.28C56.8257 25.28 57.1617 25.16 57.3377 24.92C57.5297 24.664 57.6417 24.32 57.6737 23.888C57.7217 23.44 57.7457 22.928 57.7457 22.352L57.7697 18.992C57.7857 17.616 57.5857 16.576 57.1697 15.872C56.7537 15.168 56.0737 14.824 55.1297 14.84C54.6337 14.84 54.1457 14.952 53.6657 15.176C53.1857 15.384 52.7777 15.656 52.4417 15.992C52.4417 16.184 52.4417 16.392 52.4417 16.616C52.4577 16.824 52.4657 17.048 52.4657 17.288V23.456C52.4657 23.776 52.4577 24.064 52.4417 24.32C52.4417 24.56 52.4177 24.816 52.3697 25.088C52.6257 25.072 52.8737 25.064 53.1137 25.064C53.3697 25.048 53.6257 25.032 53.8817 25.016V26H48.9857ZM77.727 26C77.679 25.728 77.647 25.488 77.631 25.28C77.615 25.072 77.591 24.856 77.559 24.632C77.015 25.176 76.423 25.608 75.783 25.928C75.159 26.232 74.495 26.384 73.791 26.384C72.575 26.384 71.671 26.112 71.079 25.568C70.487 25.008 70.191 24.328 70.191 23.528C70.191 22.792 70.415 22.16 70.863 21.632C71.327 21.088 71.919 20.648 72.639 20.312C73.375 19.96 74.167 19.704 75.015 19.544C75.879 19.368 76.711 19.288 77.511 19.304V17.816C77.511 17.256 77.463 16.728 77.367 16.232C77.271 15.736 77.063 15.328 76.743 15.008C76.423 14.688 75.911 14.52 75.207 14.504C74.743 14.488 74.263 14.576 73.767 14.768C73.287 14.96 72.935 15.288 72.711 15.752C72.839 15.88 72.919 16.032 72.951 16.208C72.999 16.368 73.023 16.52 73.023 16.664C73.023 16.856 72.943 17.08 72.783 17.336C72.623 17.576 72.343 17.688 71.943 17.672C71.607 17.672 71.351 17.56 71.175 17.336C70.999 17.096 70.911 16.816 70.911 16.496C70.911 15.952 71.111 15.464 71.511 15.032C71.927 14.6 72.495 14.256 73.215 14C73.935 13.744 74.751 13.616 75.663 13.616C77.007 13.616 77.999 13.976 78.639 14.696C79.279 15.4 79.591 16.52 79.575 18.056C79.575 18.648 79.575 19.248 79.575 19.856C79.575 20.448 79.567 21.048 79.551 21.656C79.551 22.248 79.551 22.848 79.551 23.456C79.551 23.712 79.543 23.968 79.527 24.224C79.511 24.48 79.487 24.768 79.455 25.088C79.743 25.072 80.023 25.056 80.295 25.04C80.583 25.024 80.871 25.008 81.159 24.992V26H77.727ZM77.511 20.12C76.967 20.136 76.391 20.208 75.783 20.336C75.191 20.448 74.639 20.624 74.127 20.864C73.631 21.104 73.223 21.424 72.903 21.824C72.599 22.208 72.455 22.68 72.471 23.24C72.503 23.832 72.695 24.28 73.047 24.584C73.415 24.872 73.847 25.016 74.343 25.016C74.999 25.016 75.567 24.896 76.047 24.656C76.543 24.4 77.031 24.048 77.511 23.6C77.495 23.424 77.487 23.232 77.487 23.024C77.487 22.816 77.487 22.6 77.487 22.376C77.487 22.296 77.487 22.04 77.487 21.608C77.503 21.176 77.511 20.68 77.511 20.12ZM82.806 25.28C83.302 25.28 83.646 25.16 83.838 24.92C84.03 24.664 84.142 24.32 84.174 23.888C84.206 23.44 84.222 22.928 84.222 22.352V16.88C84.222 16.624 84.23 16.384 84.246 16.16C84.262 15.92 84.286 15.64 84.318 15.32C84.03 15.336 83.742 15.352 83.454 15.368C83.182 15.384 82.902 15.4 82.614 15.416V14.408C83.318 14.408 83.862 14.376 84.246 14.312C84.63 14.248 84.918 14.168 85.11 14.072C85.318 13.976 85.478 13.872 85.59 13.76H86.286V23.456C86.286 23.776 86.278 24.064 86.262 24.32C86.262 24.56 86.238 24.816 86.19 25.088C86.446 25.072 86.694 25.064 86.934 25.064C87.19 25.048 87.446 25.032 87.702 25.016V26H82.806V25.28ZM85.134 11.384C84.798 11.384 84.502 11.248 84.246 10.976C83.99 10.704 83.862 10.368 83.862 9.968C83.862 9.568 83.99 9.232 84.246 8.96C84.518 8.672 84.822 8.528 85.158 8.528C85.526 8.528 85.83 8.672 86.07 8.96C86.326 9.232 86.454 9.568 86.454 9.968C86.454 10.368 86.318 10.704 86.046 10.976C85.79 11.248 85.486 11.384 85.134 11.384ZM89.316 25.28C89.812 25.28 90.156 25.16 90.348 24.92C90.54 24.664 90.652 24.32 90.684 23.888C90.716 23.44 90.732 22.928 90.732 22.352V11C90.732 10.744 90.732 10.504 90.732 10.28C90.748 10.04 90.772 9.76 90.804 9.44C90.516 9.456 90.228 9.472 89.94 9.488C89.668 9.504 89.388 9.52 89.1 9.536V8.528C89.804 8.528 90.348 8.496 90.732 8.432C91.132 8.368 91.428 8.288 91.62 8.192C91.828 8.096 91.988 7.992 92.1 7.88H92.796L92.82 23.456C92.82 23.776 92.812 24.064 92.796 24.32C92.78 24.56 92.748 24.816 92.7 25.088C92.956 25.072 93.204 25.064 93.444 25.064C93.7 25.048 93.956 25.032 94.212 25.016V26H89.316V25.28ZM97.5831 26.144C97.1671 26.144 96.8151 26 96.5271 25.712C96.2391 25.424 96.0951 25.072 96.0951 24.656C96.0951 24.24 96.2391 23.888 96.5271 23.6C96.8151 23.312 97.1671 23.168 97.5831 23.168C97.9831 23.168 98.3191 23.312 98.5911 23.6C98.8791 23.888 99.0231 24.24 99.0231 24.656C99.0231 25.072 98.8791 25.424 98.5911 25.712C98.3191 26 97.9831 26.144 97.5831 26.144ZM97.5831 15.872C97.1671 15.872 96.8151 15.728 96.5271 15.44C96.2391 15.152 96.0951 14.8 96.0951 14.384C96.0951 13.968 96.2391 13.616 96.5271 13.328C96.8151 13.04 97.1671 12.896 97.5831 12.896C97.9831 12.896 98.3191 13.04 98.5911 13.328C98.8791 13.616 99.0231 13.968 99.0231 14.384C99.0231 14.8 98.8791 15.152 98.5911 15.44C98.3191 15.728 97.9831 15.872 97.5831 15.872Z" fill="#666666"/>
<path d="M23.3334 8.66667H4.66671C3.38337 8.66667 2.34504 9.71667 2.34504 11L2.33337 25C2.33337 26.2833 3.38337 27.3333 4.66671 27.3333H23.3334C24.6167 27.3333 25.6667 26.2833 25.6667 25V11C25.6667 9.71667 24.6167 8.66667 23.3334 8.66667ZM22.8667 13.625L14.6184 18.7817C14.245 19.015 13.755 19.015 13.3817 18.7817L5.13337 13.625C5.01639 13.5593 4.91395 13.4706 4.83224 13.3642C4.75054 13.2578 4.69128 13.1359 4.65805 13.0059C4.62481 12.876 4.61829 12.7406 4.63889 12.608C4.65949 12.4755 4.70677 12.3485 4.77787 12.2347C4.84897 12.1209 4.94242 12.0228 5.05255 11.9462C5.16269 11.8696 5.28722 11.8161 5.41862 11.789C5.55001 11.7619 5.68554 11.7618 5.81699 11.7886C5.94844 11.8154 6.07308 11.8686 6.18337 11.945L14 16.8333L21.8167 11.945C21.927 11.8686 22.0516 11.8154 22.1831 11.7886C22.3145 11.7618 22.4501 11.7619 22.5815 11.789C22.7129 11.8161 22.8374 11.8696 22.9475 11.9462C23.0577 12.0228 23.1511 12.1209 23.2222 12.2347C23.2933 12.3485 23.3406 12.4755 23.3612 12.608C23.3818 12.7406 23.3753 12.876 23.342 13.0059C23.3088 13.1359 23.2495 13.2578 23.1678 13.3642C23.0861 13.4706 22.9837 13.5593 22.8667 13.625Z" fill="#666666"/>
</svg>
