<svg width="115" height="28" viewBox="0 0 115 28" fill="none" xmlns="http://www.w3.org/2000/svg">
<path d="M31.99 19V18.406C32.446 18.382 32.758 18.28 32.926 18.1C33.094 17.908 33.184 17.65 33.196 17.326C33.22 16.99 33.232 16.612 33.232 16.192V8.416C33.232 8.176 33.238 7.948 33.25 7.732C33.262 7.504 33.274 7.3 33.286 7.12C33.07 7.132 32.854 7.144 32.638 7.156C32.422 7.168 32.206 7.18 31.99 7.192V6.4H40.342L40.432 9.55H39.838C39.838 8.842 39.724 8.308 39.496 7.948C39.268 7.576 38.968 7.33 38.596 7.21C38.224 7.078 37.81 7.018 37.354 7.03L36.04 7.066C35.596 7.078 35.29 7.186 35.122 7.39C34.954 7.582 34.858 7.84 34.834 8.164C34.81 8.488 34.798 8.86 34.798 9.28V12.376L37.93 12.394L37.804 10.828H38.596V14.626H38.02C38.02 14.086 37.942 13.702 37.786 13.474C37.642 13.246 37.414 13.108 37.102 13.06C36.79 13.012 36.382 13 35.878 13.024L34.798 13.078V16.858C34.798 17.182 34.792 17.464 34.78 17.704C34.78 17.932 34.768 18.124 34.744 18.28C34.948 18.268 35.152 18.262 35.356 18.262C35.56 18.25 35.764 18.238 35.968 18.226C36.172 18.214 36.376 18.208 36.58 18.208V19H31.99ZM45.2755 19.288C44.6275 19.288 44.0815 19.168 43.6375 18.928C43.2055 18.688 42.8755 18.28 42.6475 17.704C42.4315 17.128 42.3235 16.348 42.3235 15.364V12.16C42.3235 11.968 42.3235 11.776 42.3235 11.584C42.3355 11.392 42.3595 11.194 42.3955 10.99C42.1915 11.002 41.9815 11.014 41.7655 11.026C41.5615 11.026 41.3575 11.032 41.1535 11.044V10.306H41.7115C42.2275 10.306 42.5995 10.258 42.8275 10.162C43.0675 10.054 43.2535 9.94 43.3855 9.82H43.9075V15.31C43.9075 16.342 44.0515 17.116 44.3395 17.632C44.6395 18.136 45.1435 18.382 45.8515 18.37C46.3075 18.358 46.7395 18.22 47.1475 17.956C47.5675 17.68 47.9035 17.356 48.1555 16.984V12.358C48.1555 12.07 48.1615 11.824 48.1735 11.62C48.1855 11.404 48.2095 11.194 48.2455 10.99C48.0295 11.002 47.8135 11.014 47.5975 11.026C47.3815 11.026 47.1655 11.032 46.9495 11.044V10.306H47.5075C48.0235 10.306 48.3955 10.258 48.6235 10.162C48.8635 10.054 49.0495 9.94 49.1815 9.82H49.7035L49.6855 16.624C49.6855 16.816 49.6795 17.086 49.6675 17.434C49.6555 17.782 49.6375 18.076 49.6135 18.316C49.8295 18.304 50.0455 18.292 50.2615 18.28C50.4775 18.268 50.6935 18.256 50.9095 18.244V19H48.3355C48.2995 18.796 48.2695 18.604 48.2455 18.424C48.2335 18.244 48.2215 18.076 48.2095 17.92C47.8375 18.292 47.3875 18.616 46.8595 18.892C46.3315 19.156 45.8035 19.288 45.2755 19.288ZM52.0378 18.46C52.4098 18.46 52.6678 18.37 52.8118 18.19C52.9558 17.998 53.0398 17.74 53.0638 17.416C53.0878 17.08 53.0998 16.696 53.0998 16.264V7.75C53.0998 7.558 53.0998 7.378 53.0998 7.21C53.1118 7.03 53.1298 6.82 53.1538 6.58C52.9378 6.592 52.7218 6.604 52.5058 6.616C52.3018 6.628 52.0918 6.64 51.8758 6.652V5.896C52.4038 5.896 52.8118 5.872 53.0998 5.824C53.3998 5.776 53.6218 5.716 53.7658 5.644C53.9218 5.572 54.0418 5.494 54.1258 5.41H54.6478L54.6658 17.092C54.6658 17.332 54.6598 17.548 54.6478 17.74C54.6358 17.92 54.6118 18.112 54.5758 18.316C54.7678 18.304 54.9538 18.298 55.1338 18.298C55.3258 18.286 55.5178 18.274 55.7098 18.262V19H52.0378V18.46ZM56.9421 18.46C57.3141 18.46 57.5721 18.37 57.7161 18.19C57.8601 17.998 57.9441 17.74 57.9681 17.416C57.9921 17.08 58.0041 16.696 58.0041 16.264V7.75C58.0041 7.558 58.0041 7.378 58.0041 7.21C58.0161 7.03 58.0341 6.82 58.0581 6.58C57.8421 6.592 57.6261 6.604 57.4101 6.616C57.2061 6.628 56.9961 6.64 56.7801 6.652V5.896C57.3081 5.896 57.7161 5.872 58.0041 5.824C58.3041 5.776 58.5261 5.716 58.6701 5.644C58.8261 5.572 58.9461 5.494 59.0301 5.41H59.5521L59.5701 17.092C59.5701 17.332 59.5641 17.548 59.5521 17.74C59.5401 17.92 59.5161 18.112 59.4801 18.316C59.6721 18.304 59.8581 18.298 60.0381 18.298C60.2301 18.286 60.4221 18.274 60.6141 18.262V19H56.9421V18.46ZM71.9298 19.288L64.7478 9.64C64.6398 9.496 64.5318 9.358 64.4238 9.226C64.3278 9.082 64.2258 8.938 64.1178 8.794H64.0998L64.1538 16.498C64.1538 16.798 64.1538 17.098 64.1538 17.398C64.1538 17.698 64.1418 17.992 64.1178 18.28C64.3338 18.268 64.5498 18.256 64.7658 18.244C64.9818 18.232 65.1978 18.22 65.4138 18.208V19H62.1198V18.406C62.4918 18.406 62.7558 18.328 62.9118 18.172C63.0798 18.004 63.1878 17.812 63.2358 17.596C63.2838 17.368 63.3078 17.164 63.3078 16.984L63.3258 8.326C63.3258 8.122 63.3258 7.918 63.3258 7.714C63.3258 7.51 63.3258 7.312 63.3258 7.12C63.1338 7.132 62.9358 7.144 62.7318 7.156C62.5278 7.168 62.3238 7.18 62.1198 7.192V6.4H64.2618L71.0117 15.436C71.1678 15.64 71.3178 15.844 71.4618 16.048C71.6178 16.252 71.7738 16.456 71.9298 16.66H71.9478L71.9658 8.416C71.9658 8.176 71.9718 7.948 71.9838 7.732C71.9958 7.504 72.0078 7.3 72.0198 7.12C71.8038 7.132 71.5878 7.144 71.3718 7.156C71.1558 7.168 70.9398 7.18 70.7238 7.192V6.4H74.0358V6.994C73.5918 7.006 73.2858 7.108 73.1178 7.3C72.9498 7.492 72.8598 7.75 72.8478 8.074C72.8358 8.398 72.8298 8.776 72.8298 9.208L72.7938 19.288H71.9298ZM80.9808 19C80.9448 18.796 80.9208 18.616 80.9088 18.46C80.8968 18.304 80.8788 18.142 80.8548 17.974C80.4468 18.382 80.0028 18.706 79.5228 18.946C79.0548 19.174 78.5568 19.288 78.0288 19.288C77.1168 19.288 76.4388 19.084 75.9948 18.676C75.5508 18.256 75.3288 17.746 75.3288 17.146C75.3288 16.594 75.4968 16.12 75.8328 15.724C76.1808 15.316 76.6248 14.986 77.1648 14.734C77.7168 14.47 78.3108 14.278 78.9468 14.158C79.5948 14.026 80.2188 13.966 80.8188 13.978V12.862C80.8188 12.442 80.7828 12.046 80.7108 11.674C80.6388 11.302 80.4828 10.996 80.2428 10.756C80.0028 10.516 79.6188 10.39 79.0908 10.378C78.7428 10.366 78.3828 10.432 78.0108 10.576C77.6508 10.72 77.3868 10.966 77.2188 11.314C77.3148 11.41 77.3748 11.524 77.3988 11.656C77.4348 11.776 77.4528 11.89 77.4528 11.998C77.4528 12.142 77.3928 12.31 77.2728 12.502C77.1528 12.682 76.9428 12.766 76.6428 12.754C76.3908 12.754 76.1988 12.67 76.0668 12.502C75.9348 12.322 75.8688 12.112 75.8688 11.872C75.8688 11.464 76.0188 11.098 76.3188 10.774C76.6308 10.45 77.0568 10.192 77.5968 10C78.1368 9.808 78.7488 9.712 79.4328 9.712C80.4408 9.712 81.1848 9.982 81.6648 10.522C82.1448 11.05 82.3788 11.89 82.3668 13.042C82.3668 13.486 82.3668 13.936 82.3668 14.392C82.3668 14.836 82.3608 15.286 82.3488 15.742C82.3488 16.186 82.3488 16.636 82.3488 17.092C82.3488 17.284 82.3428 17.476 82.3308 17.668C82.3188 17.86 82.3008 18.076 82.2768 18.316C82.4928 18.304 82.7028 18.292 82.9068 18.28C83.1228 18.268 83.3388 18.256 83.5548 18.244V19H80.9808ZM80.8188 14.59C80.4108 14.602 79.9788 14.656 79.5228 14.752C79.0788 14.836 78.6648 14.968 78.2808 15.148C77.9088 15.328 77.6028 15.568 77.3628 15.868C77.1348 16.156 77.0268 16.51 77.0388 16.93C77.0628 17.374 77.2068 17.71 77.4708 17.938C77.7468 18.154 78.0708 18.262 78.4428 18.262C78.9348 18.262 79.3608 18.172 79.7208 17.992C80.0928 17.8 80.4588 17.536 80.8188 17.2C80.8068 17.068 80.8008 16.924 80.8008 16.768C80.8008 16.612 80.8008 16.45 80.8008 16.282C80.8008 16.222 80.8008 16.03 80.8008 15.706C80.8128 15.382 80.8188 15.01 80.8188 14.59ZM84.79 19V18.46C85.162 18.46 85.42 18.37 85.564 18.19C85.708 17.998 85.792 17.74 85.816 17.416C85.84 17.08 85.852 16.696 85.852 16.264V12.16C85.852 11.968 85.852 11.776 85.852 11.584C85.864 11.392 85.888 11.194 85.924 10.99C85.708 11.002 85.492 11.014 85.276 11.026C85.072 11.038 84.862 11.05 84.646 11.062V10.306C85.174 10.306 85.57 10.282 85.834 10.234C86.11 10.186 86.314 10.126 86.446 10.054C86.578 9.982 86.686 9.904 86.77 9.82H87.292C87.316 9.94 87.328 10.078 87.328 10.234C87.34 10.39 87.352 10.57 87.364 10.774C87.724 10.462 88.138 10.21 88.606 10.018C89.074 9.814 89.542 9.712 90.01 9.712C90.61 9.712 91.114 9.82 91.522 10.036C91.93 10.252 92.248 10.546 92.476 10.918C92.884 10.582 93.352 10.3 93.88 10.072C94.42 9.832 94.948 9.712 95.464 9.712C96.508 9.712 97.276 10.03 97.768 10.666C98.26 11.29 98.494 12.316 98.47 13.744L98.452 17.092C98.452 17.332 98.446 17.548 98.434 17.74C98.434 17.92 98.416 18.112 98.38 18.316C98.572 18.304 98.758 18.298 98.938 18.298C99.13 18.286 99.322 18.274 99.514 18.262V19H95.842V18.46C96.214 18.46 96.472 18.37 96.616 18.19C96.76 17.998 96.844 17.74 96.868 17.416C96.892 17.08 96.904 16.696 96.904 16.264V13.744C96.904 12.712 96.736 11.938 96.4 11.422C96.076 10.906 95.56 10.654 94.852 10.666C94.48 10.666 94.108 10.75 93.736 10.918C93.364 11.086 93.04 11.296 92.764 11.548C92.824 11.74 92.866 11.95 92.89 12.178C92.926 12.394 92.944 12.622 92.944 12.862C92.932 13.558 92.926 14.26 92.926 14.968C92.926 15.676 92.92 16.384 92.908 17.092C92.908 17.332 92.902 17.548 92.89 17.74C92.89 17.92 92.872 18.112 92.836 18.316C93.028 18.304 93.214 18.298 93.394 18.298C93.586 18.286 93.778 18.274 93.97 18.262V19H90.298V18.46C90.67 18.46 90.922 18.37 91.054 18.19C91.198 17.998 91.282 17.74 91.306 17.416C91.342 17.08 91.36 16.696 91.36 16.264L91.378 13.744C91.39 12.712 91.24 11.932 90.928 11.404C90.616 10.876 90.106 10.618 89.398 10.63C89.026 10.63 88.66 10.714 88.3 10.882C87.94 11.038 87.634 11.242 87.382 11.494C87.382 11.638 87.382 11.794 87.382 11.962C87.394 12.118 87.4 12.286 87.4 12.466V17.092C87.4 17.332 87.394 17.548 87.382 17.74C87.382 17.92 87.364 18.112 87.328 18.316C87.52 18.304 87.706 18.298 87.886 18.298C88.078 18.286 88.27 18.274 88.462 18.262V19H84.79ZM105.23 19.288C104.402 19.288 103.652 19.096 102.98 18.712C102.32 18.316 101.798 17.764 101.414 17.056C101.03 16.336 100.838 15.49 100.838 14.518C100.838 13.678 101.024 12.892 101.396 12.16C101.78 11.428 102.314 10.84 102.998 10.396C103.682 9.94 104.474 9.712 105.374 9.712C105.878 9.712 106.346 9.796 106.778 9.964C107.222 10.12 107.612 10.366 107.948 10.702C108.284 11.026 108.548 11.44 108.74 11.944C108.932 12.436 109.028 13.018 109.028 13.69L102.692 13.798C102.692 14.71 102.788 15.514 102.98 16.21C103.184 16.894 103.508 17.428 103.952 17.812C104.396 18.184 104.966 18.37 105.662 18.37C106.034 18.37 106.412 18.304 106.796 18.172C107.192 18.04 107.558 17.86 107.894 17.632C108.23 17.404 108.5 17.152 108.704 16.876L109.136 17.236C108.812 17.74 108.422 18.142 107.966 18.442C107.51 18.742 107.042 18.958 106.562 19.09C106.082 19.222 105.638 19.288 105.23 19.288ZM102.746 13.042H107.336C107.336 12.61 107.27 12.196 107.138 11.8C107.018 11.392 106.814 11.062 106.526 10.81C106.238 10.546 105.86 10.414 105.392 10.414C104.696 10.414 104.114 10.624 103.646 11.044C103.19 11.452 102.89 12.118 102.746 13.042ZM112.088 19.288C111.812 19.288 111.566 19.18 111.35 18.964C111.146 18.736 111.044 18.46 111.044 18.136C111.044 17.812 111.152 17.536 111.368 17.308C111.584 17.08 111.83 16.966 112.106 16.966C112.406 16.966 112.652 17.08 112.844 17.308C113.048 17.536 113.15 17.812 113.15 18.136C113.15 18.46 113.042 18.736 112.826 18.964C112.61 19.18 112.364 19.288 112.088 19.288ZM112.088 12.034C111.812 12.034 111.566 11.926 111.35 11.71C111.146 11.482 111.044 11.206 111.044 10.882C111.044 10.558 111.152 10.282 111.368 10.054C111.584 9.826 111.83 9.712 112.106 9.712C112.406 9.712 112.652 9.826 112.844 10.054C113.048 10.282 113.15 10.558 113.15 10.882C113.15 11.206 113.042 11.482 112.826 11.71C112.61 11.926 112.364 12.034 112.088 12.034Z" fill="#666666"/>
<path d="M23.3334 4.66667H4.66671C3.38337 4.66667 2.34504 5.71667 2.34504 7L2.33337 21C2.33337 22.2833 3.38337 23.3333 4.66671 23.3333H23.3334C24.6167 23.3333 25.6667 22.2833 25.6667 21V7C25.6667 5.71667 24.6167 4.66667 23.3334 4.66667ZM22.8667 9.625L14.6184 14.7817C14.245 15.015 13.755 15.015 13.3817 14.7817L5.13337 9.625C5.01639 9.55933 4.91395 9.47061 4.83224 9.3642C4.75054 9.25779 4.69128 9.13591 4.65805 9.00593C4.62481 8.87596 4.61829 8.74059 4.63889 8.60803C4.65949 8.47546 4.70677 8.34845 4.77787 8.23469C4.84897 8.12092 4.94242 8.02277 5.05255 7.94616C5.16269 7.86956 5.28722 7.8161 5.41862 7.78902C5.55001 7.76193 5.68554 7.7618 5.81699 7.78861C5.94844 7.81542 6.07308 7.86862 6.18337 7.945L14 12.8333L21.8167 7.945C21.927 7.86862 22.0516 7.81542 22.1831 7.78861C22.3145 7.7618 22.4501 7.76193 22.5815 7.78902C22.7129 7.8161 22.8374 7.86956 22.9475 7.94616C23.0577 8.02277 23.1511 8.12092 23.2222 8.23469C23.2933 8.34845 23.3406 8.47546 23.3612 8.60803C23.3818 8.74059 23.3753 8.87596 23.342 9.00593C23.3088 9.13591 23.2495 9.25779 23.1678 9.3642C23.0861 9.47061 22.9837 9.55933 22.8667 9.625Z" fill="#666666"/>
</svg>
