<svg width="310" height="197" viewBox="0 0 310 197" fill="none" xmlns="http://www.w3.org/2000/svg">
<g filter="url(#filter0_d_2050_2)">
<path d="M14.336 129.392C13.056 132.528 12.416 135.456 12.416 138.176C12.416 140.864 12.96 142.848 14.048 144.128C15.168 145.408 16.96 146.048 19.424 146.048C20.896 146.048 22.192 145.52 23.312 144.464C23.664 141.84 23.952 140.096 24.176 139.232C24.72 137.12 25.552 136.064 26.672 136.064C27.568 136.064 28.416 136.688 29.216 137.936C30.016 139.152 30.4 140.192 30.368 141.056C30.368 142.496 29.792 145.168 28.64 149.072C30.88 147.376 33.456 144.864 36.368 141.536C36.784 141.056 37.136 140.816 37.424 140.816C37.872 140.816 38.096 141.344 38.096 142.4C38.096 144.448 37.072 146.64 35.024 148.976C32.976 151.28 30.256 153.12 26.864 154.496C26.608 155.104 26.4 155.68 26.24 156.224C26.08 156.768 25.872 157.424 25.616 158.192C25.36 158.96 24.912 159.792 24.272 160.688C23.632 161.616 22.832 162.4 21.872 163.04C19.824 164.448 17.472 165.152 14.816 165.152C12.192 165.152 9.984 164.56 8.192 163.376C6.432 162.224 5.552 160.624 5.552 158.576C5.552 157.584 6.032 156.768 6.992 156.128C7.952 155.488 9.2 154.928 10.736 154.448C12.272 154 14 153.6 15.92 153.248C17.84 152.896 19.76 152.496 21.68 152.048C21.936 151.312 22.128 150.624 22.256 149.984C21.008 150.944 19.472 151.424 17.648 151.424C13.84 151.424 10.848 150.64 8.672 149.072C6.144 147.248 4.88 144.4 4.88 140.528C4.88 135.472 6.16 130.672 8.72 126.128C7.952 125.232 7.328 124.304 6.848 123.344C6.368 122.352 6.128 121.6 6.128 121.088C6.128 120.192 6.448 119.76 7.088 119.792C7.504 119.792 7.984 120.048 8.528 120.56C9.072 121.072 9.504 121.504 9.824 121.856C10.176 122.208 10.544 122.528 10.928 122.816C12.592 120.704 14.544 118.992 16.784 117.68C19.024 116.368 21.488 115.712 24.176 115.712C26.864 115.712 28.96 116.208 30.464 117.2C31.968 118.192 32.72 119.92 32.72 122.384C32.72 124.848 31.76 126.896 29.84 128.528C27.952 130.16 25.312 130.976 21.92 130.976C19.584 130.976 17.056 130.448 14.336 129.392ZM15.92 126.128C17.68 126.896 19.808 127.28 22.304 127.28C23.84 127.28 25.072 126.864 26 126.032C26.928 125.2 27.392 124.304 27.392 123.344C27.392 122.352 27.072 121.632 26.432 121.184C25.824 120.704 25.008 120.464 23.984 120.464C20.912 120.464 18.224 122.352 15.92 126.128ZM14.288 161.456C16.464 161.456 18.368 159.824 20 156.56C18.24 157.008 16.752 157.36 15.536 157.616C14.32 157.872 13.328 158.096 12.56 158.288C11.824 158.48 11.28 158.672 10.928 158.864C10.608 159.056 10.448 159.328 10.448 159.68C10.448 160.288 10.848 160.72 11.648 160.976C12.48 161.264 13.36 161.424 14.288 161.456ZM119.65 137.408C119.65 136.352 119.042 135.824 117.826 135.824C116.994 135.824 116.066 136.64 115.042 138.272C114.018 139.872 113.282 141.6 112.834 143.456V143.552C112.834 144.64 112.994 145.76 113.314 146.912C113.666 148.064 113.842 148.864 113.842 149.312C113.842 150.4 112.482 151.472 109.762 152.528C109.346 152.688 108.978 152.768 108.658 152.768C107.858 152.768 107.298 152.352 106.978 151.52C106.69 150.688 106.546 149.568 106.546 148.16C106.546 146.72 106.578 145.376 106.642 144.128C106.738 142.848 106.818 141.68 106.882 140.624C106.978 139.536 107.058 138.592 107.122 137.792C107.218 136.96 107.266 136.288 107.266 135.776C107.266 134.688 106.77 134.144 105.778 134.144C104.786 134.144 103.634 135.312 102.322 137.648C101.01 139.952 100.354 141.792 100.354 143.168C100.354 144.512 100.514 145.76 100.834 146.912C101.186 148.064 101.362 148.864 101.362 149.312C101.362 150.4 100.002 151.472 97.2823 152.528C96.8663 152.688 96.4983 152.768 96.1783 152.768C95.3783 152.768 94.8183 152.352 94.4983 151.52C94.2103 150.688 94.0663 149.408 94.0663 147.68C94.0663 143.136 94.2423 139.856 94.5943 137.84C95.0743 134.864 96.1623 132.048 97.8583 129.392C98.4343 128.496 99.0583 128.048 99.7303 128.048C100.786 128.048 101.762 128.912 102.658 130.64C102.914 131.088 103.106 131.504 103.234 131.888C104.77 129.968 106.578 129.008 108.658 129.008C110.034 129.008 111.266 129.472 112.354 130.4C113.442 131.296 113.986 132.432 113.986 133.808V134.336C115.938 131.904 118.322 130.688 121.138 130.688C122.866 130.688 124.178 131.136 125.074 132.032C125.97 132.928 126.418 134.032 126.418 135.344C126.418 136.656 126.322 137.84 126.13 138.896C125.938 139.952 125.714 140.944 125.458 141.872C125.234 142.8 125.026 143.632 124.834 144.368C124.642 145.072 124.546 145.632 124.546 146.048C124.546 146.432 124.674 146.624 124.93 146.624C125.41 146.624 126.002 146.32 126.706 145.712C127.41 145.104 128.114 144.448 128.818 143.744C129.522 143.008 130.162 142.336 130.738 141.728C131.346 141.12 131.762 140.816 131.986 140.816C132.434 140.816 132.658 141.36 132.658 142.448C132.658 144.688 131.522 146.864 129.25 148.976C127.01 151.088 124.61 152.144 122.05 152.144C119.746 152.144 118.594 150.048 118.594 145.856C118.594 144.8 118.77 143.344 119.122 141.488C119.474 139.632 119.65 138.272 119.65 137.408ZM141.421 146.768C143.917 146.768 146.333 145.776 148.669 143.792C149.533 143.056 150.237 142.384 150.781 141.776C151.325 141.136 151.741 140.816 152.029 140.816C152.477 140.816 152.701 141.264 152.701 142.16C152.701 143.056 152.461 144.064 151.981 145.184C151.501 146.272 150.701 147.344 149.581 148.4C146.829 150.992 143.053 152.288 138.253 152.288C134.445 152.288 131.853 150.912 130.477 148.16C129.997 147.2 129.757 145.824 129.757 144.032C129.757 142.24 130.109 140.384 130.813 138.464C131.517 136.512 132.445 134.832 133.597 133.424C134.781 132.016 136.141 130.928 137.677 130.16C139.213 129.36 140.845 128.96 142.573 128.96C144.333 128.96 145.677 129.392 146.605 130.256C147.565 131.12 148.045 132.24 148.045 133.616C148.045 134.992 147.693 136.128 146.989 137.024C146.317 137.888 145.437 138.624 144.349 139.232C143.261 139.808 142.045 140.336 140.701 140.816C139.389 141.264 138.093 141.776 136.813 142.352V143.552C136.845 144.704 137.325 145.52 138.253 146C139.181 146.48 140.237 146.736 141.421 146.768ZM140.605 133.232C138.941 133.232 137.789 135.168 137.149 139.04C137.821 138.592 138.445 138.192 139.021 137.84C139.629 137.488 140.157 137.152 140.605 136.832C141.565 136.128 142.061 135.328 142.093 134.432C142.093 133.632 141.597 133.232 140.605 133.232ZM185.243 140.672C185.787 140.672 186.059 141.408 186.059 142.88C186.059 143.68 185.723 144.656 185.051 145.808C184.379 146.928 183.499 147.968 182.411 148.928C181.355 149.856 180.171 150.624 178.859 151.232C177.547 151.84 176.267 152.144 175.019 152.144C173.131 152.144 171.819 151.68 171.083 150.752C170.379 149.792 170.027 148.4 170.027 146.576C170.027 144.72 170.747 141.552 172.187 137.072C167.771 136.88 164.555 136.784 162.539 136.784H161.867C161.291 140.336 161.003 144.064 161.003 147.968C161.003 149.696 160.347 150.88 159.035 151.52C158.427 151.808 157.835 152.08 157.259 152.336C156.715 152.592 156.123 152.72 155.483 152.72C153.883 152.72 153.083 151.28 153.083 148.4C153.083 145.52 153.739 141.824 155.051 137.312C153.643 137.472 152.395 137.632 151.307 137.792C150.251 137.952 149.419 138.032 148.811 138.032C148.203 138.032 147.899 137.872 147.899 137.552C147.899 136.592 148.683 135.616 150.251 134.624C151.851 133.632 154.011 132.88 156.731 132.368C159.739 124.72 163.419 119.616 167.771 117.056C169.371 116.096 171.067 115.616 172.859 115.616C176.059 115.648 178.363 116.512 179.771 118.208C181.211 119.904 181.931 122.16 181.931 124.976C181.963 127.76 181.115 131.392 179.387 135.872C178.747 137.6 178.155 139.168 177.611 140.576C177.067 141.984 176.795 143.12 176.795 143.984C176.795 144.848 176.859 145.504 176.987 145.952C177.115 146.4 177.419 146.624 177.899 146.624C178.763 146.624 180.795 144.96 183.995 141.632C184.571 140.992 184.987 140.672 185.243 140.672ZM175.019 126.368C175.019 123.584 173.979 122.192 171.899 122.192C169.787 122.192 167.963 123.088 166.427 124.88C164.923 126.64 163.755 129.008 162.923 131.984L173.819 132.128C174.619 129.568 175.019 127.648 175.019 126.368ZM192.746 131.888C194.41 130 196.538 129.056 199.13 129.056C202.842 129.056 205.194 130.56 206.186 133.568C206.474 134.464 206.618 135.456 206.618 136.544C206.618 138.976 205.818 141.376 204.218 143.744C202.65 146.112 200.746 147.712 198.506 148.544H199.082C201.418 148.544 203.786 147.68 206.186 145.952C207.722 144.864 208.922 143.744 209.786 142.592C210.682 141.408 211.354 140.816 211.802 140.816C212.25 140.816 212.474 141.328 212.474 142.352C212.474 144.144 211.706 145.952 210.17 147.776C207.866 150.4 204.922 151.936 201.338 152.384C198.746 152.672 196.906 152.72 195.818 152.528C194.73 152.336 193.898 152.096 193.322 151.808C192.074 151.168 191.45 150.208 191.45 148.928C191.45 148.224 191.594 147.584 191.882 147.008C194.41 147.008 196.33 146.048 197.642 144.128C198.954 142.208 199.61 139.808 199.61 136.928C199.61 136.224 199.354 135.6 198.842 135.056C198.33 134.48 197.642 134.192 196.778 134.192C195.946 134.192 195.034 134.56 194.042 135.296C193.05 136.032 192.25 136.96 191.642 138.08C191.066 139.168 190.538 140.256 190.058 141.344C189.578 142.4 189.194 143.744 188.906 145.376C188.394 148.32 187.802 152.032 187.13 156.512C186.49 161.024 186.09 163.44 185.93 163.76C185.77 164.112 185.53 164.432 185.21 164.72C184.89 165.008 184.554 165.152 184.202 165.152C183.562 165.152 183.034 164.96 182.618 164.576C181.466 163.584 180.794 162.816 180.602 162.272C180.41 161.76 180.314 161.088 180.314 160.256C180.314 157.12 180.842 152.72 181.898 147.056C182.954 141.392 184.778 135.504 187.37 129.392C187.754 128.496 188.426 128.048 189.386 128.048C190.378 128.048 191.322 128.912 192.218 130.64C192.474 131.088 192.65 131.504 192.746 131.888ZM219.137 131.888C220.801 130 222.929 129.056 225.521 129.056C229.233 129.056 231.585 130.56 232.577 133.568C232.865 134.464 233.009 135.456 233.009 136.544C233.009 138.976 232.209 141.376 230.609 143.744C229.041 146.112 227.137 147.712 224.897 148.544H225.473C227.809 148.544 230.177 147.68 232.577 145.952C234.113 144.864 235.313 143.744 236.177 142.592C237.073 141.408 237.745 140.816 238.193 140.816C238.641 140.816 238.865 141.328 238.865 142.352C238.865 144.144 238.097 145.952 236.561 147.776C234.257 150.4 231.313 151.936 227.729 152.384C225.137 152.672 223.297 152.72 222.209 152.528C221.121 152.336 220.289 152.096 219.713 151.808C218.465 151.168 217.841 150.208 217.841 148.928C217.841 148.224 217.985 147.584 218.273 147.008C220.801 147.008 222.721 146.048 224.033 144.128C225.345 142.208 226.001 139.808 226.001 136.928C226.001 136.224 225.745 135.6 225.233 135.056C224.721 134.48 224.033 134.192 223.169 134.192C222.337 134.192 221.425 134.56 220.433 135.296C219.441 136.032 218.641 136.96 218.033 138.08C217.457 139.168 216.929 140.256 216.449 141.344C215.969 142.4 215.585 143.744 215.297 145.376C214.785 148.32 214.193 152.032 213.521 156.512C212.881 161.024 212.481 163.44 212.321 163.76C212.161 164.112 211.921 164.432 211.601 164.72C211.281 165.008 210.945 165.152 210.593 165.152C209.953 165.152 209.425 164.96 209.009 164.576C207.857 163.584 207.185 162.816 206.993 162.272C206.801 161.76 206.705 161.088 206.705 160.256C206.705 157.12 207.233 152.72 208.289 147.056C209.345 141.392 211.169 135.504 213.761 129.392C214.145 128.496 214.817 128.048 215.777 128.048C216.769 128.048 217.713 128.912 218.609 130.64C218.865 131.088 219.041 131.504 219.137 131.888Z" fill="#666666"/>
<path d="M72.125 144.917C73.5287 144.917 74.6667 143.928 74.6667 142.708C74.6667 141.489 73.5287 140.5 72.125 140.5C70.7213 140.5 69.5833 141.489 69.5833 142.708C69.5833 143.928 70.7213 144.917 72.125 144.917Z" fill="#666666"/>
<path d="M77.2083 140.5C78.6121 140.5 79.75 139.511 79.75 138.292C79.75 137.072 78.6121 136.083 77.2083 136.083C75.8046 136.083 74.6667 137.072 74.6667 138.292C74.6667 139.511 75.8046 140.5 77.2083 140.5Z" fill="#666666"/>
<path d="M59.4167 133.875H54.3333V138.292H49.25V142.708H54.3333V147.125H59.4167V142.708H64.5V138.292H59.4167V133.875Z" fill="#666666"/>
<path d="M72.125 125.042H56.875C52.1564 125.042 47.631 126.67 44.2944 129.569C40.9578 132.468 39.0833 136.4 39.0833 140.5C39.0833 144.6 40.9578 148.532 44.2944 151.431C47.631 154.33 52.1564 155.958 56.875 155.958H72.125C76.8436 155.958 81.369 154.33 84.7056 151.431C88.0422 148.532 89.9167 144.6 89.9167 140.5C89.9167 136.4 88.0422 132.468 84.7056 129.569C81.369 126.67 76.8436 125.042 72.125 125.042ZM72.125 151.542H56.875C53.5045 151.542 50.2721 150.378 47.8889 148.308C45.5056 146.237 44.1667 143.428 44.1667 140.5C44.1667 137.572 45.5056 134.763 47.8889 132.692C50.2721 130.622 53.5045 129.458 56.875 129.458H72.125C75.4955 129.458 78.7279 130.622 81.1111 132.692C83.4944 134.763 84.8333 137.572 84.8333 140.5C84.8333 143.428 83.4944 146.237 81.1111 148.308C78.7279 150.378 75.4955 151.542 72.125 151.542Z" fill="#666666"/>
<path d="M220 146.833C219.193 146.833 218.435 146.68 217.725 146.374C217.015 146.067 216.398 145.652 215.873 145.127C215.348 144.602 214.932 143.985 214.626 143.275C214.32 142.565 214.167 141.807 214.167 141C214.167 140.193 214.32 139.435 214.626 138.725C214.933 138.015 215.348 137.398 215.873 136.873C216.398 136.348 217.015 135.932 217.725 135.626C218.435 135.32 219.193 135.167 220 135.167C220.807 135.167 221.565 135.32 222.275 135.626C222.985 135.933 223.602 136.348 224.127 136.873C224.652 137.398 225.068 138.015 225.374 138.725C225.681 139.435 225.834 140.193 225.833 141C225.833 141.807 225.68 142.565 225.374 143.275C225.067 143.985 224.652 144.602 224.127 145.127C223.602 145.652 222.985 146.068 222.275 146.374C221.565 146.681 220.807 146.834 220 146.833Z" fill="#666666"/>
<path d="M252 147.833C251.193 147.833 250.435 147.68 249.725 147.374C249.015 147.067 248.398 146.652 247.873 146.127C247.348 145.602 246.932 144.985 246.626 144.275C246.32 143.565 246.167 142.807 246.167 142C246.167 141.193 246.32 140.435 246.626 139.725C246.933 139.015 247.348 138.398 247.873 137.873C248.398 137.348 249.015 136.932 249.725 136.626C250.435 136.32 251.193 136.167 252 136.167C252.807 136.167 253.565 136.32 254.275 136.626C254.985 136.933 255.602 137.348 256.127 137.873C256.652 138.398 257.068 139.015 257.374 139.725C257.681 140.435 257.834 141.193 257.833 142C257.833 142.807 257.68 143.565 257.374 144.275C257.067 144.985 256.652 145.602 256.127 146.127C255.602 146.652 254.985 147.068 254.275 147.374C253.565 147.681 252.807 147.834 252 147.833Z" fill="#666666"/>
</g>
<g filter="url(#filter1_d_2050_2)">
<path d="M109.836 62.2157L136.98 108.279H82.6918L109.836 62.2157Z" fill="#D9D9D9"/>
<path d="M83.5668 107.779L109.836 63.2006L136.105 107.779H83.5668Z" stroke="black"/>
</g>
<g filter="url(#filter2_d_2050_2)">
<path d="M110.196 61.6274L82.782 15.7471L137.069 15.3824L110.196 61.6274Z" fill="#31363F"/>
<path d="M136.197 15.8883L110.191 60.6426L83.6599 16.2412L136.197 15.8883Z" stroke="black"/>
</g>
<g filter="url(#filter3_d_2050_2)">
<path d="M109.63 61.8164L66.6796 91.0759L66.388 33.0517L109.63 61.8164Z" fill="#EEEEEE"/>
<path d="M66.8928 33.9882L108.735 61.8216L67.1749 90.1337L66.8928 33.9882Z" stroke="black"/>
</g>
<g filter="url(#filter4_d_2050_2)">
<path d="M110.072 62.2791L152.963 32.92L153.373 90.9434L110.072 62.2791Z" fill="#76ABAE"/>
<path d="M152.866 90.0082L110.968 62.2719L152.47 33.8634L152.866 90.0082Z" stroke="black"/>
</g>
<path d="M101.254 24.7865L105.392 25.6916" stroke="#979797" stroke-width="3.43301" stroke-linecap="round"/>
<path d="M105.392 24.7865L101.254 25.6916" stroke="#979797" stroke-width="3.43301" stroke-linecap="round"/>
<path fill-rule="evenodd" clip-rule="evenodd" d="M102.961 23.9291H103.834V29.5754H102.961V23.9291Z" fill="#D8D8D8"/>
<path d="M114.653 24.7865L118.791 25.6916" stroke="#979797" stroke-width="3.43301" stroke-linecap="round"/>
<path d="M118.108 29.5753H102.087C101.765 29.5753 101.504 29.8727 101.504 30.2396C101.504 30.6065 101.765 30.9039 102.087 30.9039H118.108C118.43 30.9039 118.69 30.6065 118.69 30.2396C118.69 29.8727 118.43 29.5753 118.108 29.5753Z" fill="#979797"/>
<path d="M118.791 24.7865L114.653 25.6916" stroke="#979797" stroke-width="3.43301" stroke-linecap="round"/>
<path fill-rule="evenodd" clip-rule="evenodd" d="M116.36 23.9291H117.234V29.5754H116.36V23.9291Z" fill="#D8D8D8"/>
<path d="M105 38.1629V36.2272L107.047 33.893" stroke="#979797" stroke-width="3.43301" stroke-linecap="round"/>
<path d="M114.912 38.1629V36.2272L112.864 33.893" stroke="#979797" stroke-width="3.43301" stroke-linecap="round"/>
<path fill-rule="evenodd" clip-rule="evenodd" d="M106.747 28.9111H113.447V34.5553C113.447 36.5741 112.01 38.2107 110.244 38.2107H109.95C108.181 38.2107 106.747 36.5749 106.747 34.5553V28.9111Z" fill="#22BA8E"/>
<path d="M110.097 36.8822C111.304 36.8822 112.282 35.767 112.282 34.3912C112.282 33.0155 111.304 31.9003 110.097 31.9003C108.891 31.9003 107.913 33.0155 107.913 34.3912C107.913 35.767 108.891 36.8822 110.097 36.8822Z" fill="#5B68C0"/>
<path d="M109.078 33.893C109.399 33.893 109.66 33.5956 109.66 33.2288C109.66 32.8619 109.399 32.5645 109.078 32.5645C108.756 32.5645 108.495 32.8619 108.495 33.2288C108.495 33.5956 108.756 33.893 109.078 33.893Z" fill="white"/>
<path d="M145.284 70.0908V53.2672C145.284 52.923 144.939 52.6441 144.514 52.6441H133.74C133.315 52.6441 132.97 52.923 132.97 53.2672V70.0908C132.97 70.4349 133.315 70.7139 133.74 70.7139H144.514C144.939 70.7139 145.284 70.4349 145.284 70.0908Z" fill="#D8D8D8"/>
<path d="M138.357 69.7793C138.357 70.1234 138.702 70.4024 139.127 70.4024C139.552 70.4024 139.897 70.1234 139.897 69.7793C139.897 69.4351 139.552 69.1562 139.127 69.1562C138.702 69.1562 138.357 69.4351 138.357 69.7793Z" fill="#868686"/>
<path d="M144.514 68.533V53.8903C144.514 53.7182 144.342 53.5787 144.129 53.5787H134.125C133.912 53.5787 133.74 53.7182 133.74 53.8903V68.533C133.74 68.7051 133.912 68.8446 134.125 68.8446H144.129C144.342 68.8446 144.514 68.7051 144.514 68.533Z" fill="#5B68C0"/>
<path d="M137.241 55.448L135.664 56.7252M139.55 55.448L135.902 58.4016" stroke="#5EA7FF" stroke-width="6.45891" stroke-linecap="round"/>
<path fill-rule="evenodd" clip-rule="evenodd" d="M73.2687 65.2502H87.0747V70.8307H73.2687V65.2502Z" fill="#D8D8D8"/>
<path fill-rule="evenodd" clip-rule="evenodd" d="M77.1037 64.2039H83.2397V65.2502H77.1037V64.2039Z" fill="#979797"/>
<path fill-rule="evenodd" clip-rule="evenodd" d="M78.6377 63.1575H81.7057V64.2039H78.6377V63.1575Z" fill="#D8D8D8"/>
<path fill-rule="evenodd" clip-rule="evenodd" d="M74.547 53.0429H85.7964V63.1575H74.547V53.0429Z" fill="#D8D8D8"/>
<path fill-rule="evenodd" clip-rule="evenodd" d="M75.314 54.0892H85.0294V62.1112H75.314V54.0892Z" fill="#595959"/>
<path d="M85.5407 68.738C85.9643 68.738 86.3077 68.2695 86.3077 67.6917C86.3077 67.1138 85.9643 66.6453 85.5407 66.6453C85.1171 66.6453 84.7737 67.1138 84.7737 67.6917C84.7737 68.2695 85.1171 68.738 85.5407 68.738Z" fill="#E43535"/>
<path fill-rule="evenodd" clip-rule="evenodd" d="M74.0357 66.9941H79.149V68.3892H74.0357V66.9941Z" fill="#595959"/>
<path fill-rule="evenodd" clip-rule="evenodd" d="M102.653 89.3354H117.019V98.1846H102.653V89.3354Z" fill="#595959"/>
<path fill-rule="evenodd" clip-rule="evenodd" d="M103.166 89.8411H116.506V97.6789H103.166V89.8411Z" fill="#E8E8E8"/>
<path fill-rule="evenodd" clip-rule="evenodd" d="M101.627 98.1846H118.045V98.8167C118.045 99.1658 117.76 99.4488 117.401 99.4488H102.271C101.915 99.4488 101.627 99.1682 101.627 98.8167V98.1846Z" fill="#4796E7"/>
<path fill-rule="evenodd" clip-rule="evenodd" d="M111.375 95.403C111.375 95.2636 111.492 95.1506 111.632 95.1506H115.48C115.621 95.1506 115.736 95.2657 115.736 95.403V102.23C115.736 102.37 115.619 102.483 115.48 102.483H111.632C111.49 102.483 111.375 102.368 111.375 102.23V95.403Z" fill="#595959"/>
<path fill-rule="evenodd" clip-rule="evenodd" d="M111.632 95.9091H115.48V101.219H111.632V95.9091Z" fill="#B4DFFB"/>
<path fill-rule="evenodd" clip-rule="evenodd" d="M112.658 96.4148H114.453V97.9318H112.658V96.4148Z" fill="#FFAF40"/>
<path fill-rule="evenodd" clip-rule="evenodd" d="M112.658 98.4374H114.453V99.9544H112.658V98.4374Z" fill="#BD7575"/>
<path fill-rule="evenodd" clip-rule="evenodd" d="M112.658 100.46H114.453V101.219H112.658V100.46Z" fill="#80D25B"/>
<path d="M113.556 102.23C113.768 102.23 113.94 102.06 113.94 101.851C113.94 101.641 113.768 101.471 113.556 101.471C113.343 101.471 113.171 101.641 113.171 101.851C113.171 102.06 113.343 102.23 113.556 102.23Z" fill="#868686"/>
<path fill-rule="evenodd" clip-rule="evenodd" d="M103.936 92.1166H107.527V95.1506H103.936V92.1166Z" fill="#FFAF40"/>
<path fill-rule="evenodd" clip-rule="evenodd" d="M108.04 92.1166H111.632V95.1506H108.04V92.1166Z" fill="#BD7575"/>
<path fill-rule="evenodd" clip-rule="evenodd" d="M112.145 92.1166H115.736V95.1506H112.145V92.1166Z" fill="#80D25B"/>
<defs>
<filter id="filter0_d_2050_2" x="0.879997" y="114" width="262.12" height="61" filterUnits="userSpaceOnUse" color-interpolation-filters="sRGB">
<feFlood flood-opacity="0" result="BackgroundImageFix"/>
<feColorMatrix in="SourceAlpha" type="matrix" values="0 0 0 0 0 0 0 0 0 0 0 0 0 0 0 0 0 0 127 0" result="hardAlpha"/>
<feOffset dy="4"/>
<feGaussianBlur stdDeviation="2"/>
<feComposite in2="hardAlpha" operator="out"/>
<feColorMatrix type="matrix" values="0 0 0 0 0 0 0 0 0 0 0 0 0 0 0 0 0 0 0.25 0"/>
<feBlend mode="normal" in2="BackgroundImageFix" result="effect1_dropShadow_2050_2"/>
<feBlend mode="normal" in="SourceGraphic" in2="effect1_dropShadow_2050_2" result="shape"/>
</filter>
<filter id="filter1_d_2050_2" x="78.6918" y="62.2157" width="62.2883" height="54.0635" filterUnits="userSpaceOnUse" color-interpolation-filters="sRGB">
<feFlood flood-opacity="0" result="BackgroundImageFix"/>
<feColorMatrix in="SourceAlpha" type="matrix" values="0 0 0 0 0 0 0 0 0 0 0 0 0 0 0 0 0 0 127 0" result="hardAlpha"/>
<feOffset dy="4"/>
<feGaussianBlur stdDeviation="2"/>
<feComposite in2="hardAlpha" operator="out"/>
<feColorMatrix type="matrix" values="0 0 0 0 0 0 0 0 0 0 0 0 0 0 0 0 0 0 0.25 0"/>
<feBlend mode="normal" in2="BackgroundImageFix" result="effect1_dropShadow_2050_2"/>
<feBlend mode="normal" in="SourceGraphic" in2="effect1_dropShadow_2050_2" result="shape"/>
</filter>
<filter id="filter2_d_2050_2" x="78.782" y="15.3824" width="62.2872" height="54.245" filterUnits="userSpaceOnUse" color-interpolation-filters="sRGB">
<feFlood flood-opacity="0" result="BackgroundImageFix"/>
<feColorMatrix in="SourceAlpha" type="matrix" values="0 0 0 0 0 0 0 0 0 0 0 0 0 0 0 0 0 0 127 0" result="hardAlpha"/>
<feOffset dy="4"/>
<feGaussianBlur stdDeviation="2"/>
<feComposite in2="hardAlpha" operator="out"/>
<feColorMatrix type="matrix" values="0 0 0 0 0 0 0 0 0 0 0 0 0 0 0 0 0 0 0.25 0"/>
<feBlend mode="normal" in2="BackgroundImageFix" result="effect1_dropShadow_2050_2"/>
<feBlend mode="normal" in="SourceGraphic" in2="effect1_dropShadow_2050_2" result="shape"/>
</filter>
<filter id="filter3_d_2050_2" x="62.388" y="33.0517" width="51.2423" height="66.0242" filterUnits="userSpaceOnUse" color-interpolation-filters="sRGB">
<feFlood flood-opacity="0" result="BackgroundImageFix"/>
<feColorMatrix in="SourceAlpha" type="matrix" values="0 0 0 0 0 0 0 0 0 0 0 0 0 0 0 0 0 0 127 0" result="hardAlpha"/>
<feOffset dy="4"/>
<feGaussianBlur stdDeviation="2"/>
<feComposite in2="hardAlpha" operator="out"/>
<feColorMatrix type="matrix" values="0 0 0 0 0 0 0 0 0 0 0 0 0 0 0 0 0 0 0.25 0"/>
<feBlend mode="normal" in2="BackgroundImageFix" result="effect1_dropShadow_2050_2"/>
<feBlend mode="normal" in="SourceGraphic" in2="effect1_dropShadow_2050_2" result="shape"/>
</filter>
<filter id="filter4_d_2050_2" x="106.072" y="32.92" width="51.3006" height="66.0234" filterUnits="userSpaceOnUse" color-interpolation-filters="sRGB">
<feFlood flood-opacity="0" result="BackgroundImageFix"/>
<feColorMatrix in="SourceAlpha" type="matrix" values="0 0 0 0 0 0 0 0 0 0 0 0 0 0 0 0 0 0 127 0" result="hardAlpha"/>
<feOffset dy="4"/>
<feGaussianBlur stdDeviation="2"/>
<feComposite in2="hardAlpha" operator="out"/>
<feColorMatrix type="matrix" values="0 0 0 0 0 0 0 0 0 0 0 0 0 0 0 0 0 0 0.25 0"/>
<feBlend mode="normal" in2="BackgroundImageFix" result="effect1_dropShadow_2050_2"/>
<feBlend mode="normal" in="SourceGraphic" in2="effect1_dropShadow_2050_2" result="shape"/>
</filter>
</defs>
</svg>
