<svg width="192" height="43" viewBox="0 0 192 43" fill="none" xmlns="http://www.w3.org/2000/svg">
<path d="M142.717 2.47087L153.827 5.07922" stroke="#979797" stroke-width="3.43301" stroke-linecap="round"/>
<path d="M153.827 2.47087L142.718 5.07922" stroke="#979797" stroke-width="3.43301" stroke-linecap="round"/>
<path fill-rule="evenodd" clip-rule="evenodd" d="M147.3 0H149.646V16.2713H147.3V0Z" fill="#D8D8D8"/>
<path d="M178.693 2.47087L189.803 5.07922" stroke="#979797" stroke-width="3.43301" stroke-linecap="round"/>
<path d="M187.968 16.2713H144.954C144.09 16.2713 143.389 17.1283 143.389 18.1855C143.389 19.2427 144.09 20.0998 144.954 20.0998H187.968C188.832 20.0998 189.532 19.2427 189.532 18.1855C189.532 17.1283 188.832 16.2713 187.968 16.2713Z" fill="#979797"/>
<path d="M189.803 2.47087L178.693 5.07922" stroke="#979797" stroke-width="3.43301" stroke-linecap="round"/>
<path fill-rule="evenodd" clip-rule="evenodd" d="M183.275 0H185.622V16.2713H183.275V0Z" fill="#D8D8D8"/>
<path d="M152.774 41.0189V35.4408L158.271 28.714" stroke="#979797" stroke-width="3.43301" stroke-linecap="round"/>
<path d="M179.387 41.0189V35.4408L173.89 28.714" stroke="#979797" stroke-width="3.43301" stroke-linecap="round"/>
<path fill-rule="evenodd" clip-rule="evenodd" d="M157.467 14.357H175.455V30.6225C175.455 36.4404 171.596 41.1568 166.856 41.1568H166.066C161.317 41.1568 157.467 36.4426 157.467 30.6225V14.357Z" fill="#22BA8E"/>
<path d="M166.461 37.3282C169.7 37.3282 172.326 34.1143 172.326 30.1497C172.326 26.1852 169.7 22.9712 166.461 22.9712C163.221 22.9712 160.595 26.1852 160.595 30.1497C160.595 34.1143 163.221 37.3282 166.461 37.3282Z" fill="#5B68C0"/>
<path d="M163.723 28.714C164.587 28.714 165.288 27.857 165.288 26.7998C165.288 25.7425 164.587 24.8855 163.723 24.8855C162.86 24.8855 162.159 25.7425 162.159 26.7998C162.159 27.857 162.86 28.714 163.723 28.714Z" fill="white"/>
<path d="M15.93 33L4.2 33.27L2.79 13.5L16.02 13.08L15.93 15.09L9.6 15.84L8.82 22.05L15.21 21.99L15.36 24.69L8.58 24.18L7.77 30.87L16.05 29.91L15.93 33ZM37.4241 13.2L36.1341 33L33.4341 33.45L23.7141 17.37H23.4741L23.5641 33L20.5641 33.15L21.3741 13.5L28.6341 13.05L33.8841 28.02H34.1241L34.4241 13.35L37.4241 13.2ZM40.1355 13.47L55.4655 13.05L55.3755 15.06L51.1755 15.48L49.3155 33.12L46.0155 33.42L44.5155 16.14L40.3155 16.56L40.1355 13.47ZM71.8577 33L60.1277 33.27L58.7177 13.5L71.9477 13.08L71.8577 15.09L65.5277 15.84L64.7477 22.05L71.1377 21.99L71.2877 24.69L64.5077 24.18L63.6977 30.87L71.9777 29.91L71.8577 33ZM83.4218 25.38C83.0618 25.5 82.7718 25.56 82.5518 25.56L81.7418 33.12L78.7418 33.42L77.0318 14.1C78.0918 13.76 79.4918 13.45 81.2318 13.17C82.9918 12.89 84.6718 12.75 86.2718 12.75C88.8318 12.75 90.8818 13.23 92.4218 14.19C92.7818 15.27 92.9618 16.26 92.9618 17.16C92.9618 19.68 91.5118 21.76 88.6118 23.4L93.6518 32.97L91.5518 34.14L83.4218 25.38ZM87.1718 17.97C87.1718 16.55 86.5418 15.46 85.2818 14.7C84.8018 14.7 84.2618 14.8 83.6618 15L82.7618 23.64C84.1418 23.02 85.2218 22.19 86.0018 21.15C86.7818 20.09 87.1718 19.03 87.1718 17.97Z" fill="white"/>
</svg>
