<svg width="103" height="28" viewBox="0 0 103 28" fill="none" xmlns="http://www.w3.org/2000/svg">
<path d="M30.892 19V18.406C31.252 18.406 31.528 18.31 31.72 18.118C31.912 17.926 32.068 17.662 32.188 17.326C32.32 16.99 32.47 16.6 32.638 16.156L36.346 6.058H36.778L40.792 16.3C40.888 16.552 40.996 16.876 41.116 17.272C41.236 17.668 41.284 18.004 41.26 18.28C41.464 18.268 41.668 18.256 41.872 18.244C42.076 18.232 42.28 18.22 42.484 18.208V19H38.362V18.406C38.818 18.394 39.118 18.292 39.262 18.1C39.406 17.908 39.46 17.68 39.424 17.416C39.388 17.152 39.328 16.912 39.244 16.696L38.614 15.004L33.934 15.112L33.304 17.038C33.22 17.326 33.142 17.554 33.07 17.722C33.01 17.89 32.938 18.076 32.854 18.28C33.094 18.268 33.328 18.256 33.556 18.244C33.796 18.232 34.03 18.22 34.258 18.208V19H30.892ZM34.204 14.338H38.362L37.084 10.9C36.952 10.528 36.814 10.162 36.67 9.802C36.538 9.43 36.406 9.058 36.274 8.686H36.238C36.118 9.022 35.992 9.358 35.86 9.694C35.74 10.03 35.614 10.372 35.482 10.72L34.204 14.338ZM46.9116 19.288C46.1796 19.288 45.5196 19.108 44.9316 18.748C44.3436 18.376 43.8756 17.848 43.5276 17.164C43.1916 16.48 43.0236 15.676 43.0236 14.752C43.0236 13.768 43.2216 12.898 43.6176 12.142C44.0136 11.386 44.5596 10.792 45.2556 10.36C45.9636 9.928 46.7616 9.712 47.6496 9.712C48.0456 9.712 48.4356 9.766 48.8196 9.874C49.2156 9.97 49.5276 10.084 49.7556 10.216V7.75C49.7556 7.558 49.7556 7.378 49.7556 7.21C49.7676 7.03 49.7856 6.82 49.8096 6.58C49.5936 6.592 49.3776 6.604 49.1616 6.616C48.9576 6.628 48.7476 6.64 48.5316 6.652V5.896C49.0596 5.896 49.4676 5.872 49.7556 5.824C50.0436 5.776 50.2596 5.716 50.4036 5.644C50.5596 5.572 50.6796 5.494 50.7636 5.41H51.2856V17.092C51.2856 17.284 51.2796 17.476 51.2676 17.668C51.2556 17.86 51.2376 18.076 51.2136 18.316C51.4296 18.304 51.6396 18.292 51.8436 18.28C52.0596 18.268 52.2756 18.256 52.4916 18.244V19H49.9176C49.8816 18.82 49.8516 18.658 49.8276 18.514C49.8156 18.358 49.8036 18.208 49.7916 18.064C49.4556 18.436 49.0416 18.736 48.5496 18.964C48.0576 19.18 47.5116 19.288 46.9116 19.288ZM47.5596 18.406C47.9556 18.406 48.3516 18.292 48.7476 18.064C49.1556 17.836 49.4916 17.554 49.7556 17.218C49.7436 17.074 49.7376 16.924 49.7376 16.768C49.7376 16.6 49.7376 16.42 49.7376 16.228L49.7556 11.044C49.4676 10.828 49.1496 10.672 48.8016 10.576C48.4656 10.468 48.1176 10.414 47.7576 10.414C47.1576 10.414 46.6356 10.588 46.1916 10.936C45.7476 11.284 45.4116 11.77 45.1836 12.394C44.9556 13.018 44.8536 13.75 44.8776 14.59C44.9016 15.322 45.0156 15.976 45.2196 16.552C45.4356 17.128 45.7356 17.584 46.1196 17.92C46.5156 18.244 46.9956 18.406 47.5596 18.406ZM57.6694 19.288C56.9374 19.288 56.2774 19.108 55.6894 18.748C55.1014 18.376 54.6334 17.848 54.2854 17.164C53.9494 16.48 53.7814 15.676 53.7814 14.752C53.7814 13.768 53.9794 12.898 54.3754 12.142C54.7714 11.386 55.3174 10.792 56.0134 10.36C56.7214 9.928 57.5194 9.712 58.4074 9.712C58.8034 9.712 59.1934 9.766 59.5774 9.874C59.9734 9.97 60.2854 10.084 60.5134 10.216V7.75C60.5134 7.558 60.5134 7.378 60.5134 7.21C60.5254 7.03 60.5434 6.82 60.5674 6.58C60.3514 6.592 60.1354 6.604 59.9194 6.616C59.7154 6.628 59.5054 6.64 59.2894 6.652V5.896C59.8174 5.896 60.2254 5.872 60.5134 5.824C60.8014 5.776 61.0174 5.716 61.1614 5.644C61.3174 5.572 61.4374 5.494 61.5214 5.41H62.0434V17.092C62.0434 17.284 62.0374 17.476 62.0254 17.668C62.0134 17.86 61.9954 18.076 61.9714 18.316C62.1874 18.304 62.3974 18.292 62.6014 18.28C62.8174 18.268 63.0334 18.256 63.2494 18.244V19H60.6754C60.6394 18.82 60.6094 18.658 60.5854 18.514C60.5734 18.358 60.5614 18.208 60.5494 18.064C60.2134 18.436 59.7994 18.736 59.3074 18.964C58.8154 19.18 58.2694 19.288 57.6694 19.288ZM58.3174 18.406C58.7134 18.406 59.1094 18.292 59.5054 18.064C59.9134 17.836 60.2494 17.554 60.5134 17.218C60.5014 17.074 60.4954 16.924 60.4954 16.768C60.4954 16.6 60.4954 16.42 60.4954 16.228L60.5134 11.044C60.2254 10.828 59.9074 10.672 59.5594 10.576C59.2234 10.468 58.8754 10.414 58.5154 10.414C57.9154 10.414 57.3934 10.588 56.9494 10.936C56.5054 11.284 56.1694 11.77 55.9414 12.394C55.7134 13.018 55.6114 13.75 55.6354 14.59C55.6594 15.322 55.7734 15.976 55.9774 16.552C56.1934 17.128 56.4934 17.584 56.8774 17.92C57.2734 18.244 57.7534 18.406 58.3174 18.406ZM64.5752 18.46C64.9472 18.46 65.2052 18.37 65.3492 18.19C65.4932 17.998 65.5772 17.74 65.6012 17.416C65.6252 17.08 65.6372 16.696 65.6372 16.264V12.16C65.6372 11.968 65.6372 11.776 65.6372 11.584C65.6492 11.392 65.6732 11.194 65.7092 10.99C65.4932 11.002 65.2772 11.014 65.0612 11.026C64.8572 11.026 64.6472 11.032 64.4312 11.044V10.306H64.9892C65.5052 10.306 65.8592 10.258 66.0512 10.162C66.2552 10.054 66.4232 9.94 66.5552 9.82H67.0772C67.1012 10.012 67.1192 10.252 67.1312 10.54C67.1432 10.816 67.1552 11.17 67.1672 11.602C67.3472 11.302 67.5932 11.008 67.9052 10.72C68.2172 10.432 68.5652 10.192 68.9492 10C69.3452 9.808 69.7592 9.712 70.1912 9.712C70.5272 9.712 70.8212 9.802 71.0732 9.982C71.3252 10.162 71.4512 10.45 71.4512 10.846C71.4512 10.942 71.4212 11.062 71.3612 11.206C71.3012 11.338 71.2052 11.458 71.0732 11.566C70.9412 11.662 70.7672 11.71 70.5512 11.71C70.2872 11.698 70.0772 11.596 69.9212 11.404C69.7652 11.2 69.7052 10.966 69.7412 10.702C69.4412 10.69 69.1292 10.768 68.8052 10.936C68.4932 11.104 68.1992 11.338 67.9232 11.638C67.6472 11.926 67.4012 12.268 67.1852 12.664L67.2032 17.092C67.2032 17.332 67.1972 17.548 67.1852 17.74C67.1852 17.92 67.1672 18.112 67.1312 18.316C67.3232 18.304 67.5092 18.298 67.6892 18.298C67.8812 18.286 68.0732 18.274 68.2652 18.262V19H64.5752V18.46ZM76.5953 19.288C75.7673 19.288 75.0173 19.096 74.3453 18.712C73.6853 18.316 73.1633 17.764 72.7793 17.056C72.3953 16.336 72.2033 15.49 72.2033 14.518C72.2033 13.678 72.3893 12.892 72.7613 12.16C73.1453 11.428 73.6793 10.84 74.3633 10.396C75.0473 9.94 75.8393 9.712 76.7393 9.712C77.2433 9.712 77.7113 9.796 78.1433 9.964C78.5873 10.12 78.9773 10.366 79.3133 10.702C79.6493 11.026 79.9133 11.44 80.1053 11.944C80.2973 12.436 80.3933 13.018 80.3933 13.69L74.0573 13.798C74.0573 14.71 74.1533 15.514 74.3453 16.21C74.5493 16.894 74.8733 17.428 75.3173 17.812C75.7613 18.184 76.3313 18.37 77.0273 18.37C77.3993 18.37 77.7773 18.304 78.1613 18.172C78.5573 18.04 78.9233 17.86 79.2593 17.632C79.5953 17.404 79.8653 17.152 80.0693 16.876L80.5013 17.236C80.1773 17.74 79.7873 18.142 79.3313 18.442C78.8753 18.742 78.4073 18.958 77.9273 19.09C77.4473 19.222 77.0033 19.288 76.5953 19.288ZM74.1113 13.042H78.7013C78.7013 12.61 78.6353 12.196 78.5033 11.8C78.3833 11.392 78.1793 11.062 77.8913 10.81C77.6033 10.546 77.2253 10.414 76.7573 10.414C76.0613 10.414 75.4793 10.624 75.0113 11.044C74.5553 11.452 74.2553 12.118 74.1113 13.042ZM85.6851 19.288C85.0851 19.288 84.5511 19.204 84.0831 19.036C83.6151 18.88 83.2311 18.7 82.9311 18.496L83.0031 19.126H82.2471L82.1391 16.03H82.6971C82.7211 16.522 82.8591 16.966 83.1111 17.362C83.3631 17.746 83.6871 18.046 84.0831 18.262C84.4791 18.478 84.9051 18.586 85.3611 18.586C85.6731 18.586 85.9791 18.538 86.2791 18.442C86.5791 18.334 86.8311 18.178 87.0351 17.974C87.2391 17.758 87.3411 17.488 87.3411 17.164C87.3411 16.828 87.2391 16.552 87.0351 16.336C86.8431 16.108 86.5851 15.91 86.2611 15.742C85.9371 15.574 85.5891 15.418 85.2171 15.274C84.8571 15.13 84.4971 14.98 84.1371 14.824C83.7771 14.668 83.4411 14.482 83.1291 14.266C82.8291 14.05 82.5891 13.786 82.4091 13.474C82.2291 13.162 82.1391 12.778 82.1391 12.322C82.1391 12.07 82.1871 11.794 82.2831 11.494C82.3791 11.194 82.5411 10.912 82.7691 10.648C82.9971 10.372 83.3091 10.15 83.7051 9.982C84.1011 9.802 84.6051 9.712 85.2171 9.712C85.5411 9.712 85.9011 9.766 86.2971 9.874C86.6931 9.982 87.0771 10.186 87.4491 10.486L87.4131 9.802H88.1691V12.952H87.5931C87.5691 12.532 87.4731 12.13 87.3051 11.746C87.1371 11.35 86.8911 11.026 86.5671 10.774C86.2431 10.51 85.8231 10.378 85.3071 10.378C84.7551 10.378 84.3231 10.516 84.0111 10.792C83.6991 11.068 83.5431 11.386 83.5431 11.746C83.5431 12.118 83.6571 12.43 83.8851 12.682C84.1251 12.922 84.4311 13.132 84.8031 13.312C85.1751 13.492 85.5711 13.666 85.9911 13.834C86.4471 14.026 86.8911 14.236 87.3231 14.464C87.7551 14.692 88.1091 14.98 88.3851 15.328C88.6611 15.664 88.7991 16.102 88.7991 16.642C88.7991 17.242 88.6431 17.74 88.3311 18.136C88.0311 18.532 87.6411 18.82 87.1611 19C86.6931 19.192 86.2011 19.288 85.6851 19.288ZM94.0172 19.288C93.4172 19.288 92.8832 19.204 92.4152 19.036C91.9472 18.88 91.5632 18.7 91.2632 18.496L91.3352 19.126H90.5792L90.4712 16.03H91.0292C91.0532 16.522 91.1912 16.966 91.4432 17.362C91.6952 17.746 92.0192 18.046 92.4152 18.262C92.8112 18.478 93.2372 18.586 93.6932 18.586C94.0052 18.586 94.3112 18.538 94.6112 18.442C94.9112 18.334 95.1632 18.178 95.3672 17.974C95.5712 17.758 95.6732 17.488 95.6732 17.164C95.6732 16.828 95.5712 16.552 95.3672 16.336C95.1752 16.108 94.9172 15.91 94.5932 15.742C94.2692 15.574 93.9212 15.418 93.5492 15.274C93.1892 15.13 92.8292 14.98 92.4692 14.824C92.1092 14.668 91.7732 14.482 91.4612 14.266C91.1612 14.05 90.9212 13.786 90.7412 13.474C90.5612 13.162 90.4712 12.778 90.4712 12.322C90.4712 12.07 90.5192 11.794 90.6152 11.494C90.7112 11.194 90.8732 10.912 91.1012 10.648C91.3292 10.372 91.6412 10.15 92.0372 9.982C92.4332 9.802 92.9372 9.712 93.5492 9.712C93.8732 9.712 94.2332 9.766 94.6292 9.874C95.0252 9.982 95.4092 10.186 95.7812 10.486L95.7452 9.802H96.5012V12.952H95.9252C95.9012 12.532 95.8052 12.13 95.6372 11.746C95.4692 11.35 95.2232 11.026 94.8992 10.774C94.5752 10.51 94.1552 10.378 93.6392 10.378C93.0872 10.378 92.6552 10.516 92.3432 10.792C92.0312 11.068 91.8752 11.386 91.8752 11.746C91.8752 12.118 91.9892 12.43 92.2172 12.682C92.4572 12.922 92.7632 13.132 93.1352 13.312C93.5072 13.492 93.9032 13.666 94.3232 13.834C94.7792 14.026 95.2232 14.236 95.6552 14.464C96.0872 14.692 96.4412 14.98 96.7172 15.328C96.9932 15.664 97.1312 16.102 97.1312 16.642C97.1312 17.242 96.9752 17.74 96.6632 18.136C96.3632 18.532 95.9732 18.82 95.4932 19C95.0252 19.192 94.5332 19.288 94.0172 19.288ZM100.117 19.288C99.8412 19.288 99.5952 19.18 99.3792 18.964C99.1752 18.736 99.0732 18.46 99.0732 18.136C99.0732 17.812 99.1812 17.536 99.3972 17.308C99.6132 17.08 99.8592 16.966 100.135 16.966C100.435 16.966 100.681 17.08 100.873 17.308C101.077 17.536 101.179 17.812 101.179 18.136C101.179 18.46 101.071 18.736 100.855 18.964C100.639 19.18 100.393 19.288 100.117 19.288ZM100.117 12.034C99.8412 12.034 99.5952 11.926 99.3792 11.71C99.1752 11.482 99.0732 11.206 99.0732 10.882C99.0732 10.558 99.1812 10.282 99.3972 10.054C99.6132 9.826 99.8592 9.712 100.135 9.712C100.435 9.712 100.681 9.826 100.873 10.054C101.077 10.282 101.179 10.558 101.179 10.882C101.179 11.206 101.071 11.482 100.855 11.71C100.639 11.926 100.393 12.034 100.117 12.034Z" fill="#666666"/>
<path d="M23.3334 4.66666H4.66671C3.38337 4.66666 2.34504 5.71666 2.34504 6.99999L2.33337 21C2.33337 22.2833 3.38337 23.3333 4.66671 23.3333H23.3334C24.6167 23.3333 25.6667 22.2833 25.6667 21V6.99999C25.6667 5.71666 24.6167 4.66666 23.3334 4.66666ZM22.8667 9.62499L14.6184 14.7817C14.245 15.015 13.755 15.015 13.3817 14.7817L5.13337 9.62499C5.01639 9.55932 4.91395 9.47059 4.83224 9.36419C4.75054 9.25778 4.69128 9.1359 4.65805 9.00592C4.62481 8.87595 4.61829 8.74058 4.63889 8.60801C4.65949 8.47545 4.70677 8.34844 4.77787 8.23467C4.84897 8.12091 4.94242 8.02275 5.05255 7.94615C5.16269 7.86955 5.28722 7.81609 5.41862 7.789C5.55001 7.76192 5.68554 7.76178 5.81699 7.7886C5.94844 7.81541 6.07308 7.86861 6.18337 7.94499L14 12.8333L21.8167 7.94499C21.927 7.86861 22.0516 7.81541 22.1831 7.7886C22.3145 7.76178 22.4501 7.76192 22.5815 7.789C22.7129 7.81609 22.8374 7.86955 22.9475 7.94615C23.0577 8.02275 23.1511 8.12091 23.2222 8.23467C23.2933 8.34844 23.3406 8.47545 23.3612 8.60801C23.3818 8.74058 23.3753 8.87595 23.342 9.00592C23.3088 9.1359 23.2495 9.25778 23.1678 9.36419C23.0861 9.47059 22.9837 9.55932 22.8667 9.62499Z" fill="#666666"/>
</svg>
