<svg width="108" height="30" viewBox="0 0 108 30" fill="none" xmlns="http://www.w3.org/2000/svg">
<path d="M39.88 19.16H34.06L33.06 22H30.68L35.66 8.08H38.3L43.28 22H40.88L39.88 19.16ZM39.24 17.3L36.98 10.84L34.7 17.3H39.24ZM47.7253 12.58C48.0586 12.02 48.4986 11.5867 49.0453 11.28C49.6053 10.96 50.2653 10.8 51.0253 10.8V13.16H50.4453C49.552 13.16 48.872 13.3867 48.4053 13.84C47.952 14.2933 47.7253 15.08 47.7253 16.2V22H45.4453V10.98H47.7253V12.58ZM52.3611 16.48C52.3611 15.3467 52.5878 14.3533 53.0411 13.5C53.5078 12.6333 54.1478 11.9667 54.9611 11.5C55.7744 11.0333 56.7078 10.8 57.7611 10.8C59.0944 10.8 60.1944 11.12 61.0611 11.76C61.9411 12.3867 62.5344 13.2867 62.8411 14.46H60.3811C60.1811 13.9133 59.8611 13.4867 59.4211 13.18C58.9811 12.8733 58.4278 12.72 57.7611 12.72C56.8278 12.72 56.0811 13.0533 55.5211 13.72C54.9744 14.3733 54.7011 15.2933 54.7011 16.48C54.7011 17.6667 54.9744 18.5933 55.5211 19.26C56.0811 19.9267 56.8278 20.26 57.7611 20.26C59.0811 20.26 59.9544 19.68 60.3811 18.52H62.8411C62.5211 19.64 61.9211 20.5333 61.0411 21.2C60.1611 21.8533 59.0678 22.18 57.7611 22.18C56.7078 22.18 55.7744 21.9467 54.9611 21.48C54.1478 21 53.5078 20.3333 53.0411 19.48C52.5878 18.6133 52.3611 17.6133 52.3611 16.48ZM64.3533 16.44C64.3533 15.3333 64.5799 14.3533 65.0333 13.5C65.4999 12.6467 66.1266 11.9867 66.9133 11.52C67.7133 11.04 68.5933 10.8 69.5533 10.8C70.4199 10.8 71.1733 10.9733 71.8133 11.32C72.4666 11.6533 72.9866 12.0733 73.3733 12.58V10.98H75.6733V22H73.3733V20.36C72.9866 20.88 72.4599 21.3133 71.7933 21.66C71.1266 22.0067 70.3666 22.18 69.5133 22.18C68.5666 22.18 67.6999 21.94 66.9133 21.46C66.1266 20.9667 65.4999 20.2867 65.0333 19.42C64.5799 18.54 64.3533 17.5467 64.3533 16.44ZM73.3733 16.48C73.3733 15.72 73.2133 15.06 72.8933 14.5C72.5866 13.94 72.1799 13.5133 71.6733 13.22C71.1666 12.9267 70.6199 12.78 70.0333 12.78C69.4466 12.78 68.8999 12.9267 68.3933 13.22C67.8866 13.5 67.4733 13.92 67.1533 14.48C66.8466 15.0267 66.6933 15.68 66.6933 16.44C66.6933 17.2 66.8466 17.8667 67.1533 18.44C67.4733 19.0133 67.8866 19.4533 68.3933 19.76C68.9133 20.0533 69.4599 20.2 70.0333 20.2C70.6199 20.2 71.1666 20.0533 71.6733 19.76C72.1799 19.4667 72.5866 19.04 72.8933 18.48C73.2133 17.9067 73.3733 17.24 73.3733 16.48ZM77.908 16.44C77.908 15.3333 78.1346 14.3533 78.588 13.5C79.0546 12.6467 79.6813 11.9867 80.468 11.52C81.268 11.04 82.1546 10.8 83.128 10.8C83.848 10.8 84.5546 10.96 85.248 11.28C85.9546 11.5867 86.5146 12 86.928 12.52V7.2H89.228V22H86.928V20.34C86.5546 20.8733 86.0346 21.3133 85.368 21.66C84.7146 22.0067 83.9613 22.18 83.108 22.18C82.148 22.18 81.268 21.94 80.468 21.46C79.6813 20.9667 79.0546 20.2867 78.588 19.42C78.1346 18.54 77.908 17.5467 77.908 16.44ZM86.928 16.48C86.928 15.72 86.768 15.06 86.448 14.5C86.1413 13.94 85.7346 13.5133 85.228 13.22C84.7213 12.9267 84.1746 12.78 83.588 12.78C83.0013 12.78 82.4546 12.9267 81.948 13.22C81.4413 13.5 81.028 13.92 80.708 14.48C80.4013 15.0267 80.248 15.68 80.248 16.44C80.248 17.2 80.4013 17.8667 80.708 18.44C81.028 19.0133 81.4413 19.4533 81.948 19.76C82.468 20.0533 83.0146 20.2 83.588 20.2C84.1746 20.2 84.7213 20.0533 85.228 19.76C85.7346 19.4667 86.1413 19.04 86.448 18.48C86.768 17.9067 86.928 17.24 86.928 16.48ZM102.323 16.22C102.323 16.6333 102.296 17.0067 102.243 17.34H93.8227C93.8893 18.22 94.216 18.9267 94.8027 19.46C95.3893 19.9933 96.1093 20.26 96.9627 20.26C98.1893 20.26 99.056 19.7467 99.5627 18.72H102.023C101.689 19.7333 101.083 20.5667 100.203 21.22C99.336 21.86 98.256 22.18 96.9627 22.18C95.9093 22.18 94.9627 21.9467 94.1227 21.48C93.296 21 92.6427 20.3333 92.1627 19.48C91.696 18.6133 91.4627 17.6133 91.4627 16.48C91.4627 15.3467 91.6893 14.3533 92.1427 13.5C92.6093 12.6333 93.256 11.9667 94.0827 11.5C94.9227 11.0333 95.8827 10.8 96.9627 10.8C98.0027 10.8 98.9293 11.0267 99.7427 11.48C100.556 11.9333 101.189 12.5733 101.643 13.4C102.096 14.2133 102.323 15.1533 102.323 16.22ZM99.9427 15.5C99.9293 14.66 99.6293 13.9867 99.0427 13.48C98.456 12.9733 97.7293 12.72 96.8627 12.72C96.076 12.72 95.4027 12.9733 94.8427 13.48C94.2827 13.9733 93.9493 14.6467 93.8427 15.5H99.9427ZM105.486 22.14C105.073 22.14 104.726 22 104.446 21.72C104.166 21.44 104.026 21.0933 104.026 20.68C104.026 20.2667 104.166 19.92 104.446 19.64C104.726 19.36 105.073 19.22 105.486 19.22C105.886 19.22 106.226 19.36 106.506 19.64C106.786 19.92 106.926 20.2667 106.926 20.68C106.926 21.0933 106.786 21.44 106.506 21.72C106.226 22 105.886 22.14 105.486 22.14ZM105.486 13.74C105.073 13.74 104.726 13.6 104.446 13.32C104.166 13.04 104.026 12.6933 104.026 12.28C104.026 11.8667 104.166 11.52 104.446 11.24C104.726 10.96 105.073 10.82 105.486 10.82C105.886 10.82 106.226 10.96 106.506 11.24C106.786 11.52 106.926 11.8667 106.926 12.28C106.926 12.6933 106.786 13.04 106.506 13.32C106.226 13.6 105.886 13.74 105.486 13.74Z" fill="black"/>
<path d="M15 17C15.5523 17 16 16.5523 16 16C16 15.4477 15.5523 15 15 15C14.4477 15 14 15.4477 14 16C14 16.5523 14.4477 17 15 17Z" fill="black"/>
<path d="M17 15C17.5523 15 18 14.5523 18 14C18 13.4477 17.5523 13 17 13C16.4477 13 16 13.4477 16 14C16 14.5523 16.4477 15 17 15Z" fill="black"/>
<path d="M10 12H8V14H6V16H8V18H10V16H12V14H10V12Z" fill="black"/>
<path d="M15 8H9C7.14348 8 5.36301 8.7375 4.05025 10.0503C2.7375 11.363 2 13.1435 2 15C2 16.8565 2.7375 18.637 4.05025 19.9497C5.36301 21.2625 7.14348 22 9 22H15C16.8565 22 18.637 21.2625 19.9497 19.9497C21.2625 18.637 22 16.8565 22 15C22 13.1435 21.2625 11.363 19.9497 10.0503C18.637 8.7375 16.8565 8 15 8ZM15 20H9C7.67392 20 6.40215 19.4732 5.46447 18.5355C4.52678 17.5979 4 16.3261 4 15C4 13.6739 4.52678 12.4021 5.46447 11.4645C6.40215 10.5268 7.67392 10 9 10H15C16.3261 10 17.5979 10.5268 18.5355 11.4645C19.4732 12.4021 20 13.6739 20 15C20 16.3261 19.4732 17.5979 18.5355 18.5355C17.5979 19.4732 16.3261 20 15 20Z" fill="black"/>
</svg>
