<svg width="94" height="37" viewBox="0 0 94 37" fill="none" xmlns="http://www.w3.org/2000/svg">
<path d="M0.908 27V25.416C1.7 25.368 2.264 25.2 2.6 24.912C2.96 24.624 3.188 24.192 3.284 23.616C3.38 23.04 3.428 22.308 3.428 21.42V6.444C3.428 5.916 3.44 5.412 3.464 4.932C3.488 4.428 3.512 3.996 3.536 3.636C3.128 3.66 2.684 3.684 2.204 3.708C1.724 3.732 1.292 3.756 0.908 3.78V1.8H9.764V3.384C8.996 3.408 8.432 3.576 8.072 3.888C7.712 4.176 7.484 4.608 7.388 5.184C7.292 5.736 7.244 6.468 7.244 7.38V22.284C7.244 22.932 7.232 23.508 7.208 24.012C7.208 24.492 7.184 24.888 7.136 25.2L13.22 25.128C14.708 25.104 15.848 24.624 16.64 23.688C17.432 22.728 17.828 21.216 17.828 19.152H19.448L19.232 27H0.908ZM30.5689 27.576C28.8649 27.576 27.3289 27.192 25.9609 26.424C24.5929 25.656 23.5009 24.588 22.6849 23.22C21.8929 21.828 21.4969 20.232 21.4969 18.432C21.4969 16.488 21.8929 14.772 22.6849 13.284C23.5009 11.772 24.5929 10.584 25.9609 9.72C27.3289 8.856 28.8529 8.424 30.5329 8.424C32.2369 8.424 33.7729 8.82 35.1409 9.612C36.5089 10.38 37.5889 11.46 38.3809 12.852C39.1969 14.22 39.6049 15.804 39.6049 17.604C39.6049 19.5 39.2089 21.204 38.4169 22.716C37.6249 24.228 36.5449 25.416 35.1769 26.28C33.8329 27.144 32.2969 27.576 30.5689 27.576ZM30.8209 25.776C31.9729 25.752 32.8729 25.392 33.5209 24.696C34.1929 24 34.6729 23.112 34.9609 22.032C35.2489 20.928 35.3929 19.788 35.3929 18.612C35.3929 17.58 35.2969 16.572 35.1049 15.588C34.9369 14.58 34.6609 13.668 34.2769 12.852C33.8929 12.036 33.3889 11.388 32.7649 10.908C32.1409 10.404 31.3849 10.164 30.4969 10.188C29.3689 10.188 28.4449 10.536 27.7249 11.232C27.0289 11.928 26.5129 12.828 26.1769 13.932C25.8649 15.012 25.7089 16.164 25.7089 17.388C25.7089 18.804 25.8889 20.148 26.2489 21.42C26.6089 22.692 27.1609 23.736 27.9049 24.552C28.6729 25.368 29.6449 25.776 30.8209 25.776ZM50.8766 36.756C48.7646 36.756 47.0606 36.516 45.7646 36.036C44.4926 35.58 43.5686 34.98 42.9926 34.236C42.4406 33.516 42.1646 32.748 42.1646 31.932C42.1646 31.284 42.3086 30.684 42.5966 30.132C42.9086 29.58 43.3166 29.088 43.8206 28.656C44.3246 28.248 44.8886 27.924 45.5126 27.684C44.6726 27.42 44.0366 27.048 43.6046 26.568C43.1726 26.064 42.9566 25.452 42.9566 24.732C42.9566 23.964 43.2566 23.208 43.8566 22.464C44.4806 21.72 45.3686 21.216 46.5206 20.952C45.4406 20.472 44.5766 19.776 43.9286 18.864C43.2806 17.952 42.9446 16.872 42.9206 15.624C42.8966 14.184 43.2566 12.924 44.0006 11.844C44.7686 10.764 45.7406 9.924 46.9166 9.324C48.1166 8.724 49.3646 8.424 50.6606 8.424C51.4046 8.424 52.1726 8.532 52.9646 8.748C53.7566 8.94 54.4766 9.252 55.1246 9.684C55.3886 8.988 55.7366 8.352 56.1686 7.776C56.6006 7.2 57.1046 6.744 57.6806 6.408C58.2806 6.072 58.9046 5.904 59.5526 5.904C60.2486 5.904 60.7766 6.084 61.1366 6.444C61.4966 6.804 61.6766 7.284 61.6766 7.884C61.6766 8.076 61.6166 8.316 61.4966 8.604C61.4006 8.868 61.2206 9.096 60.9566 9.288C60.6926 9.48 60.3326 9.576 59.8766 9.576C59.4926 9.576 59.1446 9.456 58.8326 9.216C58.5446 8.952 58.3646 8.64 58.2926 8.28C57.7886 8.376 57.3686 8.676 57.0326 9.18C56.7206 9.66 56.5166 10.152 56.4206 10.656C57.0446 11.208 57.5246 11.868 57.8606 12.636C58.2206 13.38 58.4006 14.184 58.4006 15.048C58.4006 16.416 58.0286 17.628 57.2846 18.684C56.5646 19.74 55.6166 20.568 54.4406 21.168C53.2646 21.768 51.9926 22.068 50.6246 22.068C50.2166 22.068 49.8326 22.044 49.4726 21.996C49.1126 21.924 48.7166 21.888 48.2846 21.888C47.5166 21.888 46.8806 22.068 46.3766 22.428C45.8966 22.788 45.7166 23.22 45.8366 23.724C45.9566 24.252 46.4606 24.6 47.3486 24.768C48.2366 24.936 49.5206 25.056 51.2006 25.128C53.0486 25.2 54.6326 25.428 55.9526 25.812C57.2966 26.172 58.3286 26.736 59.0486 27.504C59.7926 28.272 60.1646 29.316 60.1646 30.636C60.1646 31.62 59.8886 32.496 59.3366 33.264C58.8086 34.032 58.0886 34.668 57.1766 35.172C56.2886 35.7 55.2926 36.096 54.1886 36.36C53.0846 36.624 51.9806 36.756 50.8766 36.756ZM51.2006 34.992C53.1446 34.992 54.6446 34.632 55.7006 33.912C56.7806 33.192 57.3206 32.376 57.3206 31.464C57.3206 30.696 57.0566 30.096 56.5286 29.664C56.0006 29.256 55.2566 28.956 54.2966 28.764C53.3606 28.596 52.2566 28.5 50.9846 28.476C50.3606 28.428 49.7246 28.392 49.0766 28.368C48.4286 28.344 47.8286 28.284 47.2766 28.188C46.7246 28.572 46.2926 29.04 45.9806 29.592C45.6926 30.144 45.5366 30.72 45.5126 31.32C45.5126 32.424 46.0286 33.312 47.0606 33.984C48.0926 34.656 49.4726 34.992 51.2006 34.992ZM50.7326 20.376C51.5486 20.376 52.2206 20.172 52.7486 19.764C53.3006 19.332 53.7086 18.768 53.9726 18.072C54.2606 17.352 54.4046 16.572 54.4046 15.732C54.4046 14.748 54.2606 13.824 53.9726 12.96C53.6846 12.096 53.2646 11.4 52.7126 10.872C52.1606 10.344 51.4526 10.08 50.5886 10.08C49.4126 10.08 48.5006 10.548 47.8526 11.484C47.2046 12.42 46.8806 13.548 46.8806 14.868C46.8806 15.924 47.0246 16.872 47.3126 17.712C47.6246 18.528 48.0686 19.176 48.6446 19.656C49.2206 20.136 49.9166 20.376 50.7326 20.376ZM63.2668 25.488C63.9868 25.488 64.4908 25.32 64.7788 24.984C65.0668 24.648 65.2348 24.18 65.2828 23.58C65.3548 22.98 65.3908 22.284 65.3908 21.492V14.04C65.3908 13.632 65.4028 13.224 65.4268 12.816C65.4508 12.384 65.4868 11.928 65.5348 11.448C65.1268 11.472 64.6948 11.496 64.2388 11.52C63.7828 11.52 63.3628 11.532 62.9788 11.556V9.648C64.0588 9.648 64.9108 9.6 65.5348 9.504C66.1828 9.384 66.6748 9.252 67.0107 9.108C67.3708 8.964 67.6348 8.808 67.8028 8.64H69.1708V22.536C69.1708 22.968 69.1588 23.412 69.1348 23.868C69.1108 24.3 69.0748 24.744 69.0268 25.2C69.4108 25.176 69.7948 25.164 70.1788 25.164C70.5868 25.14 70.9588 25.116 71.2948 25.092V27H63.2668V25.488ZM67.1188 5.328C66.4948 5.328 65.9668 5.1 65.5348 4.644C65.1028 4.164 64.8868 3.588 64.8868 2.916C64.8868 2.244 65.1148 1.68 65.5708 1.224C66.0268 0.743998 66.5428 0.503998 67.1188 0.503998C67.7428 0.503998 68.2588 0.743998 68.6668 1.224C69.0988 1.68 69.3148 2.244 69.3148 2.916C69.3148 3.588 69.0988 4.164 68.6668 4.644C68.2588 5.1 67.7428 5.328 67.1188 5.328ZM73.9191 27V25.488C74.6391 25.488 75.1431 25.32 75.4311 24.984C75.7191 24.648 75.8871 24.18 75.9351 23.58C76.0071 22.98 76.0431 22.284 76.0431 21.492L76.0791 14.004C76.0791 13.62 76.0791 13.212 76.0791 12.78C76.1031 12.324 76.1511 11.88 76.2231 11.448C75.7911 11.472 75.3471 11.496 74.8911 11.52C74.4591 11.52 74.0511 11.532 73.6671 11.556V9.648C74.7471 9.648 75.5871 9.6 76.1871 9.504C76.8111 9.384 77.2791 9.252 77.5911 9.108C77.9271 8.964 78.1791 8.808 78.3471 8.64H79.6431C79.6671 8.856 79.6791 9.06 79.6791 9.252C79.7031 9.444 79.7151 9.648 79.7151 9.864C79.7391 10.08 79.7631 10.356 79.7871 10.692C80.3151 10.26 80.8911 9.876 81.5151 9.54C82.1391 9.204 82.7871 8.94 83.4591 8.748C84.1551 8.532 84.8151 8.424 85.4391 8.424C87.5751 8.424 89.1111 9.072 90.0471 10.368C91.0071 11.664 91.4871 13.692 91.4871 16.452V22.536C91.4871 22.968 91.4751 23.412 91.4511 23.868C91.4271 24.3 91.3911 24.744 91.3431 25.2C91.7271 25.176 92.1111 25.164 92.4951 25.164C92.9031 25.14 93.2751 25.116 93.6111 25.092V27H85.5831V25.488C86.3031 25.488 86.8071 25.32 87.0951 24.984C87.3831 24.648 87.5511 24.18 87.5991 23.58C87.6711 22.98 87.7071 22.284 87.7071 21.492V16.452C87.6831 14.556 87.3711 13.128 86.7711 12.168C86.1951 11.208 85.2591 10.74 83.9631 10.764C83.1951 10.764 82.4391 10.956 81.6951 11.34C80.9511 11.724 80.3271 12.192 79.8231 12.744C79.8231 12.984 79.8231 13.248 79.8231 13.536C79.8231 13.8 79.8231 14.076 79.8231 14.364V22.536C79.8231 22.968 79.8111 23.412 79.7871 23.868C79.7631 24.3 79.7271 24.744 79.6791 25.2C80.0631 25.176 80.4471 25.164 80.8311 25.164C81.2391 25.14 81.6111 25.116 81.9471 25.092V27H73.9191Z" fill="#666666"/>
</svg>
